<svg width="21" height="23" viewBox="0 0 21 23" fill="none" xmlns="http://www.w3.org/2000/svg">
<path d="M2.69995 20.3333H7.16162V13.6153C7.16162 13.274 7.27706 12.9878 7.50795 12.7567C7.73906 12.5258 8.02528 12.4103 8.36662 12.4103H13.0333C13.3746 12.4103 13.6608 12.5258 13.892 12.7567C14.1228 12.9878 14.2383 13.274 14.2383 13.6153V20.3333H18.7V8.53834C18.7 8.47012 18.685 8.40823 18.655 8.35267C18.6252 8.29712 18.5846 8.2479 18.5333 8.20501L10.9436 2.50001C10.8752 2.44023 10.794 2.41034 10.7 2.41034C10.606 2.41034 10.5247 2.44023 10.4563 2.50001L2.86662 8.20501C2.81528 8.2479 2.77473 8.29712 2.74495 8.35267C2.71495 8.40823 2.69995 8.47012 2.69995 8.53834V20.3333ZM0.699951 20.3333V8.53834C0.699951 8.15678 0.785284 7.79534 0.955951 7.45401C1.12684 7.11245 1.36284 6.83123 1.66395 6.61034L9.25395 0.89234C9.67506 0.571007 10.1564 0.410339 10.698 0.410339C11.2395 0.410339 11.7222 0.571007 12.146 0.89234L19.736 6.61034C20.0371 6.83123 20.2731 7.11245 20.444 7.45401C20.6146 7.79534 20.7 8.15678 20.7 8.53834V20.3333C20.7 20.8787 20.503 21.3483 20.109 21.7423C19.715 22.1363 19.2453 22.3333 18.7 22.3333H13.4436C13.1021 22.3333 12.8158 22.2178 12.585 21.9867C12.3538 21.7558 12.2383 21.4696 12.2383 21.128V14.4103H9.16162V21.128C9.16162 21.4696 9.04606 21.7558 8.81495 21.9867C8.58406 22.2178 8.29784 22.3333 7.95629 22.3333H2.69995C2.15462 22.3333 1.68495 22.1363 1.29095 21.7423C0.896951 21.3483 0.699951 20.8787 0.699951 20.3333Z" fill="#202128" fill-opacity="0.3"/>
</svg>
