<svg width="16" height="16" viewBox="0 0 16 16" fill="none" xmlns="http://www.w3.org/2000/svg">
<mask id="mask0_2724_725" style="mask-type:alpha" maskUnits="userSpaceOnUse" x="0" y="0" width="16" height="16">
<rect width="16" height="16" fill="#D9D9D9"/>
</mask>
<g mask="url(#mask0_2724_725)">
<path d="M8.00011 14.8003C7.15567 14.8003 6.35856 14.6392 5.60878 14.3169C4.85856 13.9947 4.20856 13.5585 3.65878 13.0083C3.10856 12.4585 2.67234 11.8085 2.35011 11.0583C2.02789 10.3085 1.86678 9.51137 1.86678 8.66693C1.86678 7.82248 2.02789 7.02515 2.35011 6.27493C2.67234 5.52515 3.10856 4.87515 3.65878 4.32493C4.20856 3.77515 4.85856 3.33915 5.60878 3.01693C6.35856 2.6947 7.15567 2.53359 8.00011 2.53359C8.84456 2.53359 9.64189 2.6947 10.3921 3.01693C11.1419 3.33915 11.7919 3.77515 12.3421 4.32493C12.8919 4.87515 13.3279 5.52515 13.6501 6.27493C13.9723 7.02515 14.1334 7.82248 14.1334 8.66693C14.1334 9.51137 13.9723 10.3085 13.6501 11.0583C13.3279 11.8085 12.8919 12.4585 12.3421 13.0083C11.7919 13.5585 11.1419 13.9947 10.3921 14.3169C9.64189 14.6392 8.84456 14.8003 8.00011 14.8003ZM7.30011 6.03359V8.65026C7.30011 8.75026 7.31967 8.84737 7.35878 8.94159C7.39745 9.03626 7.45567 9.12248 7.53345 9.20026L9.36678 11.0169C9.489 11.1503 9.64456 11.2169 9.83345 11.2169C10.0223 11.2169 10.189 11.1447 10.3334 11.0003C10.4557 10.878 10.5168 10.7169 10.5168 10.5169C10.5168 10.3169 10.4557 10.1503 10.3334 10.0169L8.70011 8.40026V6.01693C8.70011 5.81693 8.63345 5.65293 8.50011 5.52493C8.36678 5.39737 8.20011 5.33359 8.00011 5.33359C7.80011 5.33359 7.63345 5.40026 7.50011 5.53359C7.36678 5.66693 7.30011 5.83359 7.30011 6.03359ZM2.18345 4.85026C2.05011 4.98359 1.89167 5.04737 1.70811 5.04159C1.525 5.03626 1.36123 4.96693 1.21678 4.83359C1.09456 4.70026 1.03345 4.53626 1.03345 4.34159C1.03345 4.14737 1.09456 3.98359 1.21678 3.85026L3.20011 1.86693C3.33345 1.7447 3.49456 1.68359 3.68345 1.68359C3.87234 1.68359 4.03345 1.75026 4.16678 1.88359C4.30011 2.01693 4.36678 2.1807 4.36678 2.37493C4.36678 2.56959 4.30011 2.73359 4.16678 2.86693L2.18345 4.85026ZM13.8001 4.83359L11.8168 2.85026C11.6834 2.71693 11.6197 2.55848 11.6254 2.37493C11.6308 2.19182 11.7001 2.02804 11.8334 1.88359C11.9668 1.75026 12.1308 1.68359 12.3254 1.68359C12.5197 1.68359 12.6834 1.75026 12.8168 1.88359L14.8001 3.86693C14.9223 4.00026 14.9834 4.15848 14.9834 4.34159C14.9834 4.52515 14.9168 4.68915 14.7834 4.83359C14.6501 4.96693 14.4863 5.03359 14.2921 5.03359C14.0974 5.03359 13.9334 4.96693 13.8001 4.83359Z" fill="white"/>
<path d="M8.00011 14.8003C7.15567 14.8003 6.35856 14.6392 5.60878 14.3169C4.85856 13.9947 4.20856 13.5585 3.65878 13.0083C3.10856 12.4585 2.67234 11.8085 2.35011 11.0583C2.02789 10.3085 1.86678 9.51137 1.86678 8.66693C1.86678 7.82248 2.02789 7.02515 2.35011 6.27493C2.67234 5.52515 3.10856 4.87515 3.65878 4.32493C4.20856 3.77515 4.85856 3.33915 5.60878 3.01693C6.35856 2.6947 7.15567 2.53359 8.00011 2.53359C8.84456 2.53359 9.64189 2.6947 10.3921 3.01693C11.1419 3.33915 11.7919 3.77515 12.3421 4.32493C12.8919 4.87515 13.3279 5.52515 13.6501 6.27493C13.9723 7.02515 14.1334 7.82248 14.1334 8.66693C14.1334 9.51137 13.9723 10.3085 13.6501 11.0583C13.3279 11.8085 12.8919 12.4585 12.3421 13.0083C11.7919 13.5585 11.1419 13.9947 10.3921 14.3169C9.64189 14.6392 8.84456 14.8003 8.00011 14.8003ZM7.30011 6.03359V8.65026C7.30011 8.75026 7.31967 8.84737 7.35878 8.94159C7.39745 9.03626 7.45567 9.12248 7.53345 9.20026L9.36678 11.0169C9.489 11.1503 9.64456 11.2169 9.83345 11.2169C10.0223 11.2169 10.189 11.1447 10.3334 11.0003C10.4557 10.878 10.5168 10.7169 10.5168 10.5169C10.5168 10.3169 10.4557 10.1503 10.3334 10.0169L8.70011 8.40026V6.01693C8.70011 5.81693 8.63345 5.65293 8.50011 5.52493C8.36678 5.39737 8.20011 5.33359 8.00011 5.33359C7.80011 5.33359 7.63345 5.40026 7.50011 5.53359C7.36678 5.66693 7.30011 5.83359 7.30011 6.03359ZM2.18345 4.85026C2.05011 4.98359 1.89167 5.04737 1.70811 5.04159C1.525 5.03626 1.36123 4.96693 1.21678 4.83359C1.09456 4.70026 1.03345 4.53626 1.03345 4.34159C1.03345 4.14737 1.09456 3.98359 1.21678 3.85026L3.20011 1.86693C3.33345 1.7447 3.49456 1.68359 3.68345 1.68359C3.87234 1.68359 4.03345 1.75026 4.16678 1.88359C4.30011 2.01693 4.36678 2.1807 4.36678 2.37493C4.36678 2.56959 4.30011 2.73359 4.16678 2.86693L2.18345 4.85026ZM13.8001 4.83359L11.8168 2.85026C11.6834 2.71693 11.6197 2.55848 11.6254 2.37493C11.6308 2.19182 11.7001 2.02804 11.8334 1.88359C11.9668 1.75026 12.1308 1.68359 12.3254 1.68359C12.5197 1.68359 12.6834 1.75026 12.8168 1.88359L14.8001 3.86693C14.9223 4.00026 14.9834 4.15848 14.9834 4.34159C14.9834 4.52515 14.9168 4.68915 14.7834 4.83359C14.6501 4.96693 14.4863 5.03359 14.2921 5.03359C14.0974 5.03359 13.9334 4.96693 13.8001 4.83359Z" fill="black" fill-opacity="0.44"/>
<path d="M8.00011 14.8003C7.15567 14.8003 6.35856 14.6392 5.60878 14.3169C4.85856 13.9947 4.20856 13.5585 3.65878 13.0083C3.10856 12.4585 2.67234 11.8085 2.35011 11.0583C2.02789 10.3085 1.86678 9.51137 1.86678 8.66693C1.86678 7.82248 2.02789 7.02515 2.35011 6.27493C2.67234 5.52515 3.10856 4.87515 3.65878 4.32493C4.20856 3.77515 4.85856 3.33915 5.60878 3.01693C6.35856 2.6947 7.15567 2.53359 8.00011 2.53359C8.84456 2.53359 9.64189 2.6947 10.3921 3.01693C11.1419 3.33915 11.7919 3.77515 12.3421 4.32493C12.8919 4.87515 13.3279 5.52515 13.6501 6.27493C13.9723 7.02515 14.1334 7.82248 14.1334 8.66693C14.1334 9.51137 13.9723 10.3085 13.6501 11.0583C13.3279 11.8085 12.8919 12.4585 12.3421 13.0083C11.7919 13.5585 11.1419 13.9947 10.3921 14.3169C9.64189 14.6392 8.84456 14.8003 8.00011 14.8003ZM7.30011 6.03359V8.65026C7.30011 8.75026 7.31967 8.84737 7.35878 8.94159C7.39745 9.03626 7.45567 9.12248 7.53345 9.20026L9.36678 11.0169C9.489 11.1503 9.64456 11.2169 9.83345 11.2169C10.0223 11.2169 10.189 11.1447 10.3334 11.0003C10.4557 10.878 10.5168 10.7169 10.5168 10.5169C10.5168 10.3169 10.4557 10.1503 10.3334 10.0169L8.70011 8.40026V6.01693C8.70011 5.81693 8.63345 5.65293 8.50011 5.52493C8.36678 5.39737 8.20011 5.33359 8.00011 5.33359C7.80011 5.33359 7.63345 5.40026 7.50011 5.53359C7.36678 5.66693 7.30011 5.83359 7.30011 6.03359ZM2.18345 4.85026C2.05011 4.98359 1.89167 5.04737 1.70811 5.04159C1.525 5.03626 1.36123 4.96693 1.21678 4.83359C1.09456 4.70026 1.03345 4.53626 1.03345 4.34159C1.03345 4.14737 1.09456 3.98359 1.21678 3.85026L3.20011 1.86693C3.33345 1.7447 3.49456 1.68359 3.68345 1.68359C3.87234 1.68359 4.03345 1.75026 4.16678 1.88359C4.30011 2.01693 4.36678 2.1807 4.36678 2.37493C4.36678 2.56959 4.30011 2.73359 4.16678 2.86693L2.18345 4.85026ZM13.8001 4.83359L11.8168 2.85026C11.6834 2.71693 11.6197 2.55848 11.6254 2.37493C11.6308 2.19182 11.7001 2.02804 11.8334 1.88359C11.9668 1.75026 12.1308 1.68359 12.3254 1.68359C12.5197 1.68359 12.6834 1.75026 12.8168 1.88359L14.8001 3.86693C14.9223 4.00026 14.9834 4.15848 14.9834 4.34159C14.9834 4.52515 14.9168 4.68915 14.7834 4.83359C14.6501 4.96693 14.4863 5.03359 14.2921 5.03359C14.0974 5.03359 13.9334 4.96693 13.8001 4.83359Z" fill="#8099FF" fill-opacity="0.15"/>
</g>
</svg>
