<svg width="30" height="30" viewBox="0 0 30 30" fill="none" xmlns="http://www.w3.org/2000/svg">
<path d="M5.50414 4.375C4.3459 4.375 3.38721 5.36565 3.38721 6.5625V23.4375C3.38721 24.6343 4.3459 25.625 5.50414 25.625H25.4638C26.6221 25.625 27.5808 24.6343 27.5808 23.4375V6.5625C27.5808 5.36565 26.6221 4.375 25.4638 4.375H5.50414ZM5.50414 6.25H7.01624V21.5625C7.01454 21.6867 7.03675 21.8101 7.08158 21.9254C7.12641 22.0406 7.19297 22.1456 7.27738 22.234C7.3618 22.3225 7.46239 22.3928 7.57331 22.4407C7.68423 22.4887 7.80326 22.5134 7.9235 22.5134C8.04373 22.5134 8.16277 22.4887 8.27369 22.4407C8.3846 22.3928 8.4852 22.3225 8.56961 22.234C8.65403 22.1456 8.72058 22.0406 8.76541 21.9254C8.81025 21.8101 8.83246 21.6867 8.83076 21.5625V6.25H25.4638C25.6423 6.25 25.7662 6.3781 25.7662 6.5625V23.4375C25.7662 23.6219 25.6423 23.75 25.4638 23.75H5.50414C5.32569 23.75 5.20172 23.6219 5.20172 23.4375V6.5625C5.20172 6.3781 5.32569 6.25 5.50414 6.25ZM17.2985 7.5C13.3007 7.5 10.0404 10.869 10.0404 15C10.0404 19.131 13.3007 22.5 17.2985 22.5C21.2963 22.5 24.5566 19.131 24.5566 15C24.5566 10.869 21.2963 7.5 17.2985 7.5ZM17.2985 9.375C20.3156 9.375 22.742 11.8823 22.742 15C22.742 18.1177 20.3156 20.625 17.2985 20.625C14.2814 20.625 11.8549 18.1177 11.8549 15C11.8549 11.8823 14.2814 9.375 17.2985 9.375ZM17.2985 13.75C16.9777 13.75 16.67 13.8817 16.4431 14.1161C16.2163 14.3505 16.0888 14.6685 16.0888 15C16.0888 15.3315 16.2163 15.6495 16.4431 15.8839C16.67 16.1183 16.9777 16.25 17.2985 16.25C17.6193 16.25 17.927 16.1183 18.1539 15.8839C18.3807 15.6495 18.5082 15.3315 18.5082 15C18.5082 14.6685 18.3807 14.3505 18.1539 14.1161C17.927 13.8817 17.6193 13.75 17.2985 13.75Z" fill="current"/>
<path d="M5.50414 4.375C4.3459 4.375 3.38721 5.36565 3.38721 6.5625V23.4375C3.38721 24.6343 4.3459 25.625 5.50414 25.625H25.4638C26.6221 25.625 27.5808 24.6343 27.5808 23.4375V6.5625C27.5808 5.36565 26.6221 4.375 25.4638 4.375H5.50414ZM5.50414 6.25H7.01624V21.5625C7.01454 21.6867 7.03675 21.8101 7.08158 21.9254C7.12641 22.0406 7.19297 22.1456 7.27738 22.234C7.3618 22.3225 7.46239 22.3928 7.57331 22.4407C7.68423 22.4887 7.80326 22.5134 7.9235 22.5134C8.04373 22.5134 8.16277 22.4887 8.27369 22.4407C8.3846 22.3928 8.4852 22.3225 8.56961 22.234C8.65403 22.1456 8.72058 22.0406 8.76541 21.9254C8.81025 21.8101 8.83246 21.6867 8.83076 21.5625V6.25H25.4638C25.6423 6.25 25.7662 6.3781 25.7662 6.5625V23.4375C25.7662 23.6219 25.6423 23.75 25.4638 23.75H5.50414C5.32569 23.75 5.20172 23.6219 5.20172 23.4375V6.5625C5.20172 6.3781 5.32569 6.25 5.50414 6.25ZM17.2985 7.5C13.3007 7.5 10.0404 10.869 10.0404 15C10.0404 19.131 13.3007 22.5 17.2985 22.5C21.2963 22.5 24.5566 19.131 24.5566 15C24.5566 10.869 21.2963 7.5 17.2985 7.5ZM17.2985 9.375C20.3156 9.375 22.742 11.8823 22.742 15C22.742 18.1177 20.3156 20.625 17.2985 20.625C14.2814 20.625 11.8549 18.1177 11.8549 15C11.8549 11.8823 14.2814 9.375 17.2985 9.375ZM17.2985 13.75C16.9777 13.75 16.67 13.8817 16.4431 14.1161C16.2163 14.3505 16.0888 14.6685 16.0888 15C16.0888 15.3315 16.2163 15.6495 16.4431 15.8839C16.67 16.1183 16.9777 16.25 17.2985 16.25C17.6193 16.25 17.927 16.1183 18.1539 15.8839C18.3807 15.6495 18.5082 15.3315 18.5082 15C18.5082 14.6685 18.3807 14.3505 18.1539 14.1161C17.927 13.8817 17.6193 13.75 17.2985 13.75Z" fill="current" fill-opacity="0.2"/>
<path d="M5.50414 4.375C4.3459 4.375 3.38721 5.36565 3.38721 6.5625V23.4375C3.38721 24.6343 4.3459 25.625 5.50414 25.625H25.4638C26.6221 25.625 27.5808 24.6343 27.5808 23.4375V6.5625C27.5808 5.36565 26.6221 4.375 25.4638 4.375H5.50414ZM5.50414 6.25H7.01624V21.5625C7.01454 21.6867 7.03675 21.8101 7.08158 21.9254C7.12641 22.0406 7.19297 22.1456 7.27738 22.234C7.3618 22.3225 7.46239 22.3928 7.57331 22.4407C7.68423 22.4887 7.80326 22.5134 7.9235 22.5134C8.04373 22.5134 8.16277 22.4887 8.27369 22.4407C8.3846 22.3928 8.4852 22.3225 8.56961 22.234C8.65403 22.1456 8.72058 22.0406 8.76541 21.9254C8.81025 21.8101 8.83246 21.6867 8.83076 21.5625V6.25H25.4638C25.6423 6.25 25.7662 6.3781 25.7662 6.5625V23.4375C25.7662 23.6219 25.6423 23.75 25.4638 23.75H5.50414C5.32569 23.75 5.20172 23.6219 5.20172 23.4375V6.5625C5.20172 6.3781 5.32569 6.25 5.50414 6.25ZM17.2985 7.5C13.3007 7.5 10.0404 10.869 10.0404 15C10.0404 19.131 13.3007 22.5 17.2985 22.5C21.2963 22.5 24.5566 19.131 24.5566 15C24.5566 10.869 21.2963 7.5 17.2985 7.5ZM17.2985 9.375C20.3156 9.375 22.742 11.8823 22.742 15C22.742 18.1177 20.3156 20.625 17.2985 20.625C14.2814 20.625 11.8549 18.1177 11.8549 15C11.8549 11.8823 14.2814 9.375 17.2985 9.375ZM17.2985 13.75C16.9777 13.75 16.67 13.8817 16.4431 14.1161C16.2163 14.3505 16.0888 14.6685 16.0888 15C16.0888 15.3315 16.2163 15.6495 16.4431 15.8839C16.67 16.1183 16.9777 16.25 17.2985 16.25C17.6193 16.25 17.927 16.1183 18.1539 15.8839C18.3807 15.6495 18.5082 15.3315 18.5082 15C18.5082 14.6685 18.3807 14.3505 18.1539 14.1161C17.927 13.8817 17.6193 13.75 17.2985 13.75Z" fill="current" fill-opacity="0.12"/>
</svg>
