<svg width="24" height="24" viewBox="0 0 24 24" fill="none" xmlns="http://www.w3.org/2000/svg">
<mask id="mask0_2246_7500" style="mask-type:alpha" maskUnits="userSpaceOnUse" x="0" y="0" width="24" height="24">
<rect width="24" height="24" fill="#D9D9D9"/>
</mask>
<g mask="url(#mask0_2246_7500)">
<path d="M22.0751 17.1001C21.7751 17.1001 21.5207 16.9918 21.312 16.7751C21.104 16.5584 21 16.3001 21 16.0001V10.2001L13.1 14.5001C12.9334 14.6001 12.7584 14.6711 12.575 14.7131C12.3917 14.7544 12.2 14.7751 12 14.7751C11.8 14.7751 11.6084 14.7544 11.425 14.7131C11.2417 14.6711 11.0667 14.6001 10.9 14.5001L2.65005 10.0001C2.45005 9.9001 2.30005 9.75843 2.20005 9.5751C2.10005 9.39176 2.05005 9.2001 2.05005 9.0001C2.05005 8.8001 2.10005 8.60843 2.20005 8.4251C2.30005 8.24176 2.45005 8.1001 2.65005 8.0001L10.925 3.5001C11.0917 3.4001 11.2667 3.3291 11.45 3.2871C11.6334 3.24576 11.8167 3.2251 12 3.2251C12.1834 3.2251 12.3667 3.24576 12.55 3.2871C12.7334 3.3291 12.9084 3.4001 13.075 3.5001L22.5751 8.6751C22.7751 8.7751 22.925 8.91676 23.025 9.1001C23.125 9.28343 23.175 9.4751 23.175 9.6751V16.0001C23.175 16.3001 23.0711 16.5584 22.8631 16.7751C22.6544 16.9918 22.3917 17.1001 22.0751 17.1001ZM12 20.7751C11.8167 20.7751 11.6334 20.7501 11.45 20.7001C11.2667 20.6501 11.0917 20.5751 10.925 20.4751L6.12505 17.9001C5.74172 17.7001 5.44605 17.4208 5.23805 17.0621C5.02938 16.7041 4.92505 16.3084 4.92505 15.8751V12.3501L10.5 15.3751C10.7334 15.5084 10.975 15.6251 11.225 15.7251C11.475 15.8251 11.7334 15.8751 12 15.8751C12.2667 15.8751 12.5294 15.8208 12.788 15.7121C13.046 15.6041 13.2917 15.4834 13.525 15.3501L19.0751 12.3501V15.8751C19.0751 16.3084 18.9707 16.7041 18.762 17.0621C18.554 17.4208 18.2584 17.7001 17.875 17.9001L13.075 20.4751C12.9084 20.5751 12.7334 20.6501 12.55 20.7001C12.3667 20.7501 12.1834 20.7751 12 20.7751Z" fill="white"/>
<path d="M22.0751 17.1001C21.7751 17.1001 21.5207 16.9918 21.312 16.7751C21.104 16.5584 21 16.3001 21 16.0001V10.2001L13.1 14.5001C12.9334 14.6001 12.7584 14.6711 12.575 14.7131C12.3917 14.7544 12.2 14.7751 12 14.7751C11.8 14.7751 11.6084 14.7544 11.425 14.7131C11.2417 14.6711 11.0667 14.6001 10.9 14.5001L2.65005 10.0001C2.45005 9.9001 2.30005 9.75843 2.20005 9.5751C2.10005 9.39176 2.05005 9.2001 2.05005 9.0001C2.05005 8.8001 2.10005 8.60843 2.20005 8.4251C2.30005 8.24176 2.45005 8.1001 2.65005 8.0001L10.925 3.5001C11.0917 3.4001 11.2667 3.3291 11.45 3.2871C11.6334 3.24576 11.8167 3.2251 12 3.2251C12.1834 3.2251 12.3667 3.24576 12.55 3.2871C12.7334 3.3291 12.9084 3.4001 13.075 3.5001L22.5751 8.6751C22.7751 8.7751 22.925 8.91676 23.025 9.1001C23.125 9.28343 23.175 9.4751 23.175 9.6751V16.0001C23.175 16.3001 23.0711 16.5584 22.8631 16.7751C22.6544 16.9918 22.3917 17.1001 22.0751 17.1001ZM12 20.7751C11.8167 20.7751 11.6334 20.7501 11.45 20.7001C11.2667 20.6501 11.0917 20.5751 10.925 20.4751L6.12505 17.9001C5.74172 17.7001 5.44605 17.4208 5.23805 17.0621C5.02938 16.7041 4.92505 16.3084 4.92505 15.8751V12.3501L10.5 15.3751C10.7334 15.5084 10.975 15.6251 11.225 15.7251C11.475 15.8251 11.7334 15.8751 12 15.8751C12.2667 15.8751 12.5294 15.8208 12.788 15.7121C13.046 15.6041 13.2917 15.4834 13.525 15.3501L19.0751 12.3501V15.8751C19.0751 16.3084 18.9707 16.7041 18.762 17.0621C18.554 17.4208 18.2584 17.7001 17.875 17.9001L13.075 20.4751C12.9084 20.5751 12.7334 20.6501 12.55 20.7001C12.3667 20.7501 12.1834 20.7751 12 20.7751Z" fill="black" fill-opacity="0.44"/>
<path d="M22.0751 17.1001C21.7751 17.1001 21.5207 16.9918 21.312 16.7751C21.104 16.5584 21 16.3001 21 16.0001V10.2001L13.1 14.5001C12.9334 14.6001 12.7584 14.6711 12.575 14.7131C12.3917 14.7544 12.2 14.7751 12 14.7751C11.8 14.7751 11.6084 14.7544 11.425 14.7131C11.2417 14.6711 11.0667 14.6001 10.9 14.5001L2.65005 10.0001C2.45005 9.9001 2.30005 9.75843 2.20005 9.5751C2.10005 9.39176 2.05005 9.2001 2.05005 9.0001C2.05005 8.8001 2.10005 8.60843 2.20005 8.4251C2.30005 8.24176 2.45005 8.1001 2.65005 8.0001L10.925 3.5001C11.0917 3.4001 11.2667 3.3291 11.45 3.2871C11.6334 3.24576 11.8167 3.2251 12 3.2251C12.1834 3.2251 12.3667 3.24576 12.55 3.2871C12.7334 3.3291 12.9084 3.4001 13.075 3.5001L22.5751 8.6751C22.7751 8.7751 22.925 8.91676 23.025 9.1001C23.125 9.28343 23.175 9.4751 23.175 9.6751V16.0001C23.175 16.3001 23.0711 16.5584 22.8631 16.7751C22.6544 16.9918 22.3917 17.1001 22.0751 17.1001ZM12 20.7751C11.8167 20.7751 11.6334 20.7501 11.45 20.7001C11.2667 20.6501 11.0917 20.5751 10.925 20.4751L6.12505 17.9001C5.74172 17.7001 5.44605 17.4208 5.23805 17.0621C5.02938 16.7041 4.92505 16.3084 4.92505 15.8751V12.3501L10.5 15.3751C10.7334 15.5084 10.975 15.6251 11.225 15.7251C11.475 15.8251 11.7334 15.8751 12 15.8751C12.2667 15.8751 12.5294 15.8208 12.788 15.7121C13.046 15.6041 13.2917 15.4834 13.525 15.3501L19.0751 12.3501V15.8751C19.0751 16.3084 18.9707 16.7041 18.762 17.0621C18.554 17.4208 18.2584 17.7001 17.875 17.9001L13.075 20.4751C12.9084 20.5751 12.7334 20.6501 12.55 20.7001C12.3667 20.7501 12.1834 20.7751 12 20.7751Z" fill="#8099FF" fill-opacity="0.15"/>
</g>
</svg>
