<svg width="24" height="24" viewBox="0 0 24 24" fill="none" xmlns="http://www.w3.org/2000/svg">
<mask id="mask0_2244_6061" style="mask-type:alpha" maskUnits="userSpaceOnUse" x="0" y="0" width="24" height="24">
<rect width="24" height="24" fill="current"/>
</mask>
<g mask="url(#mask0_2244_6061)">
<path d="M22.0748 17.1001C21.7748 17.1001 21.5205 16.9918 21.3118 16.7751C21.1038 16.5584 20.9998 16.3001 20.9998 16.0001V10.2001L13.0998 14.5001C12.9331 14.6001 12.7581 14.6711 12.5748 14.7131C12.3915 14.7544 12.1998 14.7751 11.9998 14.7751C11.7998 14.7751 11.6081 14.7544 11.4248 14.7131C11.2415 14.6711 11.0665 14.6001 10.8998 14.5001L2.6498 10.0001C2.4498 9.9001 2.2998 9.75843 2.1998 9.5751C2.0998 9.39176 2.0498 9.2001 2.0498 9.0001C2.0498 8.8001 2.0998 8.60843 2.1998 8.4251C2.2998 8.24176 2.4498 8.1001 2.6498 8.0001L10.9248 3.5001C11.0915 3.4001 11.2665 3.3291 11.4498 3.2871C11.6331 3.24576 11.8165 3.2251 11.9998 3.2251C12.1831 3.2251 12.3665 3.24576 12.5498 3.2871C12.7331 3.3291 12.9081 3.4001 13.0748 3.5001L22.5748 8.6751C22.7748 8.7751 22.9248 8.91676 23.0248 9.1001C23.1248 9.28343 23.1748 9.4751 23.1748 9.6751V16.0001C23.1748 16.3001 23.0708 16.5584 22.8628 16.7751C22.6541 16.9918 22.3915 17.1001 22.0748 17.1001ZM11.9998 20.7751C11.8165 20.7751 11.6331 20.7501 11.4498 20.7001C11.2665 20.6501 11.0915 20.5751 10.9248 20.4751L6.1248 17.9001C5.74147 17.7001 5.4458 17.4208 5.2378 17.0621C5.02914 16.7041 4.9248 16.3084 4.9248 15.8751V12.3501L10.4998 15.3751C10.7331 15.5084 10.9748 15.6251 11.2248 15.7251C11.4748 15.8251 11.7331 15.8751 11.9998 15.8751C12.2665 15.8751 12.5291 15.8208 12.7878 15.7121C13.0458 15.6041 13.2915 15.4834 13.5248 15.3501L19.0748 12.3501V15.8751C19.0748 16.3084 18.9705 16.7041 18.7618 17.0621C18.5538 17.4208 18.2581 17.7001 17.8748 17.9001L13.0748 20.4751C12.9081 20.5751 12.7331 20.6501 12.5498 20.7001C12.3665 20.7501 12.1831 20.7751 11.9998 20.7751Z" fill="white"/>
<path d="M22.0748 17.1001C21.7748 17.1001 21.5205 16.9918 21.3118 16.7751C21.1038 16.5584 20.9998 16.3001 20.9998 16.0001V10.2001L13.0998 14.5001C12.9331 14.6001 12.7581 14.6711 12.5748 14.7131C12.3915 14.7544 12.1998 14.7751 11.9998 14.7751C11.7998 14.7751 11.6081 14.7544 11.4248 14.7131C11.2415 14.6711 11.0665 14.6001 10.8998 14.5001L2.6498 10.0001C2.4498 9.9001 2.2998 9.75843 2.1998 9.5751C2.0998 9.39176 2.0498 9.2001 2.0498 9.0001C2.0498 8.8001 2.0998 8.60843 2.1998 8.4251C2.2998 8.24176 2.4498 8.1001 2.6498 8.0001L10.9248 3.5001C11.0915 3.4001 11.2665 3.3291 11.4498 3.2871C11.6331 3.24576 11.8165 3.2251 11.9998 3.2251C12.1831 3.2251 12.3665 3.24576 12.5498 3.2871C12.7331 3.3291 12.9081 3.4001 13.0748 3.5001L22.5748 8.6751C22.7748 8.7751 22.9248 8.91676 23.0248 9.1001C23.1248 9.28343 23.1748 9.4751 23.1748 9.6751V16.0001C23.1748 16.3001 23.0708 16.5584 22.8628 16.7751C22.6541 16.9918 22.3915 17.1001 22.0748 17.1001ZM11.9998 20.7751C11.8165 20.7751 11.6331 20.7501 11.4498 20.7001C11.2665 20.6501 11.0915 20.5751 10.9248 20.4751L6.1248 17.9001C5.74147 17.7001 5.4458 17.4208 5.2378 17.0621C5.02914 16.7041 4.9248 16.3084 4.9248 15.8751V12.3501L10.4998 15.3751C10.7331 15.5084 10.9748 15.6251 11.2248 15.7251C11.4748 15.8251 11.7331 15.8751 11.9998 15.8751C12.2665 15.8751 12.5291 15.8208 12.7878 15.7121C13.0458 15.6041 13.2915 15.4834 13.5248 15.3501L19.0748 12.3501V15.8751C19.0748 16.3084 18.9705 16.7041 18.7618 17.0621C18.5538 17.4208 18.2581 17.7001 17.8748 17.9001L13.0748 20.4751C12.9081 20.5751 12.7331 20.6501 12.5498 20.7001C12.3665 20.7501 12.1831 20.7751 11.9998 20.7751Z" fill="black" fill-opacity="0.44"/>
<path d="M22.0748 17.1001C21.7748 17.1001 21.5205 16.9918 21.3118 16.7751C21.1038 16.5584 20.9998 16.3001 20.9998 16.0001V10.2001L13.0998 14.5001C12.9331 14.6001 12.7581 14.6711 12.5748 14.7131C12.3915 14.7544 12.1998 14.7751 11.9998 14.7751C11.7998 14.7751 11.6081 14.7544 11.4248 14.7131C11.2415 14.6711 11.0665 14.6001 10.8998 14.5001L2.6498 10.0001C2.4498 9.9001 2.2998 9.75843 2.1998 9.5751C2.0998 9.39176 2.0498 9.2001 2.0498 9.0001C2.0498 8.8001 2.0998 8.60843 2.1998 8.4251C2.2998 8.24176 2.4498 8.1001 2.6498 8.0001L10.9248 3.5001C11.0915 3.4001 11.2665 3.3291 11.4498 3.2871C11.6331 3.24576 11.8165 3.2251 11.9998 3.2251C12.1831 3.2251 12.3665 3.24576 12.5498 3.2871C12.7331 3.3291 12.9081 3.4001 13.0748 3.5001L22.5748 8.6751C22.7748 8.7751 22.9248 8.91676 23.0248 9.1001C23.1248 9.28343 23.1748 9.4751 23.1748 9.6751V16.0001C23.1748 16.3001 23.0708 16.5584 22.8628 16.7751C22.6541 16.9918 22.3915 17.1001 22.0748 17.1001ZM11.9998 20.7751C11.8165 20.7751 11.6331 20.7501 11.4498 20.7001C11.2665 20.6501 11.0915 20.5751 10.9248 20.4751L6.1248 17.9001C5.74147 17.7001 5.4458 17.4208 5.2378 17.0621C5.02914 16.7041 4.9248 16.3084 4.9248 15.8751V12.3501L10.4998 15.3751C10.7331 15.5084 10.9748 15.6251 11.2248 15.7251C11.4748 15.8251 11.7331 15.8751 11.9998 15.8751C12.2665 15.8751 12.5291 15.8208 12.7878 15.7121C13.0458 15.6041 13.2915 15.4834 13.5248 15.3501L19.0748 12.3501V15.8751C19.0748 16.3084 18.9705 16.7041 18.7618 17.0621C18.5538 17.4208 18.2581 17.7001 17.8748 17.9001L13.0748 20.4751C12.9081 20.5751 12.7331 20.6501 12.5498 20.7001C12.3665 20.7501 12.1831 20.7751 11.9998 20.7751Z" fill="#8099FF" fill-opacity="0.15"/>
</g>
</svg>
