<svg width="36" height="36" viewBox="0 0 36 36" fill="none" xmlns="http://www.w3.org/2000/svg">
<path d="M31.74 12.0195C31.0215 11.9055 30.3105 12.3285 30.078 13.026L27 22.5H12V31.5C12 32.0205 12.27 32.502 12.7125 32.7765C13.1535 33.0495 13.7055 33.072 14.172 32.8425L15.8295 32.013C16.2525 31.8015 16.749 31.8015 17.172 32.013L18.8295 32.8425C18.849 32.8515 18.87 32.8485 18.8895 32.856C19.077 32.94 19.272 32.991 19.4745 32.994C19.5015 32.994 19.527 32.988 19.554 32.988C19.7655 32.9805 19.9755 32.9385 20.1705 32.8425L21.828 32.013C22.251 31.8015 22.7475 31.8015 23.1705 32.013L24.828 32.8425C25.041 32.9475 25.2705 33 25.5015 33C25.7085 33 25.9095 32.943 26.1015 32.859C26.124 32.8485 26.1495 32.853 26.172 32.8425L27.8295 32.013C28.2525 31.8015 28.749 31.8015 29.172 32.013L30.8295 32.8425C31.041 32.9475 31.2705 33 31.5 33C31.7745 33 32.0475 32.925 32.2875 32.7765C32.73 32.502 33 32.0205 33 31.5V13.5C33 12.765 32.4675 12.1365 31.74 12.0195Z" fill="current"/>
<path d="M31.74 12.0195C31.0215 11.9055 30.3105 12.3285 30.078 13.026L27 22.5H12V31.5C12 32.0205 12.27 32.502 12.7125 32.7765C13.1535 33.0495 13.7055 33.072 14.172 32.8425L15.8295 32.013C16.2525 31.8015 16.749 31.8015 17.172 32.013L18.8295 32.8425C18.849 32.8515 18.87 32.8485 18.8895 32.856C19.077 32.94 19.272 32.991 19.4745 32.994C19.5015 32.994 19.527 32.988 19.554 32.988C19.7655 32.9805 19.9755 32.9385 20.1705 32.8425L21.828 32.013C22.251 31.8015 22.7475 31.8015 23.1705 32.013L24.828 32.8425C25.041 32.9475 25.2705 33 25.5015 33C25.7085 33 25.9095 32.943 26.1015 32.859C26.124 32.8485 26.1495 32.853 26.172 32.8425L27.8295 32.013C28.2525 31.8015 28.749 31.8015 29.172 32.013L30.8295 32.8425C31.041 32.9475 31.2705 33 31.5 33C31.7745 33 32.0475 32.925 32.2875 32.7765C32.73 32.502 33 32.0205 33 31.5V13.5C33 12.765 32.4675 12.1365 31.74 12.0195Z" fill="current" fill-opacity="0.6"/>
<path d="M31.74 12.0195C31.0215 11.9055 30.3105 12.3285 30.078 13.026L27 22.5H12V31.5C12 32.0205 12.27 32.502 12.7125 32.7765C13.1535 33.0495 13.7055 33.072 14.172 32.8425L15.8295 32.013C16.2525 31.8015 16.749 31.8015 17.172 32.013L18.8295 32.8425C18.849 32.8515 18.87 32.8485 18.8895 32.856C19.077 32.94 19.272 32.991 19.4745 32.994C19.5015 32.994 19.527 32.988 19.554 32.988C19.7655 32.9805 19.9755 32.9385 20.1705 32.8425L21.828 32.013C22.251 31.8015 22.7475 31.8015 23.1705 32.013L24.828 32.8425C25.041 32.9475 25.2705 33 25.5015 33C25.7085 33 25.9095 32.943 26.1015 32.859C26.124 32.8485 26.1495 32.853 26.172 32.8425L27.8295 32.013C28.2525 31.8015 28.749 31.8015 29.172 32.013L30.8295 32.8425C31.041 32.9475 31.2705 33 31.5 33C31.7745 33 32.0475 32.925 32.2875 32.7765C32.73 32.502 33 32.0205 33 31.5V13.5C33 12.765 32.4675 12.1365 31.74 12.0195Z" fill="current" fill-opacity="0.2"/>
<g opacity="0.35">
<path d="M27 4.5H9C5.6865 4.5 3 8.529 3 13.5C3 18.471 5.6865 22.5 9 22.5H27L30 12L27 4.5Z" fill="current"/>
<path d="M27 4.5H9C5.6865 4.5 3 8.529 3 13.5C3 18.471 5.6865 22.5 9 22.5H27L30 12L27 4.5Z" fill="current" fill-opacity="0.6"/>
<path d="M27 4.5H9C5.6865 4.5 3 8.529 3 13.5C3 18.471 5.6865 22.5 9 22.5H27L30 12L27 4.5Z" fill="current" fill-opacity="0.2"/>
</g>
<path d="M27 4.5C23.6865 4.5 21 8.529 21 13.5C21 18.471 23.6865 22.5 27 22.5C30.3135 22.5 33 18.471 33 13.5C33 8.529 30.3135 4.5 27 4.5ZM27 16.5C26.172 16.5 25.5 15.1575 25.5 13.5C25.5 11.8425 26.172 10.5 27 10.5C27.828 10.5 28.5 11.8425 28.5 13.5C28.5 15.1575 27.828 16.5 27 16.5Z" fill="current"/>
<path d="M27 4.5C23.6865 4.5 21 8.529 21 13.5C21 18.471 23.6865 22.5 27 22.5C30.3135 22.5 33 18.471 33 13.5C33 8.529 30.3135 4.5 27 4.5ZM27 16.5C26.172 16.5 25.5 15.1575 25.5 13.5C25.5 11.8425 26.172 10.5 27 10.5C27.828 10.5 28.5 11.8425 28.5 13.5C28.5 15.1575 27.828 16.5 27 16.5Z" fill="current" fill-opacity="0.6"/>
<path d="M27 4.5C23.6865 4.5 21 8.529 21 13.5C21 18.471 23.6865 22.5 27 22.5C30.3135 22.5 33 18.471 33 13.5C33 8.529 30.3135 4.5 27 4.5ZM27 16.5C26.172 16.5 25.5 15.1575 25.5 13.5C25.5 11.8425 26.172 10.5 27 10.5C27.828 10.5 28.5 11.8425 28.5 13.5C28.5 15.1575 27.828 16.5 27 16.5Z" fill="current" fill-opacity="0.2"/>
</svg>
