<svg width="30" height="30" viewBox="0 0 30 30" fill="none" xmlns="http://www.w3.org/2000/svg">
<mask id="mask0_2246_6684" style="mask-type:alpha" maskUnits="userSpaceOnUse" x="0" y="0" width="30" height="30">
<rect width="30" height="30" fill="#D9D9D9"/>
</mask>
<g mask="url(#mask0_2246_6684)">
<path d="M7.375 25.2187C6.66667 25.2187 6.0575 24.9633 5.5475 24.4525C5.03667 23.9425 4.78125 23.3333 4.78125 22.625C4.78125 21.8958 5.03667 21.2763 5.5475 20.7663C6.0575 20.2554 6.66667 20 7.375 20C8.10417 20 8.72417 20.2554 9.235 20.7663C9.745 21.2763 10 21.8958 10 22.625C10 23.3333 9.745 23.9425 9.235 24.4525C8.72417 24.9633 8.10417 25.2187 7.375 25.2187ZM15 25.2187C14.2917 25.2187 13.6771 24.9633 13.1562 24.4525C12.6354 23.9425 12.375 23.3333 12.375 22.625C12.375 21.8958 12.6354 21.2763 13.1562 20.7663C13.6771 20.2554 14.2917 20 15 20C15.7083 20 16.3229 20.2554 16.8438 20.7663C17.3646 21.2763 17.625 21.8958 17.625 22.625C17.625 23.3333 17.3646 23.9425 16.8438 24.4525C16.3229 24.9633 15.7083 25.2187 15 25.2187ZM22.625 25.2187C21.8958 25.2187 21.2763 24.9633 20.7663 24.4525C20.2554 23.9425 20 23.3333 20 22.625C20 21.8958 20.2554 21.2763 20.7663 20.7663C21.2763 20.2554 21.8958 20 22.625 20C23.3333 20 23.9425 20.2554 24.4525 20.7663C24.9633 21.2763 25.2187 21.8958 25.2187 22.625C25.2187 23.3333 24.9633 23.9425 24.4525 24.4525C23.9425 24.9633 23.3333 25.2187 22.625 25.2187ZM7.375 17.625C6.66667 17.625 6.0575 17.3646 5.5475 16.8438C5.03667 16.3229 4.78125 15.7083 4.78125 15C4.78125 14.2917 5.03667 13.6771 5.5475 13.1562C6.0575 12.6354 6.66667 12.375 7.375 12.375C8.10417 12.375 8.72417 12.6354 9.235 13.1562C9.745 13.6771 10 14.2917 10 15C10 15.7083 9.745 16.3229 9.235 16.8438C8.72417 17.3646 8.10417 17.625 7.375 17.625ZM15 17.625C14.2917 17.625 13.6771 17.3646 13.1562 16.8438C12.6354 16.3229 12.375 15.7083 12.375 15C12.375 14.2917 12.6354 13.6771 13.1562 13.1562C13.6771 12.6354 14.2917 12.375 15 12.375C15.7083 12.375 16.3229 12.6354 16.8438 13.1562C17.3646 13.6771 17.625 14.2917 17.625 15C17.625 15.7083 17.3646 16.3229 16.8438 16.8438C16.3229 17.3646 15.7083 17.625 15 17.625ZM22.625 17.625C21.8958 17.625 21.2763 17.3646 20.7663 16.8438C20.2554 16.3229 20 15.7083 20 15C20 14.2917 20.2554 13.6771 20.7663 13.1562C21.2763 12.6354 21.8958 12.375 22.625 12.375C23.3333 12.375 23.9425 12.6354 24.4525 13.1562C24.9633 13.6771 25.2187 14.2917 25.2187 15C25.2187 15.7083 24.9633 16.3229 24.4525 16.8438C23.9425 17.3646 23.3333 17.625 22.625 17.625ZM7.375 10C6.66667 10 6.0575 9.74458 5.5475 9.23375C5.03667 8.72375 4.78125 8.10417 4.78125 7.375C4.78125 6.66667 5.03667 6.0575 5.5475 5.5475C6.0575 5.03667 6.66667 4.78125 7.375 4.78125C8.10417 4.78125 8.72417 5.03667 9.235 5.5475C9.745 6.0575 10 6.66667 10 7.375C10 8.10417 9.745 8.72375 9.235 9.23375C8.72417 9.74458 8.10417 10 7.375 10ZM15 10C14.2917 10 13.6771 9.74458 13.1562 9.23375C12.6354 8.72375 12.375 8.10417 12.375 7.375C12.375 6.66667 12.6354 6.0575 13.1562 5.5475C13.6771 5.03667 14.2917 4.78125 15 4.78125C15.7083 4.78125 16.3229 5.03667 16.8438 5.5475C17.3646 6.0575 17.625 6.66667 17.625 7.375C17.625 8.10417 17.3646 8.72375 16.8438 9.23375C16.3229 9.74458 15.7083 10 15 10ZM22.625 10C21.8958 10 21.2763 9.74458 20.7663 9.23375C20.2554 8.72375 20 8.10417 20 7.375C20 6.66667 20.2554 6.0575 20.7663 5.5475C21.2763 5.03667 21.8958 4.78125 22.625 4.78125C23.3333 4.78125 23.9425 5.03667 24.4525 5.5475C24.9633 6.0575 25.2187 6.66667 25.2187 7.375C25.2187 8.10417 24.9633 8.72375 24.4525 9.23375C23.9425 9.74458 23.3333 10 22.625 10Z" fill="current"/>
<path d="M7.375 25.2187C6.66667 25.2187 6.0575 24.9633 5.5475 24.4525C5.03667 23.9425 4.78125 23.3333 4.78125 22.625C4.78125 21.8958 5.03667 21.2763 5.5475 20.7663C6.0575 20.2554 6.66667 20 7.375 20C8.10417 20 8.72417 20.2554 9.235 20.7663C9.745 21.2763 10 21.8958 10 22.625C10 23.3333 9.745 23.9425 9.235 24.4525C8.72417 24.9633 8.10417 25.2187 7.375 25.2187ZM15 25.2187C14.2917 25.2187 13.6771 24.9633 13.1562 24.4525C12.6354 23.9425 12.375 23.3333 12.375 22.625C12.375 21.8958 12.6354 21.2763 13.1562 20.7663C13.6771 20.2554 14.2917 20 15 20C15.7083 20 16.3229 20.2554 16.8438 20.7663C17.3646 21.2763 17.625 21.8958 17.625 22.625C17.625 23.3333 17.3646 23.9425 16.8438 24.4525C16.3229 24.9633 15.7083 25.2187 15 25.2187ZM22.625 25.2187C21.8958 25.2187 21.2763 24.9633 20.7663 24.4525C20.2554 23.9425 20 23.3333 20 22.625C20 21.8958 20.2554 21.2763 20.7663 20.7663C21.2763 20.2554 21.8958 20 22.625 20C23.3333 20 23.9425 20.2554 24.4525 20.7663C24.9633 21.2763 25.2187 21.8958 25.2187 22.625C25.2187 23.3333 24.9633 23.9425 24.4525 24.4525C23.9425 24.9633 23.3333 25.2187 22.625 25.2187ZM7.375 17.625C6.66667 17.625 6.0575 17.3646 5.5475 16.8438C5.03667 16.3229 4.78125 15.7083 4.78125 15C4.78125 14.2917 5.03667 13.6771 5.5475 13.1562C6.0575 12.6354 6.66667 12.375 7.375 12.375C8.10417 12.375 8.72417 12.6354 9.235 13.1562C9.745 13.6771 10 14.2917 10 15C10 15.7083 9.745 16.3229 9.235 16.8438C8.72417 17.3646 8.10417 17.625 7.375 17.625ZM15 17.625C14.2917 17.625 13.6771 17.3646 13.1562 16.8438C12.6354 16.3229 12.375 15.7083 12.375 15C12.375 14.2917 12.6354 13.6771 13.1562 13.1562C13.6771 12.6354 14.2917 12.375 15 12.375C15.7083 12.375 16.3229 12.6354 16.8438 13.1562C17.3646 13.6771 17.625 14.2917 17.625 15C17.625 15.7083 17.3646 16.3229 16.8438 16.8438C16.3229 17.3646 15.7083 17.625 15 17.625ZM22.625 17.625C21.8958 17.625 21.2763 17.3646 20.7663 16.8438C20.2554 16.3229 20 15.7083 20 15C20 14.2917 20.2554 13.6771 20.7663 13.1562C21.2763 12.6354 21.8958 12.375 22.625 12.375C23.3333 12.375 23.9425 12.6354 24.4525 13.1562C24.9633 13.6771 25.2187 14.2917 25.2187 15C25.2187 15.7083 24.9633 16.3229 24.4525 16.8438C23.9425 17.3646 23.3333 17.625 22.625 17.625ZM7.375 10C6.66667 10 6.0575 9.74458 5.5475 9.23375C5.03667 8.72375 4.78125 8.10417 4.78125 7.375C4.78125 6.66667 5.03667 6.0575 5.5475 5.5475C6.0575 5.03667 6.66667 4.78125 7.375 4.78125C8.10417 4.78125 8.72417 5.03667 9.235 5.5475C9.745 6.0575 10 6.66667 10 7.375C10 8.10417 9.745 8.72375 9.235 9.23375C8.72417 9.74458 8.10417 10 7.375 10ZM15 10C14.2917 10 13.6771 9.74458 13.1562 9.23375C12.6354 8.72375 12.375 8.10417 12.375 7.375C12.375 6.66667 12.6354 6.0575 13.1562 5.5475C13.6771 5.03667 14.2917 4.78125 15 4.78125C15.7083 4.78125 16.3229 5.03667 16.8438 5.5475C17.3646 6.0575 17.625 6.66667 17.625 7.375C17.625 8.10417 17.3646 8.72375 16.8438 9.23375C16.3229 9.74458 15.7083 10 15 10ZM22.625 10C21.8958 10 21.2763 9.74458 20.7663 9.23375C20.2554 8.72375 20 8.10417 20 7.375C20 6.66667 20.2554 6.0575 20.7663 5.5475C21.2763 5.03667 21.8958 4.78125 22.625 4.78125C23.3333 4.78125 23.9425 5.03667 24.4525 5.5475C24.9633 6.0575 25.2187 6.66667 25.2187 7.375C25.2187 8.10417 24.9633 8.72375 24.4525 9.23375C23.9425 9.74458 23.3333 10 22.625 10Z" fill="current" fill-opacity="0.9"/>
<path d="M7.375 25.2187C6.66667 25.2187 6.0575 24.9633 5.5475 24.4525C5.03667 23.9425 4.78125 23.3333 4.78125 22.625C4.78125 21.8958 5.03667 21.2763 5.5475 20.7663C6.0575 20.2554 6.66667 20 7.375 20C8.10417 20 8.72417 20.2554 9.235 20.7663C9.745 21.2763 10 21.8958 10 22.625C10 23.3333 9.745 23.9425 9.235 24.4525C8.72417 24.9633 8.10417 25.2187 7.375 25.2187ZM15 25.2187C14.2917 25.2187 13.6771 24.9633 13.1562 24.4525C12.6354 23.9425 12.375 23.3333 12.375 22.625C12.375 21.8958 12.6354 21.2763 13.1562 20.7663C13.6771 20.2554 14.2917 20 15 20C15.7083 20 16.3229 20.2554 16.8438 20.7663C17.3646 21.2763 17.625 21.8958 17.625 22.625C17.625 23.3333 17.3646 23.9425 16.8438 24.4525C16.3229 24.9633 15.7083 25.2187 15 25.2187ZM22.625 25.2187C21.8958 25.2187 21.2763 24.9633 20.7663 24.4525C20.2554 23.9425 20 23.3333 20 22.625C20 21.8958 20.2554 21.2763 20.7663 20.7663C21.2763 20.2554 21.8958 20 22.625 20C23.3333 20 23.9425 20.2554 24.4525 20.7663C24.9633 21.2763 25.2187 21.8958 25.2187 22.625C25.2187 23.3333 24.9633 23.9425 24.4525 24.4525C23.9425 24.9633 23.3333 25.2187 22.625 25.2187ZM7.375 17.625C6.66667 17.625 6.0575 17.3646 5.5475 16.8438C5.03667 16.3229 4.78125 15.7083 4.78125 15C4.78125 14.2917 5.03667 13.6771 5.5475 13.1562C6.0575 12.6354 6.66667 12.375 7.375 12.375C8.10417 12.375 8.72417 12.6354 9.235 13.1562C9.745 13.6771 10 14.2917 10 15C10 15.7083 9.745 16.3229 9.235 16.8438C8.72417 17.3646 8.10417 17.625 7.375 17.625ZM15 17.625C14.2917 17.625 13.6771 17.3646 13.1562 16.8438C12.6354 16.3229 12.375 15.7083 12.375 15C12.375 14.2917 12.6354 13.6771 13.1562 13.1562C13.6771 12.6354 14.2917 12.375 15 12.375C15.7083 12.375 16.3229 12.6354 16.8438 13.1562C17.3646 13.6771 17.625 14.2917 17.625 15C17.625 15.7083 17.3646 16.3229 16.8438 16.8438C16.3229 17.3646 15.7083 17.625 15 17.625ZM22.625 17.625C21.8958 17.625 21.2763 17.3646 20.7663 16.8438C20.2554 16.3229 20 15.7083 20 15C20 14.2917 20.2554 13.6771 20.7663 13.1562C21.2763 12.6354 21.8958 12.375 22.625 12.375C23.3333 12.375 23.9425 12.6354 24.4525 13.1562C24.9633 13.6771 25.2187 14.2917 25.2187 15C25.2187 15.7083 24.9633 16.3229 24.4525 16.8438C23.9425 17.3646 23.3333 17.625 22.625 17.625ZM7.375 10C6.66667 10 6.0575 9.74458 5.5475 9.23375C5.03667 8.72375 4.78125 8.10417 4.78125 7.375C4.78125 6.66667 5.03667 6.0575 5.5475 5.5475C6.0575 5.03667 6.66667 4.78125 7.375 4.78125C8.10417 4.78125 8.72417 5.03667 9.235 5.5475C9.745 6.0575 10 6.66667 10 7.375C10 8.10417 9.745 8.72375 9.235 9.23375C8.72417 9.74458 8.10417 10 7.375 10ZM15 10C14.2917 10 13.6771 9.74458 13.1562 9.23375C12.6354 8.72375 12.375 8.10417 12.375 7.375C12.375 6.66667 12.6354 6.0575 13.1562 5.5475C13.6771 5.03667 14.2917 4.78125 15 4.78125C15.7083 4.78125 16.3229 5.03667 16.8438 5.5475C17.3646 6.0575 17.625 6.66667 17.625 7.375C17.625 8.10417 17.3646 8.72375 16.8438 9.23375C16.3229 9.74458 15.7083 10 15 10ZM22.625 10C21.8958 10 21.2763 9.74458 20.7663 9.23375C20.2554 8.72375 20 8.10417 20 7.375C20 6.66667 20.2554 6.0575 20.7663 5.5475C21.2763 5.03667 21.8958 4.78125 22.625 4.78125C23.3333 4.78125 23.9425 5.03667 24.4525 5.5475C24.9633 6.0575 25.2187 6.66667 25.2187 7.375C25.2187 8.10417 24.9633 8.72375 24.4525 9.23375C23.9425 9.74458 23.3333 10 22.625 10Z" fill="current" fill-opacity="0.06"/>
</g>
</svg>
