<svg width="24" height="24" viewBox="0 0 24 24" fill="none" xmlns="http://www.w3.org/2000/svg">
<mask id="mask0_2246_7767" style="mask-type:alpha" maskUnits="userSpaceOnUse" x="0" y="0" width="24" height="24">
<rect width="24" height="24" fill="#D9D9D9"/>
</mask>
<g mask="url(#mask0_2246_7767)">
<path d="M6.07505 22.1998C5.44172 22.1998 4.90438 21.9791 4.46305 21.5378C4.02105 21.0958 3.80005 20.5581 3.80005 19.9248V4.0748C3.80005 3.44147 4.02105 2.9038 4.46305 2.4618C4.90438 2.02047 5.44172 1.7998 6.07505 1.7998H17.925C18.5584 1.7998 19.096 2.02047 19.538 2.4618C19.9794 2.9038 20.2001 3.44147 20.2001 4.0748V19.9248C20.2001 20.5581 19.9794 21.0958 19.538 21.5378C19.096 21.9791 18.5584 22.1998 17.925 22.1998H6.07505ZM11.875 10.5498L13.525 9.5748L15.15 10.5498C15.35 10.6665 15.546 10.6705 15.738 10.5618C15.9294 10.4538 16.025 10.2915 16.025 10.0748V4.0748H11.025V10.0748C11.025 10.2915 11.1207 10.4538 11.312 10.5618C11.504 10.6705 11.6917 10.6665 11.875 10.5498Z" fill="current"/>
</g>
</svg>
