<svg width="24" height="24" viewBox="0 0 24 24" fill="none" xmlns="http://www.w3.org/2000/svg">
<mask id="mask0_2244_6076" style="mask-type:alpha" maskUnits="userSpaceOnUse" x="0" y="0" width="24" height="24">
<rect width="24" height="24" fill="current"/>
</mask>
<g mask="url(#mask0_2244_6076)">
<path d="M6.0748 22.1998C5.44147 22.1998 4.90414 21.9791 4.4628 21.5378C4.0208 21.0958 3.7998 20.5581 3.7998 19.9248V4.0748C3.7998 3.44147 4.0208 2.9038 4.4628 2.4618C4.90414 2.02047 5.44147 1.7998 6.0748 1.7998H17.9248C18.5581 1.7998 19.0958 2.02047 19.5378 2.4618C19.9791 2.9038 20.1998 3.44147 20.1998 4.0748V19.9248C20.1998 20.5581 19.9791 21.0958 19.5378 21.5378C19.0958 21.9791 18.5581 22.1998 17.9248 22.1998H6.0748ZM11.8748 10.5498L13.5248 9.5748L15.1498 10.5498C15.3498 10.6665 15.5458 10.6705 15.7378 10.5618C15.9291 10.4538 16.0248 10.2915 16.0248 10.0748V4.0748H11.0248V10.0748C11.0248 10.2915 11.1205 10.4538 11.3118 10.5618C11.5038 10.6705 11.6915 10.6665 11.8748 10.5498Z" fill="white"/>
<path d="M6.0748 22.1998C5.44147 22.1998 4.90414 21.9791 4.4628 21.5378C4.0208 21.0958 3.7998 20.5581 3.7998 19.9248V4.0748C3.7998 3.44147 4.0208 2.9038 4.4628 2.4618C4.90414 2.02047 5.44147 1.7998 6.0748 1.7998H17.9248C18.5581 1.7998 19.0958 2.02047 19.5378 2.4618C19.9791 2.9038 20.1998 3.44147 20.1998 4.0748V19.9248C20.1998 20.5581 19.9791 21.0958 19.5378 21.5378C19.0958 21.9791 18.5581 22.1998 17.9248 22.1998H6.0748ZM11.8748 10.5498L13.5248 9.5748L15.1498 10.5498C15.3498 10.6665 15.5458 10.6705 15.7378 10.5618C15.9291 10.4538 16.0248 10.2915 16.0248 10.0748V4.0748H11.0248V10.0748C11.0248 10.2915 11.1205 10.4538 11.3118 10.5618C11.5038 10.6705 11.6915 10.6665 11.8748 10.5498Z" fill="black" fill-opacity="0.44"/>
<path d="M6.0748 22.1998C5.44147 22.1998 4.90414 21.9791 4.4628 21.5378C4.0208 21.0958 3.7998 20.5581 3.7998 19.9248V4.0748C3.7998 3.44147 4.0208 2.9038 4.4628 2.4618C4.90414 2.02047 5.44147 1.7998 6.0748 1.7998H17.9248C18.5581 1.7998 19.0958 2.02047 19.5378 2.4618C19.9791 2.9038 20.1998 3.44147 20.1998 4.0748V19.9248C20.1998 20.5581 19.9791 21.0958 19.5378 21.5378C19.0958 21.9791 18.5581 22.1998 17.9248 22.1998H6.0748ZM11.8748 10.5498L13.5248 9.5748L15.1498 10.5498C15.3498 10.6665 15.5458 10.6705 15.7378 10.5618C15.9291 10.4538 16.0248 10.2915 16.0248 10.0748V4.0748H11.0248V10.0748C11.0248 10.2915 11.1205 10.4538 11.3118 10.5618C11.5038 10.6705 11.6915 10.6665 11.8748 10.5498Z" fill="#8099FF" fill-opacity="0.15"/>
</g>
</svg>
