<svg width="16" height="16" viewBox="0 0 16 16" fill="none" xmlns="http://www.w3.org/2000/svg">
<mask id="mask0_2724_720" style="mask-type:alpha" maskUnits="userSpaceOnUse" x="0" y="0" width="16" height="16">
<rect width="16" height="16" fill="#D9D9D9"/>
</mask>
<g mask="url(#mask0_2724_720)">
<path d="M3.38337 14.8002C2.96114 14.8002 2.60292 14.6531 2.3087 14.3589C2.01403 14.0642 1.8667 13.7058 1.8667 13.2835V4.0502C1.8667 3.62797 2.01403 3.26953 2.3087 2.97486C2.60292 2.68064 2.96114 2.53353 3.38337 2.53353H4.00003V1.9002C4.00003 1.7002 4.06937 1.53353 4.20803 1.4002C4.34714 1.26686 4.5167 1.2002 4.7167 1.2002C4.9167 1.2002 5.08625 1.26953 5.22537 1.4082C5.36403 1.54731 5.43337 1.71686 5.43337 1.91686V2.53353H10.5667V1.9002C10.5667 1.7002 10.6363 1.53353 10.7754 1.4002C10.914 1.26686 11.0834 1.2002 11.2834 1.2002C11.4834 1.2002 11.6529 1.26953 11.792 1.4082C11.9307 1.54731 12 1.71686 12 1.91686V2.53353H12.6167C13.0389 2.53353 13.3974 2.68064 13.692 2.97486C13.9863 3.26953 14.1334 3.62797 14.1334 4.0502V13.2835C14.1334 13.7058 13.9863 14.0642 13.692 14.3589C13.3974 14.6531 13.0389 14.8002 12.6167 14.8002H3.38337ZM3.38337 13.2835H12.6167V6.66686H3.38337V13.2835Z" fill="white"/>
<path d="M3.38337 14.8002C2.96114 14.8002 2.60292 14.6531 2.3087 14.3589C2.01403 14.0642 1.8667 13.7058 1.8667 13.2835V4.0502C1.8667 3.62797 2.01403 3.26953 2.3087 2.97486C2.60292 2.68064 2.96114 2.53353 3.38337 2.53353H4.00003V1.9002C4.00003 1.7002 4.06937 1.53353 4.20803 1.4002C4.34714 1.26686 4.5167 1.2002 4.7167 1.2002C4.9167 1.2002 5.08625 1.26953 5.22537 1.4082C5.36403 1.54731 5.43337 1.71686 5.43337 1.91686V2.53353H10.5667V1.9002C10.5667 1.7002 10.6363 1.53353 10.7754 1.4002C10.914 1.26686 11.0834 1.2002 11.2834 1.2002C11.4834 1.2002 11.6529 1.26953 11.792 1.4082C11.9307 1.54731 12 1.71686 12 1.91686V2.53353H12.6167C13.0389 2.53353 13.3974 2.68064 13.692 2.97486C13.9863 3.26953 14.1334 3.62797 14.1334 4.0502V13.2835C14.1334 13.7058 13.9863 14.0642 13.692 14.3589C13.3974 14.6531 13.0389 14.8002 12.6167 14.8002H3.38337ZM3.38337 13.2835H12.6167V6.66686H3.38337V13.2835Z" fill="black" fill-opacity="0.44"/>
<path d="M3.38337 14.8002C2.96114 14.8002 2.60292 14.6531 2.3087 14.3589C2.01403 14.0642 1.8667 13.7058 1.8667 13.2835V4.0502C1.8667 3.62797 2.01403 3.26953 2.3087 2.97486C2.60292 2.68064 2.96114 2.53353 3.38337 2.53353H4.00003V1.9002C4.00003 1.7002 4.06937 1.53353 4.20803 1.4002C4.34714 1.26686 4.5167 1.2002 4.7167 1.2002C4.9167 1.2002 5.08625 1.26953 5.22537 1.4082C5.36403 1.54731 5.43337 1.71686 5.43337 1.91686V2.53353H10.5667V1.9002C10.5667 1.7002 10.6363 1.53353 10.7754 1.4002C10.914 1.26686 11.0834 1.2002 11.2834 1.2002C11.4834 1.2002 11.6529 1.26953 11.792 1.4082C11.9307 1.54731 12 1.71686 12 1.91686V2.53353H12.6167C13.0389 2.53353 13.3974 2.68064 13.692 2.97486C13.9863 3.26953 14.1334 3.62797 14.1334 4.0502V13.2835C14.1334 13.7058 13.9863 14.0642 13.692 14.3589C13.3974 14.6531 13.0389 14.8002 12.6167 14.8002H3.38337ZM3.38337 13.2835H12.6167V6.66686H3.38337V13.2835Z" fill="#8099FF" fill-opacity="0.15"/>
</g>
</svg>
