<svg width="24" height="24" viewBox="0 0 24 24" fill="none" xmlns="http://www.w3.org/2000/svg">
<path fill-rule="evenodd" clip-rule="evenodd" d="M7 2C7 1.44772 7.44772 1 8 1H16C16.5523 1 17 1.44772 17 2C17 2.55228 16.5523 3 16 3H8C7.44772 3 7 2.55228 7 2ZM12 20C15.866 20 19 16.866 19 13C19 9.13401 15.866 6 12 6C8.13401 6 5 9.13401 5 13C5 16.866 8.13401 20 12 20ZM17.2674 20.2984C19.5286 18.6636 21 16.0036 21 13C21 8.02944 16.9706 4 12 4C7.02944 4 3 8.02944 3 13C3 16.0036 4.47137 18.6636 6.73265 20.2984L6.10535 21.553C5.85836 22.047 6.05859 22.6477 6.55257 22.8946C7.04655 23.1416 7.64722 22.9414 7.89421 22.4474L8.47598 21.2839C9.55827 21.7449 10.7493 22 12 22C13.2507 22 14.4417 21.7449 15.524 21.2839L16.1058 22.4474C16.3528 22.9414 16.9535 23.1416 17.4474 22.8946C17.9414 22.6477 18.1416 22.047 17.8946 21.553L17.2674 20.2984ZM13 8.5C13 7.94772 12.5523 7.5 12 7.5C11.4477 7.5 11 7.94772 11 8.5V13C11 13.3038 11.1381 13.5911 11.3753 13.7809L13.6253 15.5809C14.0566 15.9259 14.6859 15.856 15.0309 15.4247C15.3759 14.9934 15.306 14.3641 14.8747 14.0191L13 12.5194V8.5Z" fill="current"/>
</svg>
