<svg width="24" height="24" viewBox="0 0 24 24" fill="none" xmlns="http://www.w3.org/2000/svg">
<mask id="mask0_2244_6071" style="mask-type:alpha" maskUnits="userSpaceOnUse" x="0" y="0" width="24" height="24">
<rect width="24" height="24" fill="current"/>
</mask>
<g mask="url(#mask0_2244_6071)">
<path d="M1.0499 18.1001C0.733236 18.1001 0.462569 17.9878 0.237902 17.7631C0.012569 17.5378 -0.100098 17.2668 -0.100098 16.9501V16.4251C-0.100098 15.6584 0.279236 15.0458 1.0379 14.5871C1.7959 14.1291 2.78324 13.9001 3.9999 13.9001C4.18324 13.9001 4.35424 13.9084 4.5129 13.9251C4.6709 13.9418 4.83324 13.9584 4.9999 13.9751C4.7499 14.3251 4.56657 14.7044 4.4499 15.1131C4.33324 15.5211 4.2749 15.9501 4.2749 16.4001V18.1001H1.0499ZM7.0499 18.1001C6.73324 18.1001 6.46257 17.9878 6.2379 17.7631C6.01257 17.5378 5.8999 17.2668 5.8999 16.9501V16.4001C5.8999 15.2834 6.46257 14.3794 7.5879 13.6881C8.71257 12.9961 10.1832 12.6501 11.9999 12.6501C13.8332 12.6501 15.3082 12.9961 16.4249 13.6881C17.5416 14.3794 18.0999 15.2834 18.0999 16.4001V16.9501C18.0999 17.2668 17.9876 17.5378 17.7629 17.7631C17.5376 17.9878 17.2666 18.1001 16.9499 18.1001H7.0499ZM19.7249 18.1001V16.4001C19.7249 15.9501 19.6626 15.5211 19.5379 15.1131C19.4126 14.7044 19.2332 14.3251 18.9999 13.9751C19.1666 13.9584 19.3292 13.9418 19.4879 13.9251C19.6459 13.9084 19.8166 13.9001 19.9999 13.9001C21.2166 13.9001 22.2042 14.1291 22.9629 14.5871C23.7209 15.0458 24.0999 15.6584 24.0999 16.4251V16.9501C24.0999 17.2668 23.9876 17.5378 23.7629 17.7631C23.5376 17.9878 23.2666 18.1001 22.9499 18.1001H19.7249ZM3.9999 12.9251C3.43324 12.9251 2.9499 12.7251 2.5499 12.3251C2.1499 11.9251 1.9499 11.4418 1.9499 10.8751C1.9499 10.3084 2.1499 9.82076 2.5499 9.4121C2.9499 9.0041 3.43324 8.8001 3.9999 8.8001C4.56657 8.8001 5.0499 9.0041 5.4499 9.4121C5.8499 9.82076 6.0499 10.3084 6.0499 10.8751C6.0499 11.4418 5.8499 11.9251 5.4499 12.3251C5.0499 12.7251 4.56657 12.9251 3.9999 12.9251ZM19.9999 12.9251C19.4332 12.9251 18.9499 12.7251 18.5499 12.3251C18.1499 11.9251 17.9499 11.4418 17.9499 10.8751C17.9499 10.3084 18.1499 9.82076 18.5499 9.4121C18.9499 9.0041 19.4332 8.8001 19.9999 8.8001C20.5666 8.8001 21.0499 9.0041 21.4499 9.4121C21.8499 9.82076 22.0499 10.3084 22.0499 10.8751C22.0499 11.4418 21.8499 11.9251 21.4499 12.3251C21.0499 12.7251 20.5666 12.9251 19.9999 12.9251ZM11.9999 11.9001C11.1332 11.9001 10.3999 11.6001 9.7999 11.0001C9.1999 10.4001 8.8999 9.6751 8.8999 8.8251C8.8999 7.95843 9.1999 7.2251 9.7999 6.6251C10.3999 6.0251 11.1332 5.7251 11.9999 5.7251C12.8666 5.7251 13.5999 6.0251 14.1999 6.6251C14.7999 7.2251 15.0999 7.95843 15.0999 8.8251C15.0999 9.6751 14.7999 10.4001 14.1999 11.0001C13.5999 11.6001 12.8666 11.9001 11.9999 11.9001Z" fill="white"/>
<path d="M1.0499 18.1001C0.733236 18.1001 0.462569 17.9878 0.237902 17.7631C0.012569 17.5378 -0.100098 17.2668 -0.100098 16.9501V16.4251C-0.100098 15.6584 0.279236 15.0458 1.0379 14.5871C1.7959 14.1291 2.78324 13.9001 3.9999 13.9001C4.18324 13.9001 4.35424 13.9084 4.5129 13.9251C4.6709 13.9418 4.83324 13.9584 4.9999 13.9751C4.7499 14.3251 4.56657 14.7044 4.4499 15.1131C4.33324 15.5211 4.2749 15.9501 4.2749 16.4001V18.1001H1.0499ZM7.0499 18.1001C6.73324 18.1001 6.46257 17.9878 6.2379 17.7631C6.01257 17.5378 5.8999 17.2668 5.8999 16.9501V16.4001C5.8999 15.2834 6.46257 14.3794 7.5879 13.6881C8.71257 12.9961 10.1832 12.6501 11.9999 12.6501C13.8332 12.6501 15.3082 12.9961 16.4249 13.6881C17.5416 14.3794 18.0999 15.2834 18.0999 16.4001V16.9501C18.0999 17.2668 17.9876 17.5378 17.7629 17.7631C17.5376 17.9878 17.2666 18.1001 16.9499 18.1001H7.0499ZM19.7249 18.1001V16.4001C19.7249 15.9501 19.6626 15.5211 19.5379 15.1131C19.4126 14.7044 19.2332 14.3251 18.9999 13.9751C19.1666 13.9584 19.3292 13.9418 19.4879 13.9251C19.6459 13.9084 19.8166 13.9001 19.9999 13.9001C21.2166 13.9001 22.2042 14.1291 22.9629 14.5871C23.7209 15.0458 24.0999 15.6584 24.0999 16.4251V16.9501C24.0999 17.2668 23.9876 17.5378 23.7629 17.7631C23.5376 17.9878 23.2666 18.1001 22.9499 18.1001H19.7249ZM3.9999 12.9251C3.43324 12.9251 2.9499 12.7251 2.5499 12.3251C2.1499 11.9251 1.9499 11.4418 1.9499 10.8751C1.9499 10.3084 2.1499 9.82076 2.5499 9.4121C2.9499 9.0041 3.43324 8.8001 3.9999 8.8001C4.56657 8.8001 5.0499 9.0041 5.4499 9.4121C5.8499 9.82076 6.0499 10.3084 6.0499 10.8751C6.0499 11.4418 5.8499 11.9251 5.4499 12.3251C5.0499 12.7251 4.56657 12.9251 3.9999 12.9251ZM19.9999 12.9251C19.4332 12.9251 18.9499 12.7251 18.5499 12.3251C18.1499 11.9251 17.9499 11.4418 17.9499 10.8751C17.9499 10.3084 18.1499 9.82076 18.5499 9.4121C18.9499 9.0041 19.4332 8.8001 19.9999 8.8001C20.5666 8.8001 21.0499 9.0041 21.4499 9.4121C21.8499 9.82076 22.0499 10.3084 22.0499 10.8751C22.0499 11.4418 21.8499 11.9251 21.4499 12.3251C21.0499 12.7251 20.5666 12.9251 19.9999 12.9251ZM11.9999 11.9001C11.1332 11.9001 10.3999 11.6001 9.7999 11.0001C9.1999 10.4001 8.8999 9.6751 8.8999 8.8251C8.8999 7.95843 9.1999 7.2251 9.7999 6.6251C10.3999 6.0251 11.1332 5.7251 11.9999 5.7251C12.8666 5.7251 13.5999 6.0251 14.1999 6.6251C14.7999 7.2251 15.0999 7.95843 15.0999 8.8251C15.0999 9.6751 14.7999 10.4001 14.1999 11.0001C13.5999 11.6001 12.8666 11.9001 11.9999 11.9001Z" fill="black" fill-opacity="0.44"/>
<path d="M1.0499 18.1001C0.733236 18.1001 0.462569 17.9878 0.237902 17.7631C0.012569 17.5378 -0.100098 17.2668 -0.100098 16.9501V16.4251C-0.100098 15.6584 0.279236 15.0458 1.0379 14.5871C1.7959 14.1291 2.78324 13.9001 3.9999 13.9001C4.18324 13.9001 4.35424 13.9084 4.5129 13.9251C4.6709 13.9418 4.83324 13.9584 4.9999 13.9751C4.7499 14.3251 4.56657 14.7044 4.4499 15.1131C4.33324 15.5211 4.2749 15.9501 4.2749 16.4001V18.1001H1.0499ZM7.0499 18.1001C6.73324 18.1001 6.46257 17.9878 6.2379 17.7631C6.01257 17.5378 5.8999 17.2668 5.8999 16.9501V16.4001C5.8999 15.2834 6.46257 14.3794 7.5879 13.6881C8.71257 12.9961 10.1832 12.6501 11.9999 12.6501C13.8332 12.6501 15.3082 12.9961 16.4249 13.6881C17.5416 14.3794 18.0999 15.2834 18.0999 16.4001V16.9501C18.0999 17.2668 17.9876 17.5378 17.7629 17.7631C17.5376 17.9878 17.2666 18.1001 16.9499 18.1001H7.0499ZM19.7249 18.1001V16.4001C19.7249 15.9501 19.6626 15.5211 19.5379 15.1131C19.4126 14.7044 19.2332 14.3251 18.9999 13.9751C19.1666 13.9584 19.3292 13.9418 19.4879 13.9251C19.6459 13.9084 19.8166 13.9001 19.9999 13.9001C21.2166 13.9001 22.2042 14.1291 22.9629 14.5871C23.7209 15.0458 24.0999 15.6584 24.0999 16.4251V16.9501C24.0999 17.2668 23.9876 17.5378 23.7629 17.7631C23.5376 17.9878 23.2666 18.1001 22.9499 18.1001H19.7249ZM3.9999 12.9251C3.43324 12.9251 2.9499 12.7251 2.5499 12.3251C2.1499 11.9251 1.9499 11.4418 1.9499 10.8751C1.9499 10.3084 2.1499 9.82076 2.5499 9.4121C2.9499 9.0041 3.43324 8.8001 3.9999 8.8001C4.56657 8.8001 5.0499 9.0041 5.4499 9.4121C5.8499 9.82076 6.0499 10.3084 6.0499 10.8751C6.0499 11.4418 5.8499 11.9251 5.4499 12.3251C5.0499 12.7251 4.56657 12.9251 3.9999 12.9251ZM19.9999 12.9251C19.4332 12.9251 18.9499 12.7251 18.5499 12.3251C18.1499 11.9251 17.9499 11.4418 17.9499 10.8751C17.9499 10.3084 18.1499 9.82076 18.5499 9.4121C18.9499 9.0041 19.4332 8.8001 19.9999 8.8001C20.5666 8.8001 21.0499 9.0041 21.4499 9.4121C21.8499 9.82076 22.0499 10.3084 22.0499 10.8751C22.0499 11.4418 21.8499 11.9251 21.4499 12.3251C21.0499 12.7251 20.5666 12.9251 19.9999 12.9251ZM11.9999 11.9001C11.1332 11.9001 10.3999 11.6001 9.7999 11.0001C9.1999 10.4001 8.8999 9.6751 8.8999 8.8251C8.8999 7.95843 9.1999 7.2251 9.7999 6.6251C10.3999 6.0251 11.1332 5.7251 11.9999 5.7251C12.8666 5.7251 13.5999 6.0251 14.1999 6.6251C14.7999 7.2251 15.0999 7.95843 15.0999 8.8251C15.0999 9.6751 14.7999 10.4001 14.1999 11.0001C13.5999 11.6001 12.8666 11.9001 11.9999 11.9001Z" fill="#8099FF" fill-opacity="0.15"/>
</g>
</svg>
