<svg width="36" height="36" viewBox="0 0 37 36" fill="none" xmlns="http://www.w3.org/2000/svg">
<path opacity="0.35" d="M32.75 6H4.25C3.00736 6 2 7.00736 2 8.25C2 9.49264 3.00736 10.5 4.25 10.5H32.75C33.9926 10.5 35 9.49264 35 8.25C35 7.00736 33.9926 6 32.75 6Z" fill="current"/>
<path d="M5 10.5H9.5V27.75C9.5 28.3467 9.26295 28.919 8.84099 29.341C8.41903 29.7629 7.84674 30 7.25 30C6.65326 30 6.08097 29.7629 5.65901 29.341C5.23705 28.919 5 28.3467 5 27.75V10.5Z" fill="current"/>
<path d="M27.5 10.5H32V27.75C32 28.3467 31.7629 28.919 31.341 29.341C30.919 29.7629 30.3467 30 29.75 30C29.1533 30 28.581 29.7629 28.159 29.341C27.7371 28.919 27.5 28.3467 27.5 27.75V10.5Z" fill="current"/>
<path d="M29 15H8V19.5H29V15Z" fill="current"/>
</svg>
