<svg width="16" height="16" viewBox="0 0 16 16" fill="none" xmlns="http://www.w3.org/2000/svg">
<mask id="mask0_2724_730" style="mask-type:alpha" maskUnits="userSpaceOnUse" x="0" y="0" width="16" height="16">
<rect width="16" height="16" fill="current"/>
</mask>
<g mask="url(#mask0_2724_730)">
<path d="M0.700016 12.0664C0.488905 12.0664 0.308461 11.9915 0.158683 11.8417C0.00846072 11.6915 -0.0666504 11.5109 -0.0666504 11.2997V10.9497C-0.0666504 10.4386 0.186238 10.0302 0.692016 9.72441C1.19735 9.41907 1.85557 9.26641 2.66668 9.26641C2.7889 9.26641 2.9029 9.27196 3.00868 9.28307C3.11402 9.29418 3.22224 9.3053 3.33335 9.31641C3.16668 9.54974 3.04446 9.80263 2.96668 10.0751C2.8889 10.3471 2.85002 10.6331 2.85002 10.9331V12.0664H0.700016ZM4.70002 12.0664C4.4889 12.0664 4.30846 11.9915 4.15868 11.8417C4.00846 11.6915 3.93335 11.5109 3.93335 11.2997V10.9331C3.93335 10.1886 4.30846 9.58596 5.05868 9.12507C5.80846 8.66374 6.7889 8.43307 8.00002 8.43307C9.22224 8.43307 10.2056 8.66374 10.95 9.12507C11.6945 9.58596 12.0667 10.1886 12.0667 10.9331V11.2997C12.0667 11.5109 11.9918 11.6915 11.842 11.8417C11.6918 11.9915 11.5111 12.0664 11.3 12.0664H4.70002ZM13.15 12.0664V10.9331C13.15 10.6331 13.1085 10.3471 13.0253 10.0751C12.9418 9.80263 12.8222 9.54974 12.6667 9.31641C12.7778 9.3053 12.8862 9.29418 12.992 9.28307C13.0973 9.27196 13.2111 9.26641 13.3333 9.26641C14.1445 9.26641 14.8029 9.41907 15.3087 9.72441C15.814 10.0302 16.0667 10.4386 16.0667 10.9497V11.2997C16.0667 11.5109 15.9918 11.6915 15.842 11.8417C15.6918 11.9915 15.5111 12.0664 15.3 12.0664H13.15ZM2.66668 8.61641C2.2889 8.61641 1.96668 8.48307 1.70002 8.21641C1.43335 7.94974 1.30002 7.62752 1.30002 7.24974C1.30002 6.87196 1.43335 6.54685 1.70002 6.27441C1.96668 6.00241 2.2889 5.86641 2.66668 5.86641C3.04446 5.86641 3.36668 6.00241 3.63335 6.27441C3.90002 6.54685 4.03335 6.87196 4.03335 7.24974C4.03335 7.62752 3.90002 7.94974 3.63335 8.21641C3.36668 8.48307 3.04446 8.61641 2.66668 8.61641ZM13.3333 8.61641C12.9556 8.61641 12.6333 8.48307 12.3667 8.21641C12.1 7.94974 11.9667 7.62752 11.9667 7.24974C11.9667 6.87196 12.1 6.54685 12.3667 6.27441C12.6333 6.00241 12.9556 5.86641 13.3333 5.86641C13.7111 5.86641 14.0333 6.00241 14.3 6.27441C14.5667 6.54685 14.7 6.87196 14.7 7.24974C14.7 7.62752 14.5667 7.94974 14.3 8.21641C14.0333 8.48307 13.7111 8.61641 13.3333 8.61641ZM8.00002 7.93307C7.42224 7.93307 6.93335 7.73307 6.53335 7.33307C6.13335 6.93307 5.93335 6.44974 5.93335 5.88307C5.93335 5.3053 6.13335 4.81641 6.53335 4.41641C6.93335 4.01641 7.42224 3.81641 8.00002 3.81641C8.57779 3.81641 9.06668 4.01641 9.46668 4.41641C9.86668 4.81641 10.0667 5.3053 10.0667 5.88307C10.0667 6.44974 9.86668 6.93307 9.46668 7.33307C9.06668 7.73307 8.57779 7.93307 8.00002 7.93307Z" fill="white"/>
<path d="M0.700016 12.0664C0.488905 12.0664 0.308461 11.9915 0.158683 11.8417C0.00846072 11.6915 -0.0666504 11.5109 -0.0666504 11.2997V10.9497C-0.0666504 10.4386 0.186238 10.0302 0.692016 9.72441C1.19735 9.41907 1.85557 9.26641 2.66668 9.26641C2.7889 9.26641 2.9029 9.27196 3.00868 9.28307C3.11402 9.29418 3.22224 9.3053 3.33335 9.31641C3.16668 9.54974 3.04446 9.80263 2.96668 10.0751C2.8889 10.3471 2.85002 10.6331 2.85002 10.9331V12.0664H0.700016ZM4.70002 12.0664C4.4889 12.0664 4.30846 11.9915 4.15868 11.8417C4.00846 11.6915 3.93335 11.5109 3.93335 11.2997V10.9331C3.93335 10.1886 4.30846 9.58596 5.05868 9.12507C5.80846 8.66374 6.7889 8.43307 8.00002 8.43307C9.22224 8.43307 10.2056 8.66374 10.95 9.12507C11.6945 9.58596 12.0667 10.1886 12.0667 10.9331V11.2997C12.0667 11.5109 11.9918 11.6915 11.842 11.8417C11.6918 11.9915 11.5111 12.0664 11.3 12.0664H4.70002ZM13.15 12.0664V10.9331C13.15 10.6331 13.1085 10.3471 13.0253 10.0751C12.9418 9.80263 12.8222 9.54974 12.6667 9.31641C12.7778 9.3053 12.8862 9.29418 12.992 9.28307C13.0973 9.27196 13.2111 9.26641 13.3333 9.26641C14.1445 9.26641 14.8029 9.41907 15.3087 9.72441C15.814 10.0302 16.0667 10.4386 16.0667 10.9497V11.2997C16.0667 11.5109 15.9918 11.6915 15.842 11.8417C15.6918 11.9915 15.5111 12.0664 15.3 12.0664H13.15ZM2.66668 8.61641C2.2889 8.61641 1.96668 8.48307 1.70002 8.21641C1.43335 7.94974 1.30002 7.62752 1.30002 7.24974C1.30002 6.87196 1.43335 6.54685 1.70002 6.27441C1.96668 6.00241 2.2889 5.86641 2.66668 5.86641C3.04446 5.86641 3.36668 6.00241 3.63335 6.27441C3.90002 6.54685 4.03335 6.87196 4.03335 7.24974C4.03335 7.62752 3.90002 7.94974 3.63335 8.21641C3.36668 8.48307 3.04446 8.61641 2.66668 8.61641ZM13.3333 8.61641C12.9556 8.61641 12.6333 8.48307 12.3667 8.21641C12.1 7.94974 11.9667 7.62752 11.9667 7.24974C11.9667 6.87196 12.1 6.54685 12.3667 6.27441C12.6333 6.00241 12.9556 5.86641 13.3333 5.86641C13.7111 5.86641 14.0333 6.00241 14.3 6.27441C14.5667 6.54685 14.7 6.87196 14.7 7.24974C14.7 7.62752 14.5667 7.94974 14.3 8.21641C14.0333 8.48307 13.7111 8.61641 13.3333 8.61641ZM8.00002 7.93307C7.42224 7.93307 6.93335 7.73307 6.53335 7.33307C6.13335 6.93307 5.93335 6.44974 5.93335 5.88307C5.93335 5.3053 6.13335 4.81641 6.53335 4.41641C6.93335 4.01641 7.42224 3.81641 8.00002 3.81641C8.57779 3.81641 9.06668 4.01641 9.46668 4.41641C9.86668 4.81641 10.0667 5.3053 10.0667 5.88307C10.0667 6.44974 9.86668 6.93307 9.46668 7.33307C9.06668 7.73307 8.57779 7.93307 8.00002 7.93307Z" fill="black" fill-opacity="0.44"/>
<path d="M0.700016 12.0664C0.488905 12.0664 0.308461 11.9915 0.158683 11.8417C0.00846072 11.6915 -0.0666504 11.5109 -0.0666504 11.2997V10.9497C-0.0666504 10.4386 0.186238 10.0302 0.692016 9.72441C1.19735 9.41907 1.85557 9.26641 2.66668 9.26641C2.7889 9.26641 2.9029 9.27196 3.00868 9.28307C3.11402 9.29418 3.22224 9.3053 3.33335 9.31641C3.16668 9.54974 3.04446 9.80263 2.96668 10.0751C2.8889 10.3471 2.85002 10.6331 2.85002 10.9331V12.0664H0.700016ZM4.70002 12.0664C4.4889 12.0664 4.30846 11.9915 4.15868 11.8417C4.00846 11.6915 3.93335 11.5109 3.93335 11.2997V10.9331C3.93335 10.1886 4.30846 9.58596 5.05868 9.12507C5.80846 8.66374 6.7889 8.43307 8.00002 8.43307C9.22224 8.43307 10.2056 8.66374 10.95 9.12507C11.6945 9.58596 12.0667 10.1886 12.0667 10.9331V11.2997C12.0667 11.5109 11.9918 11.6915 11.842 11.8417C11.6918 11.9915 11.5111 12.0664 11.3 12.0664H4.70002ZM13.15 12.0664V10.9331C13.15 10.6331 13.1085 10.3471 13.0253 10.0751C12.9418 9.80263 12.8222 9.54974 12.6667 9.31641C12.7778 9.3053 12.8862 9.29418 12.992 9.28307C13.0973 9.27196 13.2111 9.26641 13.3333 9.26641C14.1445 9.26641 14.8029 9.41907 15.3087 9.72441C15.814 10.0302 16.0667 10.4386 16.0667 10.9497V11.2997C16.0667 11.5109 15.9918 11.6915 15.842 11.8417C15.6918 11.9915 15.5111 12.0664 15.3 12.0664H13.15ZM2.66668 8.61641C2.2889 8.61641 1.96668 8.48307 1.70002 8.21641C1.43335 7.94974 1.30002 7.62752 1.30002 7.24974C1.30002 6.87196 1.43335 6.54685 1.70002 6.27441C1.96668 6.00241 2.2889 5.86641 2.66668 5.86641C3.04446 5.86641 3.36668 6.00241 3.63335 6.27441C3.90002 6.54685 4.03335 6.87196 4.03335 7.24974C4.03335 7.62752 3.90002 7.94974 3.63335 8.21641C3.36668 8.48307 3.04446 8.61641 2.66668 8.61641ZM13.3333 8.61641C12.9556 8.61641 12.6333 8.48307 12.3667 8.21641C12.1 7.94974 11.9667 7.62752 11.9667 7.24974C11.9667 6.87196 12.1 6.54685 12.3667 6.27441C12.6333 6.00241 12.9556 5.86641 13.3333 5.86641C13.7111 5.86641 14.0333 6.00241 14.3 6.27441C14.5667 6.54685 14.7 6.87196 14.7 7.24974C14.7 7.62752 14.5667 7.94974 14.3 8.21641C14.0333 8.48307 13.7111 8.61641 13.3333 8.61641ZM8.00002 7.93307C7.42224 7.93307 6.93335 7.73307 6.53335 7.33307C6.13335 6.93307 5.93335 6.44974 5.93335 5.88307C5.93335 5.3053 6.13335 4.81641 6.53335 4.41641C6.93335 4.01641 7.42224 3.81641 8.00002 3.81641C8.57779 3.81641 9.06668 4.01641 9.46668 4.41641C9.86668 4.81641 10.0667 5.3053 10.0667 5.88307C10.0667 6.44974 9.86668 6.93307 9.46668 7.33307C9.06668 7.73307 8.57779 7.93307 8.00002 7.93307Z" fill="#8099FF" fill-opacity="0.15"/>
</g>
</svg>
