<svg width="24" height="24" viewBox="0 0 24 24" fill="none" xmlns="http://www.w3.org/2000/svg">
<mask id="mask0_2246_6599" style="mask-type:alpha" maskUnits="userSpaceOnUse" x="0" y="0" width="24" height="24">
<rect width="24" height="24" fill="current"/>
</mask>
<g mask="url(#mask0_2246_6599)">
<path d="M11.75 18.275C10.0667 18.2083 8.64167 17.571 7.475 16.363C6.30833 15.1543 5.725 13.7 5.725 12C5.725 10.25 6.33333 8.76667 7.55 7.55C8.76667 6.33333 10.25 5.725 12 5.725C13.7 5.725 15.1543 6.30833 16.363 7.475C17.571 8.64167 18.2083 10.0667 18.275 11.75L16 11.075C15.7833 10.1583 15.304 9.4 14.562 8.8C13.8207 8.2 12.9667 7.9 12 7.9C10.8833 7.9 9.921 8.304 9.113 9.112C8.30433 9.92067 7.9 10.8833 7.9 12C7.9 12.9667 8.196 13.8167 8.788 14.55C9.37933 15.2833 10.1417 15.7667 11.075 16L11.75 18.275ZM12 22.375C10.5667 22.375 9.221 22.1 7.963 21.55C6.70433 21 5.60833 20.2583 4.675 19.325C3.74167 18.3917 3 17.296 2.45 16.038C1.9 14.7793 1.625 13.4333 1.625 12C1.625 10.5667 1.9 9.22067 2.45 7.962C3 6.704 3.74167 5.60833 4.675 4.675C5.60833 3.74167 6.70433 3 7.963 2.45C9.221 1.9 10.5667 1.625 12 1.625C13.4333 1.625 14.7793 1.9 16.038 2.45C17.296 3 18.3917 3.74167 19.325 4.675C20.2583 5.60833 21 6.704 21.55 7.962C22.1 9.22067 22.375 10.5667 22.375 12C22.375 12.1667 22.375 12.3333 22.375 12.5C22.375 12.6667 22.3583 12.825 22.325 12.975L20.175 12.325V12C20.175 9.71667 19.3833 7.78333 17.8 6.2C16.2167 4.61667 14.2833 3.825 12 3.825C9.71667 3.825 7.78333 4.61667 6.2 6.2C4.61667 7.78333 3.825 9.71667 3.825 12C3.825 14.2833 4.61667 16.2167 6.2 17.8C7.78333 19.3833 9.71667 20.175 12 20.175H12.325L12.975 22.325C12.8083 22.3583 12.646 22.375 12.488 22.375C12.3293 22.375 12.1667 22.375 12 22.375ZM20.225 22.275L16.3 18.375L15.625 20.425C15.525 20.6917 15.3373 20.8207 15.062 20.812C14.7873 20.804 14.6083 20.6667 14.525 20.4L12.3 13.025C12.2333 12.8083 12.2833 12.6167 12.45 12.45C12.6167 12.2833 12.8083 12.2333 13.025 12.3L20.4 14.525C20.6667 14.6083 20.804 14.7873 20.812 15.062C20.8207 15.3373 20.6917 15.525 20.425 15.625L18.375 16.3L22.275 20.225C22.3917 20.3417 22.45 20.475 22.45 20.625C22.45 20.775 22.3917 20.9083 22.275 21.025L21.025 22.275C20.9083 22.3917 20.775 22.45 20.625 22.45C20.475 22.45 20.3417 22.3917 20.225 22.275Z" fill="white"/>
<path d="M11.75 18.275C10.0667 18.2083 8.64167 17.571 7.475 16.363C6.30833 15.1543 5.725 13.7 5.725 12C5.725 10.25 6.33333 8.76667 7.55 7.55C8.76667 6.33333 10.25 5.725 12 5.725C13.7 5.725 15.1543 6.30833 16.363 7.475C17.571 8.64167 18.2083 10.0667 18.275 11.75L16 11.075C15.7833 10.1583 15.304 9.4 14.562 8.8C13.8207 8.2 12.9667 7.9 12 7.9C10.8833 7.9 9.921 8.304 9.113 9.112C8.30433 9.92067 7.9 10.8833 7.9 12C7.9 12.9667 8.196 13.8167 8.788 14.55C9.37933 15.2833 10.1417 15.7667 11.075 16L11.75 18.275ZM12 22.375C10.5667 22.375 9.221 22.1 7.963 21.55C6.70433 21 5.60833 20.2583 4.675 19.325C3.74167 18.3917 3 17.296 2.45 16.038C1.9 14.7793 1.625 13.4333 1.625 12C1.625 10.5667 1.9 9.22067 2.45 7.962C3 6.704 3.74167 5.60833 4.675 4.675C5.60833 3.74167 6.70433 3 7.963 2.45C9.221 1.9 10.5667 1.625 12 1.625C13.4333 1.625 14.7793 1.9 16.038 2.45C17.296 3 18.3917 3.74167 19.325 4.675C20.2583 5.60833 21 6.704 21.55 7.962C22.1 9.22067 22.375 10.5667 22.375 12C22.375 12.1667 22.375 12.3333 22.375 12.5C22.375 12.6667 22.3583 12.825 22.325 12.975L20.175 12.325V12C20.175 9.71667 19.3833 7.78333 17.8 6.2C16.2167 4.61667 14.2833 3.825 12 3.825C9.71667 3.825 7.78333 4.61667 6.2 6.2C4.61667 7.78333 3.825 9.71667 3.825 12C3.825 14.2833 4.61667 16.2167 6.2 17.8C7.78333 19.3833 9.71667 20.175 12 20.175H12.325L12.975 22.325C12.8083 22.3583 12.646 22.375 12.488 22.375C12.3293 22.375 12.1667 22.375 12 22.375ZM20.225 22.275L16.3 18.375L15.625 20.425C15.525 20.6917 15.3373 20.8207 15.062 20.812C14.7873 20.804 14.6083 20.6667 14.525 20.4L12.3 13.025C12.2333 12.8083 12.2833 12.6167 12.45 12.45C12.6167 12.2833 12.8083 12.2333 13.025 12.3L20.4 14.525C20.6667 14.6083 20.804 14.7873 20.812 15.062C20.8207 15.3373 20.6917 15.525 20.425 15.625L18.375 16.3L22.275 20.225C22.3917 20.3417 22.45 20.475 22.45 20.625C22.45 20.775 22.3917 20.9083 22.275 21.025L21.025 22.275C20.9083 22.3917 20.775 22.45 20.625 22.45C20.475 22.45 20.3417 22.3917 20.225 22.275Z" fill="black" fill-opacity="0.44"/>
<path d="M11.75 18.275C10.0667 18.2083 8.64167 17.571 7.475 16.363C6.30833 15.1543 5.725 13.7 5.725 12C5.725 10.25 6.33333 8.76667 7.55 7.55C8.76667 6.33333 10.25 5.725 12 5.725C13.7 5.725 15.1543 6.30833 16.363 7.475C17.571 8.64167 18.2083 10.0667 18.275 11.75L16 11.075C15.7833 10.1583 15.304 9.4 14.562 8.8C13.8207 8.2 12.9667 7.9 12 7.9C10.8833 7.9 9.921 8.304 9.113 9.112C8.30433 9.92067 7.9 10.8833 7.9 12C7.9 12.9667 8.196 13.8167 8.788 14.55C9.37933 15.2833 10.1417 15.7667 11.075 16L11.75 18.275ZM12 22.375C10.5667 22.375 9.221 22.1 7.963 21.55C6.70433 21 5.60833 20.2583 4.675 19.325C3.74167 18.3917 3 17.296 2.45 16.038C1.9 14.7793 1.625 13.4333 1.625 12C1.625 10.5667 1.9 9.22067 2.45 7.962C3 6.704 3.74167 5.60833 4.675 4.675C5.60833 3.74167 6.70433 3 7.963 2.45C9.221 1.9 10.5667 1.625 12 1.625C13.4333 1.625 14.7793 1.9 16.038 2.45C17.296 3 18.3917 3.74167 19.325 4.675C20.2583 5.60833 21 6.704 21.55 7.962C22.1 9.22067 22.375 10.5667 22.375 12C22.375 12.1667 22.375 12.3333 22.375 12.5C22.375 12.6667 22.3583 12.825 22.325 12.975L20.175 12.325V12C20.175 9.71667 19.3833 7.78333 17.8 6.2C16.2167 4.61667 14.2833 3.825 12 3.825C9.71667 3.825 7.78333 4.61667 6.2 6.2C4.61667 7.78333 3.825 9.71667 3.825 12C3.825 14.2833 4.61667 16.2167 6.2 17.8C7.78333 19.3833 9.71667 20.175 12 20.175H12.325L12.975 22.325C12.8083 22.3583 12.646 22.375 12.488 22.375C12.3293 22.375 12.1667 22.375 12 22.375ZM20.225 22.275L16.3 18.375L15.625 20.425C15.525 20.6917 15.3373 20.8207 15.062 20.812C14.7873 20.804 14.6083 20.6667 14.525 20.4L12.3 13.025C12.2333 12.8083 12.2833 12.6167 12.45 12.45C12.6167 12.2833 12.8083 12.2333 13.025 12.3L20.4 14.525C20.6667 14.6083 20.804 14.7873 20.812 15.062C20.8207 15.3373 20.6917 15.525 20.425 15.625L18.375 16.3L22.275 20.225C22.3917 20.3417 22.45 20.475 22.45 20.625C22.45 20.775 22.3917 20.9083 22.275 21.025L21.025 22.275C20.9083 22.3917 20.775 22.45 20.625 22.45C20.475 22.45 20.3417 22.3917 20.225 22.275Z" fill="#8099FF" fill-opacity="0.15"/>
</g>
</svg>
