<svg width="24" height="24" viewBox="0 0 30 30" fill="none" xmlns="http://www.w3.org/2000/svg">
<path d="M14.8382 3C8.31059 3 3 8.2459 3 14.6939C3 21.142 8.31059 26.3879 14.8382 26.3879C15.2383 26.3879 15.6325 26.3671 16.022 26.3285V25.2185V20.5409C16.022 19.8942 15.4916 19.3715 14.8382 19.3715H13.6543V17.7339C13.6543 17.4745 13.5509 17.2353 13.3931 17.0327H16.022V14.6939H11.2867V12.3552H12.4705C13.124 12.3552 13.6543 11.8324 13.6543 11.1858V8.87438L16.0405 8.85611C17.3356 8.84792 18.3896 7.79781 18.3896 6.51732V6.02627C21.856 7.41742 24.3087 10.7764 24.3087 14.6939C24.3087 14.708 24.3064 14.721 24.3064 14.7351L26.4728 16.7975C26.5995 16.1134 26.6763 15.412 26.6763 14.6939C26.6763 8.2459 21.3657 3 14.8382 3ZM14.8382 5.33879C15.24 5.33879 15.6331 5.37048 16.022 5.41873V6.51732L12.4613 6.54473C11.8114 6.54941 11.2867 7.07212 11.2867 7.71412V10.0164H10.1029C9.44942 10.0164 8.91908 10.5391 8.91908 11.1858V12.5721L6.52832 10.2105C8.13859 7.30979 11.2596 5.33879 14.8382 5.33879ZM18.3896 12.3552V24.0491L21.0809 21.5207L23.4879 27L26.0913 25.8306L23.6659 20.5409H27L18.3896 12.3552ZM5.6104 12.611L11.2867 18.2181V19.3715C11.2867 20.6614 12.3486 21.7103 13.6543 21.7103V23.9692C8.99057 23.3906 5.36763 19.4552 5.36763 14.6939C5.36763 13.9771 5.45509 13.282 5.6104 12.611Z" fill="current"/>
</svg>
