<svg width="24" height="24" viewBox="0 0 24 24" fill="none" xmlns="http://www.w3.org/2000/svg">
<mask id="mask0_2244_6082" style="mask-type:alpha" maskUnits="userSpaceOnUse" x="0" y="0" width="24" height="24">
<rect width="24" height="24" fill="current"/>
</mask>
<g mask="url(#mask0_2244_6082)">
<path d="M6.0748 22.1998C5.44147 22.1998 4.90414 21.9791 4.4628 21.5378C4.0208 21.0958 3.7998 20.5581 3.7998 19.9248V4.0748C3.7998 3.44147 4.0208 2.9038 4.4628 2.4618C4.90414 2.02047 5.44147 1.7998 6.0748 1.7998H17.9248C18.5581 1.7998 19.0958 2.02047 19.5378 2.4618C19.9791 2.9038 20.1998 3.44147 20.1998 4.0748V19.9248C20.1998 20.5581 19.9791 21.0958 19.5378 21.5378C19.0958 21.9791 18.5581 22.1998 17.9248 22.1998H6.0748ZM11.9998 18.9248C13.3665 18.9248 14.5291 18.4458 15.4878 17.4878C16.4458 16.5291 16.9248 15.3665 16.9248 13.9998C16.9248 12.6331 16.4458 11.4705 15.4878 10.5118C14.5291 9.5538 13.3665 9.0748 11.9998 9.0748C10.6331 9.0748 9.4708 9.5538 8.5128 10.5118C7.55414 11.4705 7.0748 12.6331 7.0748 13.9998C7.0748 15.3665 7.55414 16.5291 8.5128 17.4878C9.4708 18.4458 10.6331 18.9248 11.9998 18.9248ZM11.9998 17.1748C11.5665 17.1748 11.1541 17.0958 10.7628 16.9378C10.3708 16.7791 10.0331 16.5498 9.7498 16.2498L14.2498 11.7498C14.5498 12.0331 14.7791 12.3705 14.9378 12.7618C15.0958 13.1538 15.1748 13.5665 15.1748 13.9998C15.1748 14.8665 14.8625 15.6125 14.2378 16.2378C13.6125 16.8625 12.8665 17.1748 11.9998 17.1748ZM8.1248 7.1748C8.4248 7.1748 8.6748 7.0748 8.8748 6.8748C9.0748 6.6748 9.1748 6.4248 9.1748 6.1248C9.1748 5.8248 9.0748 5.5748 8.8748 5.3748C8.6748 5.1748 8.4248 5.0748 8.1248 5.0748C7.8248 5.0748 7.5748 5.1748 7.3748 5.3748C7.1748 5.5748 7.0748 5.8248 7.0748 6.1248C7.0748 6.4248 7.1748 6.6748 7.3748 6.8748C7.5748 7.0748 7.8248 7.1748 8.1248 7.1748ZM11.2498 7.1748C11.5331 7.1748 11.7791 7.0748 11.9878 6.8748C12.1958 6.6748 12.2998 6.4248 12.2998 6.1248C12.2998 5.8248 12.1958 5.5748 11.9878 5.3748C11.7791 5.1748 11.5331 5.0748 11.2498 5.0748C10.9498 5.0748 10.6958 5.1748 10.4878 5.3748C10.2791 5.5748 10.1748 5.8248 10.1748 6.1248C10.1748 6.4248 10.2791 6.6748 10.4878 6.8748C10.6958 7.0748 10.9498 7.1748 11.2498 7.1748Z" fill="white"/>
<path d="M6.0748 22.1998C5.44147 22.1998 4.90414 21.9791 4.4628 21.5378C4.0208 21.0958 3.7998 20.5581 3.7998 19.9248V4.0748C3.7998 3.44147 4.0208 2.9038 4.4628 2.4618C4.90414 2.02047 5.44147 1.7998 6.0748 1.7998H17.9248C18.5581 1.7998 19.0958 2.02047 19.5378 2.4618C19.9791 2.9038 20.1998 3.44147 20.1998 4.0748V19.9248C20.1998 20.5581 19.9791 21.0958 19.5378 21.5378C19.0958 21.9791 18.5581 22.1998 17.9248 22.1998H6.0748ZM11.9998 18.9248C13.3665 18.9248 14.5291 18.4458 15.4878 17.4878C16.4458 16.5291 16.9248 15.3665 16.9248 13.9998C16.9248 12.6331 16.4458 11.4705 15.4878 10.5118C14.5291 9.5538 13.3665 9.0748 11.9998 9.0748C10.6331 9.0748 9.4708 9.5538 8.5128 10.5118C7.55414 11.4705 7.0748 12.6331 7.0748 13.9998C7.0748 15.3665 7.55414 16.5291 8.5128 17.4878C9.4708 18.4458 10.6331 18.9248 11.9998 18.9248ZM11.9998 17.1748C11.5665 17.1748 11.1541 17.0958 10.7628 16.9378C10.3708 16.7791 10.0331 16.5498 9.7498 16.2498L14.2498 11.7498C14.5498 12.0331 14.7791 12.3705 14.9378 12.7618C15.0958 13.1538 15.1748 13.5665 15.1748 13.9998C15.1748 14.8665 14.8625 15.6125 14.2378 16.2378C13.6125 16.8625 12.8665 17.1748 11.9998 17.1748ZM8.1248 7.1748C8.4248 7.1748 8.6748 7.0748 8.8748 6.8748C9.0748 6.6748 9.1748 6.4248 9.1748 6.1248C9.1748 5.8248 9.0748 5.5748 8.8748 5.3748C8.6748 5.1748 8.4248 5.0748 8.1248 5.0748C7.8248 5.0748 7.5748 5.1748 7.3748 5.3748C7.1748 5.5748 7.0748 5.8248 7.0748 6.1248C7.0748 6.4248 7.1748 6.6748 7.3748 6.8748C7.5748 7.0748 7.8248 7.1748 8.1248 7.1748ZM11.2498 7.1748C11.5331 7.1748 11.7791 7.0748 11.9878 6.8748C12.1958 6.6748 12.2998 6.4248 12.2998 6.1248C12.2998 5.8248 12.1958 5.5748 11.9878 5.3748C11.7791 5.1748 11.5331 5.0748 11.2498 5.0748C10.9498 5.0748 10.6958 5.1748 10.4878 5.3748C10.2791 5.5748 10.1748 5.8248 10.1748 6.1248C10.1748 6.4248 10.2791 6.6748 10.4878 6.8748C10.6958 7.0748 10.9498 7.1748 11.2498 7.1748Z" fill="black" fill-opacity="0.44"/>
<path d="M6.0748 22.1998C5.44147 22.1998 4.90414 21.9791 4.4628 21.5378C4.0208 21.0958 3.7998 20.5581 3.7998 19.9248V4.0748C3.7998 3.44147 4.0208 2.9038 4.4628 2.4618C4.90414 2.02047 5.44147 1.7998 6.0748 1.7998H17.9248C18.5581 1.7998 19.0958 2.02047 19.5378 2.4618C19.9791 2.9038 20.1998 3.44147 20.1998 4.0748V19.9248C20.1998 20.5581 19.9791 21.0958 19.5378 21.5378C19.0958 21.9791 18.5581 22.1998 17.9248 22.1998H6.0748ZM11.9998 18.9248C13.3665 18.9248 14.5291 18.4458 15.4878 17.4878C16.4458 16.5291 16.9248 15.3665 16.9248 13.9998C16.9248 12.6331 16.4458 11.4705 15.4878 10.5118C14.5291 9.5538 13.3665 9.0748 11.9998 9.0748C10.6331 9.0748 9.4708 9.5538 8.5128 10.5118C7.55414 11.4705 7.0748 12.6331 7.0748 13.9998C7.0748 15.3665 7.55414 16.5291 8.5128 17.4878C9.4708 18.4458 10.6331 18.9248 11.9998 18.9248ZM11.9998 17.1748C11.5665 17.1748 11.1541 17.0958 10.7628 16.9378C10.3708 16.7791 10.0331 16.5498 9.7498 16.2498L14.2498 11.7498C14.5498 12.0331 14.7791 12.3705 14.9378 12.7618C15.0958 13.1538 15.1748 13.5665 15.1748 13.9998C15.1748 14.8665 14.8625 15.6125 14.2378 16.2378C13.6125 16.8625 12.8665 17.1748 11.9998 17.1748ZM8.1248 7.1748C8.4248 7.1748 8.6748 7.0748 8.8748 6.8748C9.0748 6.6748 9.1748 6.4248 9.1748 6.1248C9.1748 5.8248 9.0748 5.5748 8.8748 5.3748C8.6748 5.1748 8.4248 5.0748 8.1248 5.0748C7.8248 5.0748 7.5748 5.1748 7.3748 5.3748C7.1748 5.5748 7.0748 5.8248 7.0748 6.1248C7.0748 6.4248 7.1748 6.6748 7.3748 6.8748C7.5748 7.0748 7.8248 7.1748 8.1248 7.1748ZM11.2498 7.1748C11.5331 7.1748 11.7791 7.0748 11.9878 6.8748C12.1958 6.6748 12.2998 6.4248 12.2998 6.1248C12.2998 5.8248 12.1958 5.5748 11.9878 5.3748C11.7791 5.1748 11.5331 5.0748 11.2498 5.0748C10.9498 5.0748 10.6958 5.1748 10.4878 5.3748C10.2791 5.5748 10.1748 5.8248 10.1748 6.1248C10.1748 6.4248 10.2791 6.6748 10.4878 6.8748C10.6958 7.0748 10.9498 7.1748 11.2498 7.1748Z" fill="#8099FF" fill-opacity="0.15"/>
</g>
</svg>
