<svg width="24" height="24" viewBox="0 0 24 24" fill="none" xmlns="http://www.w3.org/2000/svg">
<mask id="mask0_2246_8430" style="mask-type:alpha" maskUnits="userSpaceOnUse" x="0" y="0" width="24" height="24">
<rect width="24" height="24" fill="#D9D9D9"/>
</mask>
<g mask="url(#mask0_2246_8430)">
<path d="M6.07505 22.1998C5.44172 22.1998 4.90438 21.9791 4.46305 21.5378C4.02105 21.0958 3.80005 20.5581 3.80005 19.9248V4.0748C3.80005 3.44147 4.02105 2.9038 4.46305 2.4618C4.90438 2.02047 5.44172 1.7998 6.07505 1.7998H17.925C18.5584 1.7998 19.096 2.02047 19.538 2.4618C19.9794 2.9038 20.2001 3.44147 20.2001 4.0748V19.9248C20.2001 20.5581 19.9794 21.0958 19.538 21.5378C19.096 21.9791 18.5584 22.1998 17.925 22.1998H6.07505ZM12 18.9248C13.3667 18.9248 14.5294 18.4458 15.488 17.4878C16.446 16.5291 16.925 15.3665 16.925 13.9998C16.925 12.6331 16.446 11.4705 15.488 10.5118C14.5294 9.5538 13.3667 9.0748 12 9.0748C10.6334 9.0748 9.47105 9.5538 8.51305 10.5118C7.55438 11.4705 7.07505 12.6331 7.07505 13.9998C7.07505 15.3665 7.55438 16.5291 8.51305 17.4878C9.47105 18.4458 10.6334 18.9248 12 18.9248ZM12 17.1748C11.5667 17.1748 11.1544 17.0958 10.763 16.9378C10.371 16.7791 10.0334 16.5498 9.75005 16.2498L14.25 11.7498C14.55 12.0331 14.7794 12.3705 14.938 12.7618C15.096 13.1538 15.175 13.5665 15.175 13.9998C15.175 14.8665 14.8627 15.6125 14.238 16.2378C13.6127 16.8625 12.8667 17.1748 12 17.1748ZM8.12505 7.1748C8.42505 7.1748 8.67505 7.0748 8.87505 6.8748C9.07505 6.6748 9.17505 6.4248 9.17505 6.1248C9.17505 5.8248 9.07505 5.5748 8.87505 5.3748C8.67505 5.1748 8.42505 5.0748 8.12505 5.0748C7.82505 5.0748 7.57505 5.1748 7.37505 5.3748C7.17505 5.5748 7.07505 5.8248 7.07505 6.1248C7.07505 6.4248 7.17505 6.6748 7.37505 6.8748C7.57505 7.0748 7.82505 7.1748 8.12505 7.1748ZM11.25 7.1748C11.5334 7.1748 11.7794 7.0748 11.988 6.8748C12.196 6.6748 12.3 6.4248 12.3 6.1248C12.3 5.8248 12.196 5.5748 11.988 5.3748C11.7794 5.1748 11.5334 5.0748 11.25 5.0748C10.95 5.0748 10.696 5.1748 10.488 5.3748C10.2794 5.5748 10.175 5.8248 10.175 6.1248C10.175 6.4248 10.2794 6.6748 10.488 6.8748C10.696 7.0748 10.95 7.1748 11.25 7.1748Z" fill="current"/>
</g>
</svg>
