<svg width="24" height="24" viewBox="0 0 24 24" fill="none" xmlns="http://www.w3.org/2000/svg">
<path d="M14 5C14.5523 5 15 4.55228 15 4C15 3.44772 14.5523 3 14 3V5ZM4 4V3C3.44772 3 3 3.44772 3 4H4ZM4 20H3C3 20.5523 3.44772 21 4 21V20ZM14 21C14.5523 21 15 20.5523 15 20C15 19.4477 14.5523 19 14 19V21ZM14 3H4V5H14V3ZM3 4V20H5V4H3ZM4 21H14V19H4V21Z" fill="#A6ABC0"/>
<path d="M9 12H20" stroke="#A6ABC0" stroke-width="2" stroke-linecap="round" stroke-linejoin="round"/>
<path d="M16 8L20 12L16 16" stroke="#A6ABC0" stroke-width="2" stroke-linecap="round" stroke-linejoin="round"/>
</svg>
