<svg width="30" height="30" viewBox="0 0 30 30" fill="none" xmlns="http://www.w3.org/2000/svg">
<path d="M7.8125 3.75C5.58004 3.75 3.75 5.58004 3.75 7.8125V22.1875C3.75 24.42 5.58004 26.25 7.8125 26.25H22.1875C24.42 26.25 26.25 24.42 26.25 22.1875V7.8125C26.25 5.58004 24.42 3.75 22.1875 3.75H7.8125ZM7.8125 5.625H22.1875C23.4063 5.625 24.375 6.59371 24.375 7.8125V8.75H5.625V7.8125C5.625 6.59371 6.59371 5.625 7.8125 5.625ZM5.625 10.625H24.375V22.1875C24.375 23.4063 23.4063 24.375 22.1875 24.375H7.8125C6.59371 24.375 5.625 23.4063 5.625 22.1875V10.625ZM19.375 13.125C17.5656 13.125 16.0938 14.8069 16.0938 16.875C16.0938 18.9431 17.5656 20.625 19.375 20.625C21.1844 20.625 22.6562 18.9431 22.6562 16.875C22.6562 14.8069 21.1844 13.125 19.375 13.125ZM8.86108 13.1262C8.78282 13.1307 8.70524 13.1475 8.62915 13.1763C8.32603 13.2913 8.125 13.5819 8.125 13.9062V19.8438C8.125 20.275 8.475 20.625 8.90625 20.625C9.3375 20.625 9.6875 20.275 9.6875 19.8438V15.9607L10.8228 17.2375C11.1184 17.5707 11.6935 17.5707 11.9897 17.2375L13.125 15.9607V19.8438C13.125 20.275 13.475 20.625 13.9062 20.625C14.3375 20.625 14.6875 20.275 14.6875 19.8438V13.9062C14.6875 13.5819 14.4865 13.2919 14.1833 13.1763C13.8802 13.0619 13.5384 13.1456 13.3228 13.3875L11.4062 15.5432L9.48975 13.3875C9.32896 13.206 9.09587 13.1128 8.86108 13.1262ZM19.375 14.6875C20.3231 14.6875 21.0938 15.6687 21.0938 16.875C21.0938 18.0813 20.3231 19.0625 19.375 19.0625C18.4269 19.0625 17.6562 18.0813 17.6562 16.875C17.6562 15.6687 18.4269 14.6875 19.375 14.6875Z" fill="current"/>
</svg>
