<svg width="30" height="30" viewBox="0 0 30 30" fill="none" xmlns="http://www.w3.org/2000/svg">
<path d="M13.7143 3V17.6028C12.9536 17.1646 12.0823 16.8947 11.1429 16.8947C8.31776 16.8947 6 19.1718 6 21.9474C6 24.7229 8.31776 27 11.1429 27C13.9679 27 16.2857 24.7229 16.2857 21.9474V10.5789H24V3L13.7143 3ZM16.2857 5.52632L21.4286 5.52632V8.05263H16.2857V5.52632ZM11.1429 19.4211C12.5782 19.4211 13.7143 20.5372 13.7143 21.9474C13.7143 23.3576 12.5782 24.4737 11.1429 24.4737C9.70747 24.4737 8.57143 23.3576 8.57143 21.9474C8.57143 20.5372 9.70747 19.4211 11.1429 19.4211Z" fill="current"/>
</svg>
