<svg width="24" height="24" viewBox="0 0 24 24" fill="none" xmlns="http://www.w3.org/2000/svg">
<mask id="mask0_2246_8945" style="mask-type:alpha" maskUnits="userSpaceOnUse" x="0" y="0" width="24" height="24">
<rect width="24" height="24" fill="#D9D9D9"/>
</mask>
<g mask="url(#mask0_2246_8945)">
<path d="M9.925 21.2249C8.79167 21.2249 7.821 20.8209 7.013 20.0129C6.20434 19.2042 5.8 18.2332 5.8 17.0999C5.8 15.9499 6.20434 14.9706 7.013 14.1619C7.821 13.3539 8.79167 12.9499 9.925 12.9499C10.275 12.9499 10.6043 12.9916 10.913 13.0749C11.221 13.1582 11.5167 13.2749 11.8 13.4249V5.0499C11.8 4.41657 12.021 3.8789 12.463 3.4369C12.9043 2.99557 13.4417 2.7749 14.075 2.7749H16.075C16.6583 2.7749 17.1583 2.98324 17.575 3.3999C17.9917 3.81657 18.2 4.31657 18.2 4.8999C18.2 5.4999 17.9917 6.00824 17.575 6.4249C17.1583 6.84157 16.6583 7.0499 16.075 7.0499H14.075V17.0999C14.075 18.2332 13.671 19.2042 12.863 20.0129C12.0543 20.8209 11.075 21.2249 9.925 21.2249Z" fill="current"/>
</g>
</svg>
