<svg width="24" height="24" viewBox="0 0 24 24" fill="none" xmlns="http://www.w3.org/2000/svg">
<mask id="mask0_2244_6087" style="mask-type:alpha" maskUnits="userSpaceOnUse" x="0" y="0" width="24" height="24">
<rect width="24" height="24" fill="current"/>
</mask>
<g mask="url(#mask0_2244_6087)">
<path d="M9.9248 21.2249C8.79147 21.2249 7.8208 20.8209 7.0128 20.0129C6.20414 19.2042 5.7998 18.2332 5.7998 17.0999C5.7998 15.9499 6.20414 14.9706 7.0128 14.1619C7.8208 13.3539 8.79147 12.9499 9.9248 12.9499C10.2748 12.9499 10.6041 12.9916 10.9128 13.0749C11.2208 13.1582 11.5165 13.2749 11.7998 13.4249V5.0499C11.7998 4.41657 12.0208 3.8789 12.4628 3.4369C12.9041 2.99557 13.4415 2.7749 14.0748 2.7749H16.0748C16.6581 2.7749 17.1581 2.98324 17.5748 3.3999C17.9915 3.81657 18.1998 4.31657 18.1998 4.8999C18.1998 5.4999 17.9915 6.00824 17.5748 6.4249C17.1581 6.84157 16.6581 7.0499 16.0748 7.0499H14.0748V17.0999C14.0748 18.2332 13.6708 19.2042 12.8628 20.0129C12.0541 20.8209 11.0748 21.2249 9.9248 21.2249Z" fill="white"/>
<path d="M9.9248 21.2249C8.79147 21.2249 7.8208 20.8209 7.0128 20.0129C6.20414 19.2042 5.7998 18.2332 5.7998 17.0999C5.7998 15.9499 6.20414 14.9706 7.0128 14.1619C7.8208 13.3539 8.79147 12.9499 9.9248 12.9499C10.2748 12.9499 10.6041 12.9916 10.9128 13.0749C11.2208 13.1582 11.5165 13.2749 11.7998 13.4249V5.0499C11.7998 4.41657 12.0208 3.8789 12.4628 3.4369C12.9041 2.99557 13.4415 2.7749 14.0748 2.7749H16.0748C16.6581 2.7749 17.1581 2.98324 17.5748 3.3999C17.9915 3.81657 18.1998 4.31657 18.1998 4.8999C18.1998 5.4999 17.9915 6.00824 17.5748 6.4249C17.1581 6.84157 16.6581 7.0499 16.0748 7.0499H14.0748V17.0999C14.0748 18.2332 13.6708 19.2042 12.8628 20.0129C12.0541 20.8209 11.0748 21.2249 9.9248 21.2249Z" fill="black" fill-opacity="0.44"/>
<path d="M9.9248 21.2249C8.79147 21.2249 7.8208 20.8209 7.0128 20.0129C6.20414 19.2042 5.7998 18.2332 5.7998 17.0999C5.7998 15.9499 6.20414 14.9706 7.0128 14.1619C7.8208 13.3539 8.79147 12.9499 9.9248 12.9499C10.2748 12.9499 10.6041 12.9916 10.9128 13.0749C11.2208 13.1582 11.5165 13.2749 11.7998 13.4249V5.0499C11.7998 4.41657 12.0208 3.8789 12.4628 3.4369C12.9041 2.99557 13.4415 2.7749 14.0748 2.7749H16.0748C16.6581 2.7749 17.1581 2.98324 17.5748 3.3999C17.9915 3.81657 18.1998 4.31657 18.1998 4.8999C18.1998 5.4999 17.9915 6.00824 17.5748 6.4249C17.1581 6.84157 16.6581 7.0499 16.0748 7.0499H14.0748V17.0999C14.0748 18.2332 13.6708 19.2042 12.8628 20.0129C12.0541 20.8209 11.0748 21.2249 9.9248 21.2249Z" fill="#8099FF" fill-opacity="0.15"/>
</g>
</svg>
