<svg width="36" height="36" viewBox="0 0 36 36" fill="none" xmlns="http://www.w3.org/2000/svg">
<path opacity="0.35" d="M32.25 6H3.75C2.50736 6 1.5 7.00736 1.5 8.25C1.5 9.49264 2.50736 10.5 3.75 10.5H32.25C33.4926 10.5 34.5 9.49264 34.5 8.25C34.5 7.00736 33.4926 6 32.25 6Z" fill="#FF3284"/>
<path d="M4.5 10.5H9V27.75C9 28.3467 8.76295 28.919 8.34099 29.341C7.91903 29.7629 7.34674 30 6.75 30C6.15326 30 5.58097 29.7629 5.15901 29.341C4.73705 28.919 4.5 28.3467 4.5 27.75V10.5Z" fill="#FF3284"/>
<path d="M27 10.5H31.5V27.75C31.5 28.3467 31.2629 28.919 30.841 29.341C30.419 29.7629 29.8467 30 29.25 30C28.6533 30 28.081 29.7629 27.659 29.341C27.2371 28.919 27 28.3467 27 27.75V10.5Z" fill="#FF3284"/>
<path d="M28.5 15H7.5V19.5H28.5V15Z" fill="#FF3284"/>
</svg>
