<svg width="24" height="24" viewBox="0 0 24 24" fill="none" xmlns="http://www.w3.org/2000/svg">
<mask id="mask0_2244_6097" style="mask-type:alpha" maskUnits="userSpaceOnUse" x="0" y="0" width="24" height="24">
<rect width="24" height="24" fill="current"/>
</mask>
<g mask="url(#mask0_2244_6097)">
<path d="M8.0748 16.9502H12.9748C13.2581 16.9502 13.4958 16.8545 13.6878 16.6632C13.8791 16.4712 13.9748 16.2335 13.9748 15.9502C13.9748 15.6669 13.8791 15.4295 13.6878 15.2382C13.4958 15.0462 13.2581 14.9502 12.9748 14.9502H8.0748C7.79147 14.9502 7.55414 15.0462 7.3628 15.2382C7.1708 15.4295 7.0748 15.6669 7.0748 15.9502C7.0748 16.2335 7.1708 16.4712 7.3628 16.6632C7.55414 16.8545 7.79147 16.9502 8.0748 16.9502ZM8.0748 13.0252H15.9248C16.2081 13.0252 16.4458 12.9292 16.6378 12.7372C16.8291 12.5459 16.9248 12.3085 16.9248 12.0252C16.9248 11.7419 16.8291 11.5042 16.6378 11.3122C16.4458 11.1209 16.2081 11.0252 15.9248 11.0252H8.0748C7.79147 11.0252 7.55414 11.1209 7.3628 11.3122C7.1708 11.5042 7.0748 11.7419 7.0748 12.0252C7.0748 12.3085 7.1708 12.5459 7.3628 12.7372C7.55414 12.9292 7.79147 13.0252 8.0748 13.0252ZM8.0748 9.1002H15.9248C16.2081 9.1002 16.4458 9.0042 16.6378 8.8122C16.8291 8.62086 16.9248 8.38353 16.9248 8.1002C16.9248 7.81686 16.8291 7.5792 16.6378 7.3872C16.4458 7.19586 16.2081 7.1002 15.9248 7.1002H8.0748C7.79147 7.1002 7.55414 7.19586 7.3628 7.3872C7.1708 7.5792 7.0748 7.81686 7.0748 8.1002C7.0748 8.38353 7.1708 8.62086 7.3628 8.8122C7.55414 9.0042 7.79147 9.1002 8.0748 9.1002ZM5.0748 21.2252C4.44147 21.2252 3.90414 21.0002 3.4628 20.5502C3.0208 20.1002 2.7998 19.5669 2.7998 18.9502V5.1002C2.7998 4.46686 3.0208 3.9292 3.4628 3.4872C3.90414 3.04586 4.44147 2.8252 5.0748 2.8252H9.0748C9.3248 2.20853 9.71247 1.72086 10.2378 1.3622C10.7625 1.0042 11.3498 0.825195 11.9998 0.825195C12.6498 0.825195 13.2375 1.0042 13.7628 1.3622C14.2875 1.72086 14.6748 2.20853 14.9248 2.8252H18.9248C19.5581 2.8252 20.0958 3.04586 20.5378 3.4872C20.9791 3.9292 21.1998 4.46686 21.1998 5.1002V18.9502C21.1998 19.5669 20.9791 20.1002 20.5378 20.5502C20.0958 21.0002 19.5581 21.2252 18.9248 21.2252H5.0748ZM11.9998 4.3252C12.2331 4.3252 12.4248 4.2502 12.5748 4.1002C12.7248 3.9502 12.7998 3.75853 12.7998 3.5252C12.7998 3.29186 12.7248 3.1002 12.5748 2.9502C12.4248 2.8002 12.2331 2.7252 11.9998 2.7252C11.7665 2.7252 11.5748 2.8002 11.4248 2.9502C11.2748 3.1002 11.1998 3.29186 11.1998 3.5252C11.1998 3.75853 11.2748 3.9502 11.4248 4.1002C11.5748 4.2502 11.7665 4.3252 11.9998 4.3252Z" fill="current"/>
<path d="M8.0748 16.9502H12.9748C13.2581 16.9502 13.4958 16.8545 13.6878 16.6632C13.8791 16.4712 13.9748 16.2335 13.9748 15.9502C13.9748 15.6669 13.8791 15.4295 13.6878 15.2382C13.4958 15.0462 13.2581 14.9502 12.9748 14.9502H8.0748C7.79147 14.9502 7.55414 15.0462 7.3628 15.2382C7.1708 15.4295 7.0748 15.6669 7.0748 15.9502C7.0748 16.2335 7.1708 16.4712 7.3628 16.6632C7.55414 16.8545 7.79147 16.9502 8.0748 16.9502ZM8.0748 13.0252H15.9248C16.2081 13.0252 16.4458 12.9292 16.6378 12.7372C16.8291 12.5459 16.9248 12.3085 16.9248 12.0252C16.9248 11.7419 16.8291 11.5042 16.6378 11.3122C16.4458 11.1209 16.2081 11.0252 15.9248 11.0252H8.0748C7.79147 11.0252 7.55414 11.1209 7.3628 11.3122C7.1708 11.5042 7.0748 11.7419 7.0748 12.0252C7.0748 12.3085 7.1708 12.5459 7.3628 12.7372C7.55414 12.9292 7.79147 13.0252 8.0748 13.0252ZM8.0748 9.1002H15.9248C16.2081 9.1002 16.4458 9.0042 16.6378 8.8122C16.8291 8.62086 16.9248 8.38353 16.9248 8.1002C16.9248 7.81686 16.8291 7.5792 16.6378 7.3872C16.4458 7.19586 16.2081 7.1002 15.9248 7.1002H8.0748C7.79147 7.1002 7.55414 7.19586 7.3628 7.3872C7.1708 7.5792 7.0748 7.81686 7.0748 8.1002C7.0748 8.38353 7.1708 8.62086 7.3628 8.8122C7.55414 9.0042 7.79147 9.1002 8.0748 9.1002ZM5.0748 21.2252C4.44147 21.2252 3.90414 21.0002 3.4628 20.5502C3.0208 20.1002 2.7998 19.5669 2.7998 18.9502V5.1002C2.7998 4.46686 3.0208 3.9292 3.4628 3.4872C3.90414 3.04586 4.44147 2.8252 5.0748 2.8252H9.0748C9.3248 2.20853 9.71247 1.72086 10.2378 1.3622C10.7625 1.0042 11.3498 0.825195 11.9998 0.825195C12.6498 0.825195 13.2375 1.0042 13.7628 1.3622C14.2875 1.72086 14.6748 2.20853 14.9248 2.8252H18.9248C19.5581 2.8252 20.0958 3.04586 20.5378 3.4872C20.9791 3.9292 21.1998 4.46686 21.1998 5.1002V18.9502C21.1998 19.5669 20.9791 20.1002 20.5378 20.5502C20.0958 21.0002 19.5581 21.2252 18.9248 21.2252H5.0748ZM11.9998 4.3252C12.2331 4.3252 12.4248 4.2502 12.5748 4.1002C12.7248 3.9502 12.7998 3.75853 12.7998 3.5252C12.7998 3.29186 12.7248 3.1002 12.5748 2.9502C12.4248 2.8002 12.2331 2.7252 11.9998 2.7252C11.7665 2.7252 11.5748 2.8002 11.4248 2.9502C11.2748 3.1002 11.1998 3.29186 11.1998 3.5252C11.1998 3.75853 11.2748 3.9502 11.4248 4.1002C11.5748 4.2502 11.7665 4.3252 11.9998 4.3252Z" fill="current" fill-opacity="0.44"/>
<path d="M8.0748 16.9502H12.9748C13.2581 16.9502 13.4958 16.8545 13.6878 16.6632C13.8791 16.4712 13.9748 16.2335 13.9748 15.9502C13.9748 15.6669 13.8791 15.4295 13.6878 15.2382C13.4958 15.0462 13.2581 14.9502 12.9748 14.9502H8.0748C7.79147 14.9502 7.55414 15.0462 7.3628 15.2382C7.1708 15.4295 7.0748 15.6669 7.0748 15.9502C7.0748 16.2335 7.1708 16.4712 7.3628 16.6632C7.55414 16.8545 7.79147 16.9502 8.0748 16.9502ZM8.0748 13.0252H15.9248C16.2081 13.0252 16.4458 12.9292 16.6378 12.7372C16.8291 12.5459 16.9248 12.3085 16.9248 12.0252C16.9248 11.7419 16.8291 11.5042 16.6378 11.3122C16.4458 11.1209 16.2081 11.0252 15.9248 11.0252H8.0748C7.79147 11.0252 7.55414 11.1209 7.3628 11.3122C7.1708 11.5042 7.0748 11.7419 7.0748 12.0252C7.0748 12.3085 7.1708 12.5459 7.3628 12.7372C7.55414 12.9292 7.79147 13.0252 8.0748 13.0252ZM8.0748 9.1002H15.9248C16.2081 9.1002 16.4458 9.0042 16.6378 8.8122C16.8291 8.62086 16.9248 8.38353 16.9248 8.1002C16.9248 7.81686 16.8291 7.5792 16.6378 7.3872C16.4458 7.19586 16.2081 7.1002 15.9248 7.1002H8.0748C7.79147 7.1002 7.55414 7.19586 7.3628 7.3872C7.1708 7.5792 7.0748 7.81686 7.0748 8.1002C7.0748 8.38353 7.1708 8.62086 7.3628 8.8122C7.55414 9.0042 7.79147 9.1002 8.0748 9.1002ZM5.0748 21.2252C4.44147 21.2252 3.90414 21.0002 3.4628 20.5502C3.0208 20.1002 2.7998 19.5669 2.7998 18.9502V5.1002C2.7998 4.46686 3.0208 3.9292 3.4628 3.4872C3.90414 3.04586 4.44147 2.8252 5.0748 2.8252H9.0748C9.3248 2.20853 9.71247 1.72086 10.2378 1.3622C10.7625 1.0042 11.3498 0.825195 11.9998 0.825195C12.6498 0.825195 13.2375 1.0042 13.7628 1.3622C14.2875 1.72086 14.6748 2.20853 14.9248 2.8252H18.9248C19.5581 2.8252 20.0958 3.04586 20.5378 3.4872C20.9791 3.9292 21.1998 4.46686 21.1998 5.1002V18.9502C21.1998 19.5669 20.9791 20.1002 20.5378 20.5502C20.0958 21.0002 19.5581 21.2252 18.9248 21.2252H5.0748ZM11.9998 4.3252C12.2331 4.3252 12.4248 4.2502 12.5748 4.1002C12.7248 3.9502 12.7998 3.75853 12.7998 3.5252C12.7998 3.29186 12.7248 3.1002 12.5748 2.9502C12.4248 2.8002 12.2331 2.7252 11.9998 2.7252C11.7665 2.7252 11.5748 2.8002 11.4248 2.9502C11.2748 3.1002 11.1998 3.29186 11.1998 3.5252C11.1998 3.75853 11.2748 3.9502 11.4248 4.1002C11.5748 4.2502 11.7665 4.3252 11.9998 4.3252Z" fill="current" fill-opacity="0.15"/>
</g>
</svg>
