<svg width="16" height="16" viewBox="0 0 16 16" fill="none" xmlns="http://www.w3.org/2000/svg">
<mask id="mask0_2246_8277" style="mask-type:alpha" maskUnits="userSpaceOnUse" x="0" y="0" width="16" height="16">
<rect width="16" height="16" fill="#D9D9D9"/>
</mask>
<g mask="url(#mask0_2246_8277)">
<path d="M8.00011 7.9335C7.22234 7.9335 6.56122 7.65838 6.01678 7.10816C5.47234 6.55838 5.20011 5.90016 5.20011 5.1335C5.20011 4.35572 5.47234 3.69461 6.01678 3.15016C6.56122 2.60572 7.22234 2.3335 8.00011 2.3335C8.77789 2.3335 9.439 2.60572 9.98345 3.15016C10.5279 3.69461 10.8001 4.35572 10.8001 5.1335C10.8001 5.90016 10.5279 6.55838 9.98345 7.10816C9.439 7.65838 8.77789 7.9335 8.00011 7.9335ZM4.05011 13.5335C3.62789 13.5335 3.26967 13.3864 2.97545 13.0922C2.68078 12.7975 2.53345 12.4391 2.53345 12.0168V11.5335C2.53345 11.1224 2.63634 10.7502 2.84211 10.4168C3.04745 10.0835 3.32234 9.82794 3.66678 9.65016C4.36678 9.29461 5.07789 9.03061 5.80011 8.85816C6.52234 8.68616 7.25567 8.60016 8.00011 8.60016C8.74456 8.60016 9.47789 8.68616 10.2001 8.85816C10.9223 9.03061 11.6334 9.28905 12.3334 9.6335C12.6779 9.81127 12.953 10.0697 13.1588 10.4088C13.3641 10.7475 13.4668 11.1224 13.4668 11.5335V12.0168C13.4668 12.4391 13.3197 12.7975 13.0254 13.0922C12.7308 13.3864 12.3723 13.5335 11.9501 13.5335H4.05011Z" fill="white"/>
<path d="M8.00011 7.9335C7.22234 7.9335 6.56122 7.65838 6.01678 7.10816C5.47234 6.55838 5.20011 5.90016 5.20011 5.1335C5.20011 4.35572 5.47234 3.69461 6.01678 3.15016C6.56122 2.60572 7.22234 2.3335 8.00011 2.3335C8.77789 2.3335 9.439 2.60572 9.98345 3.15016C10.5279 3.69461 10.8001 4.35572 10.8001 5.1335C10.8001 5.90016 10.5279 6.55838 9.98345 7.10816C9.439 7.65838 8.77789 7.9335 8.00011 7.9335ZM4.05011 13.5335C3.62789 13.5335 3.26967 13.3864 2.97545 13.0922C2.68078 12.7975 2.53345 12.4391 2.53345 12.0168V11.5335C2.53345 11.1224 2.63634 10.7502 2.84211 10.4168C3.04745 10.0835 3.32234 9.82794 3.66678 9.65016C4.36678 9.29461 5.07789 9.03061 5.80011 8.85816C6.52234 8.68616 7.25567 8.60016 8.00011 8.60016C8.74456 8.60016 9.47789 8.68616 10.2001 8.85816C10.9223 9.03061 11.6334 9.28905 12.3334 9.6335C12.6779 9.81127 12.953 10.0697 13.1588 10.4088C13.3641 10.7475 13.4668 11.1224 13.4668 11.5335V12.0168C13.4668 12.4391 13.3197 12.7975 13.0254 13.0922C12.7308 13.3864 12.3723 13.5335 11.9501 13.5335H4.05011Z" fill="black" fill-opacity="0.44"/>
<path d="M8.00011 7.9335C7.22234 7.9335 6.56122 7.65838 6.01678 7.10816C5.47234 6.55838 5.20011 5.90016 5.20011 5.1335C5.20011 4.35572 5.47234 3.69461 6.01678 3.15016C6.56122 2.60572 7.22234 2.3335 8.00011 2.3335C8.77789 2.3335 9.439 2.60572 9.98345 3.15016C10.5279 3.69461 10.8001 4.35572 10.8001 5.1335C10.8001 5.90016 10.5279 6.55838 9.98345 7.10816C9.439 7.65838 8.77789 7.9335 8.00011 7.9335ZM4.05011 13.5335C3.62789 13.5335 3.26967 13.3864 2.97545 13.0922C2.68078 12.7975 2.53345 12.4391 2.53345 12.0168V11.5335C2.53345 11.1224 2.63634 10.7502 2.84211 10.4168C3.04745 10.0835 3.32234 9.82794 3.66678 9.65016C4.36678 9.29461 5.07789 9.03061 5.80011 8.85816C6.52234 8.68616 7.25567 8.60016 8.00011 8.60016C8.74456 8.60016 9.47789 8.68616 10.2001 8.85816C10.9223 9.03061 11.6334 9.28905 12.3334 9.6335C12.6779 9.81127 12.953 10.0697 13.1588 10.4088C13.3641 10.7475 13.4668 11.1224 13.4668 11.5335V12.0168C13.4668 12.4391 13.3197 12.7975 13.0254 13.0922C12.7308 13.3864 12.3723 13.5335 11.9501 13.5335H4.05011Z" fill="#8099FF" fill-opacity="0.15"/>
</g>
</svg>
