<svg width="16" height="16" viewBox="0 0 16 16" fill="none" xmlns="http://www.w3.org/2000/svg">
<mask id="mask0_2832_44" style="mask-type:alpha" maskUnits="userSpaceOnUse" x="0" y="0" width="16" height="16">
<rect width="16" height="16" fill="#D9D9D9"/>
</mask>
<g mask="url(#mask0_2832_44)">
<path d="M7.99994 12.4166C7.88883 12.4166 7.77772 12.3999 7.66661 12.3666C7.5555 12.3332 7.4555 12.2832 7.36661 12.2166C5.97772 11.1277 4.94172 10.0692 4.25861 9.04124C3.57505 8.01368 3.23328 6.9999 3.23328 5.9999C3.23328 5.1999 3.38061 4.49701 3.67528 3.89124C3.9695 3.2859 4.34172 2.78035 4.79194 2.37457C5.24172 1.96924 5.74994 1.66368 6.31661 1.4579C6.88328 1.25257 7.44439 1.1499 7.99994 1.1499C8.5555 1.1499 9.11661 1.25257 9.68328 1.4579C10.2499 1.66368 10.7582 1.96924 11.2079 2.37457C11.6582 2.78035 12.0306 3.2859 12.3253 3.89124C12.6195 4.49701 12.7666 5.1999 12.7666 5.9999C12.7666 6.9999 12.4251 8.01368 11.7419 9.04124C11.0584 10.0692 10.0222 11.1277 8.63328 12.2166C8.5555 12.2832 8.45817 12.3332 8.34128 12.3666C8.22483 12.3999 8.11105 12.4166 7.99994 12.4166ZM7.99994 7.33324C8.38883 7.33324 8.72483 7.19435 9.00794 6.91657C9.2915 6.63879 9.43328 6.2999 9.43328 5.8999C9.43328 5.51101 9.2915 5.17768 9.00794 4.8999C8.72483 4.62212 8.38883 4.48324 7.99994 4.48324C7.61105 4.48324 7.27505 4.62212 6.99194 4.8999C6.70839 5.17768 6.56661 5.51101 6.56661 5.8999C6.56661 6.2999 6.70839 6.63879 6.99194 6.91657C7.27505 7.19435 7.61105 7.33324 7.99994 7.33324ZM3.99994 14.8499C3.78883 14.8499 3.60839 14.7777 3.45861 14.6332C3.30839 14.4888 3.23328 14.311 3.23328 14.0999C3.23328 13.8777 3.30839 13.6943 3.45861 13.5499C3.60839 13.4055 3.78883 13.3332 3.99994 13.3332H11.9999C12.2111 13.3332 12.3915 13.4055 12.5413 13.5499C12.6915 13.6943 12.7666 13.8777 12.7666 14.0999C12.7666 14.311 12.6915 14.4888 12.5413 14.6332C12.3915 14.7777 12.2111 14.8499 11.9999 14.8499H3.99994Z" fill="white"/>
<path d="M7.99994 12.4166C7.88883 12.4166 7.77772 12.3999 7.66661 12.3666C7.5555 12.3332 7.4555 12.2832 7.36661 12.2166C5.97772 11.1277 4.94172 10.0692 4.25861 9.04124C3.57505 8.01368 3.23328 6.9999 3.23328 5.9999C3.23328 5.1999 3.38061 4.49701 3.67528 3.89124C3.9695 3.2859 4.34172 2.78035 4.79194 2.37457C5.24172 1.96924 5.74994 1.66368 6.31661 1.4579C6.88328 1.25257 7.44439 1.1499 7.99994 1.1499C8.5555 1.1499 9.11661 1.25257 9.68328 1.4579C10.2499 1.66368 10.7582 1.96924 11.2079 2.37457C11.6582 2.78035 12.0306 3.2859 12.3253 3.89124C12.6195 4.49701 12.7666 5.1999 12.7666 5.9999C12.7666 6.9999 12.4251 8.01368 11.7419 9.04124C11.0584 10.0692 10.0222 11.1277 8.63328 12.2166C8.5555 12.2832 8.45817 12.3332 8.34128 12.3666C8.22483 12.3999 8.11105 12.4166 7.99994 12.4166ZM7.99994 7.33324C8.38883 7.33324 8.72483 7.19435 9.00794 6.91657C9.2915 6.63879 9.43328 6.2999 9.43328 5.8999C9.43328 5.51101 9.2915 5.17768 9.00794 4.8999C8.72483 4.62212 8.38883 4.48324 7.99994 4.48324C7.61105 4.48324 7.27505 4.62212 6.99194 4.8999C6.70839 5.17768 6.56661 5.51101 6.56661 5.8999C6.56661 6.2999 6.70839 6.63879 6.99194 6.91657C7.27505 7.19435 7.61105 7.33324 7.99994 7.33324ZM3.99994 14.8499C3.78883 14.8499 3.60839 14.7777 3.45861 14.6332C3.30839 14.4888 3.23328 14.311 3.23328 14.0999C3.23328 13.8777 3.30839 13.6943 3.45861 13.5499C3.60839 13.4055 3.78883 13.3332 3.99994 13.3332H11.9999C12.2111 13.3332 12.3915 13.4055 12.5413 13.5499C12.6915 13.6943 12.7666 13.8777 12.7666 14.0999C12.7666 14.311 12.6915 14.4888 12.5413 14.6332C12.3915 14.7777 12.2111 14.8499 11.9999 14.8499H3.99994Z" fill="black" fill-opacity="0.44"/>
<path d="M7.99994 12.4166C7.88883 12.4166 7.77772 12.3999 7.66661 12.3666C7.5555 12.3332 7.4555 12.2832 7.36661 12.2166C5.97772 11.1277 4.94172 10.0692 4.25861 9.04124C3.57505 8.01368 3.23328 6.9999 3.23328 5.9999C3.23328 5.1999 3.38061 4.49701 3.67528 3.89124C3.9695 3.2859 4.34172 2.78035 4.79194 2.37457C5.24172 1.96924 5.74994 1.66368 6.31661 1.4579C6.88328 1.25257 7.44439 1.1499 7.99994 1.1499C8.5555 1.1499 9.11661 1.25257 9.68328 1.4579C10.2499 1.66368 10.7582 1.96924 11.2079 2.37457C11.6582 2.78035 12.0306 3.2859 12.3253 3.89124C12.6195 4.49701 12.7666 5.1999 12.7666 5.9999C12.7666 6.9999 12.4251 8.01368 11.7419 9.04124C11.0584 10.0692 10.0222 11.1277 8.63328 12.2166C8.5555 12.2832 8.45817 12.3332 8.34128 12.3666C8.22483 12.3999 8.11105 12.4166 7.99994 12.4166ZM7.99994 7.33324C8.38883 7.33324 8.72483 7.19435 9.00794 6.91657C9.2915 6.63879 9.43328 6.2999 9.43328 5.8999C9.43328 5.51101 9.2915 5.17768 9.00794 4.8999C8.72483 4.62212 8.38883 4.48324 7.99994 4.48324C7.61105 4.48324 7.27505 4.62212 6.99194 4.8999C6.70839 5.17768 6.56661 5.51101 6.56661 5.8999C6.56661 6.2999 6.70839 6.63879 6.99194 6.91657C7.27505 7.19435 7.61105 7.33324 7.99994 7.33324ZM3.99994 14.8499C3.78883 14.8499 3.60839 14.7777 3.45861 14.6332C3.30839 14.4888 3.23328 14.311 3.23328 14.0999C3.23328 13.8777 3.30839 13.6943 3.45861 13.5499C3.60839 13.4055 3.78883 13.3332 3.99994 13.3332H11.9999C12.2111 13.3332 12.3915 13.4055 12.5413 13.5499C12.6915 13.6943 12.7666 13.8777 12.7666 14.0999C12.7666 14.311 12.6915 14.4888 12.5413 14.6332C12.3915 14.7777 12.2111 14.8499 11.9999 14.8499H3.99994Z" fill="#8099FF" fill-opacity="0.15"/>
</g>
</svg>
