<svg width="24" height="24" viewBox="0 0 24 24" fill="none" xmlns="http://www.w3.org/2000/svg">
<mask id="mask0_2244_6205" style="mask-type:alpha" maskUnits="userSpaceOnUse" x="0" y="0" width="24" height="24">
<rect width="24" height="24" fill="#D9D9D9"/>
</mask>
<g mask="url(#mask0_2244_6205)">
<path d="M12.0001 18.6251C11.8334 18.6251 11.6668 18.6001 11.5001 18.5501C11.3334 18.5001 11.1834 18.4251 11.0501 18.3251C8.96676 16.6918 7.41276 15.1041 6.3881 13.5621C5.36276 12.0208 4.8501 10.5001 4.8501 9.0001C4.8501 7.8001 5.0711 6.74576 5.5131 5.8371C5.95443 4.9291 6.51276 4.17076 7.1881 3.5621C7.86276 2.9541 8.6251 2.49576 9.4751 2.1871C10.3251 1.8791 11.1668 1.7251 12.0001 1.7251C12.8334 1.7251 13.6751 1.8791 14.5251 2.1871C15.3751 2.49576 16.1374 2.9541 16.8121 3.5621C17.4874 4.17076 18.0461 4.9291 18.4881 5.8371C18.9294 6.74576 19.1501 7.8001 19.1501 9.0001C19.1501 10.5001 18.6378 12.0208 17.6131 13.5621C16.5878 15.1041 15.0334 16.6918 12.9501 18.3251C12.8334 18.4251 12.6874 18.5001 12.5121 18.5501C12.3374 18.6001 12.1668 18.6251 12.0001 18.6251ZM12.0001 11.0001C12.5834 11.0001 13.0874 10.7918 13.5121 10.3751C13.9374 9.95843 14.1501 9.4501 14.1501 8.8501C14.1501 8.26676 13.9374 7.76676 13.5121 7.3501C13.0874 6.93343 12.5834 6.7251 12.0001 6.7251C11.4168 6.7251 10.9128 6.93343 10.4881 7.3501C10.0628 7.76676 9.8501 8.26676 9.8501 8.8501C9.8501 9.4501 10.0628 9.95843 10.4881 10.3751C10.9128 10.7918 11.4168 11.0001 12.0001 11.0001ZM6.0001 22.2751C5.68343 22.2751 5.41276 22.1668 5.1881 21.9501C4.96276 21.7334 4.8501 21.4668 4.8501 21.1501C4.8501 20.8168 4.96276 20.5418 5.1881 20.3251C5.41276 20.1084 5.68343 20.0001 6.0001 20.0001H18.0001C18.3168 20.0001 18.5874 20.1084 18.8121 20.3251C19.0374 20.5418 19.1501 20.8168 19.1501 21.1501C19.1501 21.4668 19.0374 21.7334 18.8121 21.9501C18.5874 22.1668 18.3168 22.2751 18.0001 22.2751H6.0001Z" fill="white"/>
<path d="M12.0001 18.6251C11.8334 18.6251 11.6668 18.6001 11.5001 18.5501C11.3334 18.5001 11.1834 18.4251 11.0501 18.3251C8.96676 16.6918 7.41276 15.1041 6.3881 13.5621C5.36276 12.0208 4.8501 10.5001 4.8501 9.0001C4.8501 7.8001 5.0711 6.74576 5.5131 5.8371C5.95443 4.9291 6.51276 4.17076 7.1881 3.5621C7.86276 2.9541 8.6251 2.49576 9.4751 2.1871C10.3251 1.8791 11.1668 1.7251 12.0001 1.7251C12.8334 1.7251 13.6751 1.8791 14.5251 2.1871C15.3751 2.49576 16.1374 2.9541 16.8121 3.5621C17.4874 4.17076 18.0461 4.9291 18.4881 5.8371C18.9294 6.74576 19.1501 7.8001 19.1501 9.0001C19.1501 10.5001 18.6378 12.0208 17.6131 13.5621C16.5878 15.1041 15.0334 16.6918 12.9501 18.3251C12.8334 18.4251 12.6874 18.5001 12.5121 18.5501C12.3374 18.6001 12.1668 18.6251 12.0001 18.6251ZM12.0001 11.0001C12.5834 11.0001 13.0874 10.7918 13.5121 10.3751C13.9374 9.95843 14.1501 9.4501 14.1501 8.8501C14.1501 8.26676 13.9374 7.76676 13.5121 7.3501C13.0874 6.93343 12.5834 6.7251 12.0001 6.7251C11.4168 6.7251 10.9128 6.93343 10.4881 7.3501C10.0628 7.76676 9.8501 8.26676 9.8501 8.8501C9.8501 9.4501 10.0628 9.95843 10.4881 10.3751C10.9128 10.7918 11.4168 11.0001 12.0001 11.0001ZM6.0001 22.2751C5.68343 22.2751 5.41276 22.1668 5.1881 21.9501C4.96276 21.7334 4.8501 21.4668 4.8501 21.1501C4.8501 20.8168 4.96276 20.5418 5.1881 20.3251C5.41276 20.1084 5.68343 20.0001 6.0001 20.0001H18.0001C18.3168 20.0001 18.5874 20.1084 18.8121 20.3251C19.0374 20.5418 19.1501 20.8168 19.1501 21.1501C19.1501 21.4668 19.0374 21.7334 18.8121 21.9501C18.5874 22.1668 18.3168 22.2751 18.0001 22.2751H6.0001Z" fill="black" fill-opacity="0.9"/>
<path d="M12.0001 18.6251C11.8334 18.6251 11.6668 18.6001 11.5001 18.5501C11.3334 18.5001 11.1834 18.4251 11.0501 18.3251C8.96676 16.6918 7.41276 15.1041 6.3881 13.5621C5.36276 12.0208 4.8501 10.5001 4.8501 9.0001C4.8501 7.8001 5.0711 6.74576 5.5131 5.8371C5.95443 4.9291 6.51276 4.17076 7.1881 3.5621C7.86276 2.9541 8.6251 2.49576 9.4751 2.1871C10.3251 1.8791 11.1668 1.7251 12.0001 1.7251C12.8334 1.7251 13.6751 1.8791 14.5251 2.1871C15.3751 2.49576 16.1374 2.9541 16.8121 3.5621C17.4874 4.17076 18.0461 4.9291 18.4881 5.8371C18.9294 6.74576 19.1501 7.8001 19.1501 9.0001C19.1501 10.5001 18.6378 12.0208 17.6131 13.5621C16.5878 15.1041 15.0334 16.6918 12.9501 18.3251C12.8334 18.4251 12.6874 18.5001 12.5121 18.5501C12.3374 18.6001 12.1668 18.6251 12.0001 18.6251ZM12.0001 11.0001C12.5834 11.0001 13.0874 10.7918 13.5121 10.3751C13.9374 9.95843 14.1501 9.4501 14.1501 8.8501C14.1501 8.26676 13.9374 7.76676 13.5121 7.3501C13.0874 6.93343 12.5834 6.7251 12.0001 6.7251C11.4168 6.7251 10.9128 6.93343 10.4881 7.3501C10.0628 7.76676 9.8501 8.26676 9.8501 8.8501C9.8501 9.4501 10.0628 9.95843 10.4881 10.3751C10.9128 10.7918 11.4168 11.0001 12.0001 11.0001ZM6.0001 22.2751C5.68343 22.2751 5.41276 22.1668 5.1881 21.9501C4.96276 21.7334 4.8501 21.4668 4.8501 21.1501C4.8501 20.8168 4.96276 20.5418 5.1881 20.3251C5.41276 20.1084 5.68343 20.0001 6.0001 20.0001H18.0001C18.3168 20.0001 18.5874 20.1084 18.8121 20.3251C19.0374 20.5418 19.1501 20.8168 19.1501 21.1501C19.1501 21.4668 19.0374 21.7334 18.8121 21.9501C18.5874 22.1668 18.3168 22.2751 18.0001 22.2751H6.0001Z" fill="#8099FF" fill-opacity="0.06"/>
</g>
</svg>
