<svg width="32" height="30" viewBox="0 0 32 30" fill="none" xmlns="http://www.w3.org/2000/svg">
<path d="M18.9895 4.98788C18.7764 4.99087 18.5699 5.05763 18.4001 5.1784C18.2302 5.29918 18.106 5.46766 18.0455 5.65927L12.0455 23.7843C12.0014 23.9031 11.9832 24.0289 11.992 24.1545C12.0009 24.28 12.0365 24.4025 12.0969 24.5148C12.1573 24.6272 12.2412 24.7269 12.3436 24.8082C12.446 24.8895 12.5648 24.9507 12.6929 24.988C12.821 25.0254 12.9558 25.0382 13.0894 25.0257C13.2229 25.0132 13.3523 24.9756 13.47 24.9152C13.5877 24.8549 13.6913 24.7729 13.7745 24.6742C13.8577 24.5756 13.9189 24.4622 13.9544 24.3409L19.9544 6.21591C20.0037 6.07411 20.0162 5.92334 19.9908 5.7761C19.9655 5.62886 19.9031 5.48942 19.8087 5.36934C19.7144 5.24925 19.5909 5.15201 19.4484 5.08566C19.3059 5.01932 19.1486 4.9858 18.9895 4.98788ZM9.00647 8.11533C8.74644 8.11631 8.49704 8.21219 8.31115 8.38266L4.97782 11.3514L1.64449 14.3202C1.54608 14.4078 1.46772 14.5132 1.41417 14.6301C1.36062 14.747 1.33301 14.8729 1.33301 15.0001C1.33301 15.1273 1.36062 15.2532 1.41417 15.3701C1.46772 15.487 1.54608 15.5924 1.64449 15.68L8.31115 21.6175C8.40639 21.7023 8.51852 21.7687 8.64114 21.8129C8.76375 21.8571 8.89445 21.8783 9.02577 21.8751C9.15709 21.8719 9.28646 21.8445 9.40649 21.7945C9.52652 21.7445 9.63486 21.6727 9.72532 21.5834C9.81579 21.4941 9.8866 21.389 9.93372 21.2741C9.98084 21.1591 10.0033 21.0366 9.99995 20.9134C9.99656 20.7903 9.96733 20.6691 9.91393 20.5565C9.86054 20.444 9.78402 20.3425 9.68876 20.2577L3.78511 15.0001L9.68876 9.74252C9.83711 9.61441 9.94068 9.44724 9.98586 9.26295C10.031 9.07867 10.0157 8.88588 9.94195 8.70989C9.86816 8.53391 9.73933 8.38296 9.57238 8.27685C9.40543 8.17074 9.20816 8.11443 9.00647 8.11533ZM22.9635 8.11655C22.7646 8.12145 22.5718 8.18184 22.4098 8.29C22.2477 8.39816 22.1237 8.54918 22.0537 8.72374C21.9837 8.8983 21.9708 9.08848 22.0166 9.26996C22.0625 9.45144 22.165 9.61597 22.3112 9.74252L28.2148 15.0001L22.3112 20.2577C22.2159 20.3425 22.1394 20.444 22.086 20.5565C22.0326 20.6691 22.0034 20.7903 22 20.9134C21.9966 21.0366 22.0191 21.1591 22.0662 21.2741C22.1133 21.389 22.1841 21.4941 22.2746 21.5834C22.3651 21.6727 22.4734 21.7445 22.5934 21.7945C22.7135 21.8445 22.8428 21.8719 22.9741 21.8751C23.1055 21.8783 23.2362 21.8571 23.3588 21.8129C23.4814 21.7687 23.5935 21.7023 23.6888 21.6175L30.3554 15.68C30.4538 15.5924 30.5322 15.487 30.5857 15.3701C30.6393 15.2532 30.6669 15.1273 30.6669 15.0001C30.6669 14.8729 30.6393 14.747 30.5857 14.6301C30.5322 14.5132 30.4538 14.4078 30.3554 14.3202L23.6888 8.38266C23.593 8.29508 23.4795 8.22641 23.3549 8.1807C23.2303 8.13499 23.0972 8.11317 22.9635 8.11655Z" fill="white"/>
<path d="M18.9895 4.98788C18.7764 4.99087 18.5699 5.05763 18.4001 5.1784C18.2302 5.29918 18.106 5.46766 18.0455 5.65927L12.0455 23.7843C12.0014 23.9031 11.9832 24.0289 11.992 24.1545C12.0009 24.28 12.0365 24.4025 12.0969 24.5148C12.1573 24.6272 12.2412 24.7269 12.3436 24.8082C12.446 24.8895 12.5648 24.9507 12.6929 24.988C12.821 25.0254 12.9558 25.0382 13.0894 25.0257C13.2229 25.0132 13.3523 24.9756 13.47 24.9152C13.5877 24.8549 13.6913 24.7729 13.7745 24.6742C13.8577 24.5756 13.9189 24.4622 13.9544 24.3409L19.9544 6.21591C20.0037 6.07411 20.0162 5.92334 19.9908 5.7761C19.9655 5.62886 19.9031 5.48942 19.8087 5.36934C19.7144 5.24925 19.5909 5.15201 19.4484 5.08566C19.3059 5.01932 19.1486 4.9858 18.9895 4.98788ZM9.00647 8.11533C8.74644 8.11631 8.49704 8.21219 8.31115 8.38266L4.97782 11.3514L1.64449 14.3202C1.54608 14.4078 1.46772 14.5132 1.41417 14.6301C1.36062 14.747 1.33301 14.8729 1.33301 15.0001C1.33301 15.1273 1.36062 15.2532 1.41417 15.3701C1.46772 15.487 1.54608 15.5924 1.64449 15.68L8.31115 21.6175C8.40639 21.7023 8.51852 21.7687 8.64114 21.8129C8.76375 21.8571 8.89445 21.8783 9.02577 21.8751C9.15709 21.8719 9.28646 21.8445 9.40649 21.7945C9.52652 21.7445 9.63486 21.6727 9.72532 21.5834C9.81579 21.4941 9.8866 21.389 9.93372 21.2741C9.98084 21.1591 10.0033 21.0366 9.99995 20.9134C9.99656 20.7903 9.96733 20.6691 9.91393 20.5565C9.86054 20.444 9.78402 20.3425 9.68876 20.2577L3.78511 15.0001L9.68876 9.74252C9.83711 9.61441 9.94068 9.44724 9.98586 9.26295C10.031 9.07867 10.0157 8.88588 9.94195 8.70989C9.86816 8.53391 9.73933 8.38296 9.57238 8.27685C9.40543 8.17074 9.20816 8.11443 9.00647 8.11533ZM22.9635 8.11655C22.7646 8.12145 22.5718 8.18184 22.4098 8.29C22.2477 8.39816 22.1237 8.54918 22.0537 8.72374C21.9837 8.8983 21.9708 9.08848 22.0166 9.26996C22.0625 9.45144 22.165 9.61597 22.3112 9.74252L28.2148 15.0001L22.3112 20.2577C22.2159 20.3425 22.1394 20.444 22.086 20.5565C22.0326 20.6691 22.0034 20.7903 22 20.9134C21.9966 21.0366 22.0191 21.1591 22.0662 21.2741C22.1133 21.389 22.1841 21.4941 22.2746 21.5834C22.3651 21.6727 22.4734 21.7445 22.5934 21.7945C22.7135 21.8445 22.8428 21.8719 22.9741 21.8751C23.1055 21.8783 23.2362 21.8571 23.3588 21.8129C23.4814 21.7687 23.5935 21.7023 23.6888 21.6175L30.3554 15.68C30.4538 15.5924 30.5322 15.487 30.5857 15.3701C30.6393 15.2532 30.6669 15.1273 30.6669 15.0001C30.6669 14.8729 30.6393 14.747 30.5857 14.6301C30.5322 14.5132 30.4538 14.4078 30.3554 14.3202L23.6888 8.38266C23.593 8.29508 23.4795 8.22641 23.3549 8.1807C23.2303 8.13499 23.0972 8.11317 22.9635 8.11655Z" fill="black" fill-opacity="0.2"/>
<path d="M18.9895 4.98788C18.7764 4.99087 18.5699 5.05763 18.4001 5.1784C18.2302 5.29918 18.106 5.46766 18.0455 5.65927L12.0455 23.7843C12.0014 23.9031 11.9832 24.0289 11.992 24.1545C12.0009 24.28 12.0365 24.4025 12.0969 24.5148C12.1573 24.6272 12.2412 24.7269 12.3436 24.8082C12.446 24.8895 12.5648 24.9507 12.6929 24.988C12.821 25.0254 12.9558 25.0382 13.0894 25.0257C13.2229 25.0132 13.3523 24.9756 13.47 24.9152C13.5877 24.8549 13.6913 24.7729 13.7745 24.6742C13.8577 24.5756 13.9189 24.4622 13.9544 24.3409L19.9544 6.21591C20.0037 6.07411 20.0162 5.92334 19.9908 5.7761C19.9655 5.62886 19.9031 5.48942 19.8087 5.36934C19.7144 5.24925 19.5909 5.15201 19.4484 5.08566C19.3059 5.01932 19.1486 4.9858 18.9895 4.98788ZM9.00647 8.11533C8.74644 8.11631 8.49704 8.21219 8.31115 8.38266L4.97782 11.3514L1.64449 14.3202C1.54608 14.4078 1.46772 14.5132 1.41417 14.6301C1.36062 14.747 1.33301 14.8729 1.33301 15.0001C1.33301 15.1273 1.36062 15.2532 1.41417 15.3701C1.46772 15.487 1.54608 15.5924 1.64449 15.68L8.31115 21.6175C8.40639 21.7023 8.51852 21.7687 8.64114 21.8129C8.76375 21.8571 8.89445 21.8783 9.02577 21.8751C9.15709 21.8719 9.28646 21.8445 9.40649 21.7945C9.52652 21.7445 9.63486 21.6727 9.72532 21.5834C9.81579 21.4941 9.8866 21.389 9.93372 21.2741C9.98084 21.1591 10.0033 21.0366 9.99995 20.9134C9.99656 20.7903 9.96733 20.6691 9.91393 20.5565C9.86054 20.444 9.78402 20.3425 9.68876 20.2577L3.78511 15.0001L9.68876 9.74252C9.83711 9.61441 9.94068 9.44724 9.98586 9.26295C10.031 9.07867 10.0157 8.88588 9.94195 8.70989C9.86816 8.53391 9.73933 8.38296 9.57238 8.27685C9.40543 8.17074 9.20816 8.11443 9.00647 8.11533ZM22.9635 8.11655C22.7646 8.12145 22.5718 8.18184 22.4098 8.29C22.2477 8.39816 22.1237 8.54918 22.0537 8.72374C21.9837 8.8983 21.9708 9.08848 22.0166 9.26996C22.0625 9.45144 22.165 9.61597 22.3112 9.74252L28.2148 15.0001L22.3112 20.2577C22.2159 20.3425 22.1394 20.444 22.086 20.5565C22.0326 20.6691 22.0034 20.7903 22 20.9134C21.9966 21.0366 22.0191 21.1591 22.0662 21.2741C22.1133 21.389 22.1841 21.4941 22.2746 21.5834C22.3651 21.6727 22.4734 21.7445 22.5934 21.7945C22.7135 21.8445 22.8428 21.8719 22.9741 21.8751C23.1055 21.8783 23.2362 21.8571 23.3588 21.8129C23.4814 21.7687 23.5935 21.7023 23.6888 21.6175L30.3554 15.68C30.4538 15.5924 30.5322 15.487 30.5857 15.3701C30.6393 15.2532 30.6669 15.1273 30.6669 15.0001C30.6669 14.8729 30.6393 14.747 30.5857 14.6301C30.5322 14.5132 30.4538 14.4078 30.3554 14.3202L23.6888 8.38266C23.593 8.29508 23.4795 8.22641 23.3549 8.1807C23.2303 8.13499 23.0972 8.11317 22.9635 8.11655Z" fill="#8099FF" fill-opacity="0.12"/>
</svg>
