<svg width="30" height="30" viewBox="0 0 30 30" fill="none" xmlns="http://www.w3.org/2000/svg">
<path d="M7.8125 3.75C5.58004 3.75 3.75 5.58004 3.75 7.8125V22.1875C3.75 24.42 5.58004 26.25 7.8125 26.25H22.1875C24.42 26.25 26.25 24.42 26.25 22.1875V7.8125C26.25 5.58004 24.42 3.75 22.1875 3.75H7.8125ZM7.8125 5.625H22.1875C23.4063 5.625 24.375 6.59371 24.375 7.8125V8.75H5.625V7.8125C5.625 6.59371 6.59371 5.625 7.8125 5.625ZM5.625 10.625H24.375V22.1875C24.375 23.4063 23.4063 24.375 22.1875 24.375H7.8125C6.59371 24.375 5.625 23.4063 5.625 22.1875V10.625ZM11.2109 13.125C9.94031 13.125 8.90747 14.1412 8.90747 15.3906C8.90747 16.64 9.94031 17.6562 11.2109 17.6562H12.0703C12.4803 17.6562 12.8137 17.9719 12.8137 18.3594C12.8137 18.7469 12.4797 19.0625 12.0703 19.0625H10.9619C10.5519 19.0625 10.2452 18.8556 10.1746 18.7756C9.93269 18.425 9.4529 18.3325 9.0979 18.5693C8.73853 18.8081 8.64246 19.2933 8.88184 19.6521C9.20371 20.1358 10.0207 20.625 10.9607 20.625H12.0703C13.3416 20.625 14.3762 19.6088 14.3762 18.3594C14.3762 17.11 13.3409 16.0938 12.0703 16.0938H11.2109C10.8016 16.0938 10.47 15.7781 10.47 15.3906C10.47 15.0031 10.8016 14.6875 11.2109 14.6875H12.0325C12.4243 14.6875 12.6103 14.9338 12.6196 14.9451C12.8484 15.3113 13.3301 15.4241 13.6951 15.1941C14.0607 14.9653 14.1728 14.4831 13.9441 14.1174C13.8803 14.0162 13.2875 13.125 12.0312 13.125H11.2109ZM18.125 13.125C17.8044 13.125 17.5168 13.3206 17.3987 13.6194L15.0549 19.5569C14.8968 19.9588 15.0931 20.4119 15.4944 20.5701C15.8969 20.7288 16.3494 20.5319 16.5076 20.1306L16.7444 19.5312H19.5056L19.7424 20.1294C19.8637 20.4369 20.1569 20.625 20.4688 20.625C20.5644 20.625 20.6612 20.6069 20.7556 20.5701C21.1569 20.4113 21.3532 19.9581 21.1951 19.5569L18.8513 13.6194C18.7332 13.3206 18.4456 13.125 18.125 13.125ZM18.125 16.0339L18.8892 17.9688H17.3608L18.125 16.0339Z" fill="current"/>
</svg>
