<svg width="20" height="20" viewBox="0 0 20 20" fill="none" xmlns="http://www.w3.org/2000/svg">
<mask id="mask0_2238_7491" style="mask-type:alpha" maskUnits="userSpaceOnUse" x="0" y="0" width="20" height="20">
<rect width="20" height="20" fill="#D9D9D9"/>
</mask>
<g mask="url(#mask0_2238_7491)">
<path d="M15.6668 17.0208L11.0418 12.3958C10.6252 12.7153 10.146 12.9722 9.60433 13.1667C9.06266 13.3611 8.48627 13.4583 7.87516 13.4583C6.3335 13.4583 5.02794 12.92 3.9585 11.8433C2.88905 10.7672 2.35433 9.45833 2.35433 7.91667C2.35433 6.375 2.88905 5.06583 3.9585 3.98917C5.02794 2.91306 6.3335 2.375 7.87516 2.375C9.41683 2.375 10.726 2.91306 11.8027 3.98917C12.8788 5.06583 13.4168 6.375 13.4168 7.91667C13.4168 8.52778 13.3232 9.10417 13.136 9.64583C12.9482 10.1875 12.6946 10.6597 12.3752 11.0625L17.021 15.7292C17.1877 15.8958 17.271 16.1078 17.271 16.365C17.271 16.6217 17.1807 16.8403 17.0002 17.0208C16.8196 17.2014 16.5941 17.2917 16.3235 17.2917C16.0524 17.2917 15.8335 17.2014 15.6668 17.0208ZM7.87516 11.5417C8.88905 11.5417 9.75016 11.1908 10.4585 10.4892C11.1668 9.78805 11.521 8.93056 11.521 7.91667C11.521 6.90278 11.1668 6.045 10.4585 5.34333C9.75016 4.64222 8.88905 4.29167 7.87516 4.29167C6.86127 4.29167 6.00377 4.64222 5.30266 5.34333C4.601 6.045 4.25016 6.90278 4.25016 7.91667C4.25016 8.93056 4.601 9.78805 5.30266 10.4892C6.00377 11.1908 6.86127 11.5417 7.87516 11.5417Z" fill="white"/>
<path d="M15.6668 17.0208L11.0418 12.3958C10.6252 12.7153 10.146 12.9722 9.60433 13.1667C9.06266 13.3611 8.48627 13.4583 7.87516 13.4583C6.3335 13.4583 5.02794 12.92 3.9585 11.8433C2.88905 10.7672 2.35433 9.45833 2.35433 7.91667C2.35433 6.375 2.88905 5.06583 3.9585 3.98917C5.02794 2.91306 6.3335 2.375 7.87516 2.375C9.41683 2.375 10.726 2.91306 11.8027 3.98917C12.8788 5.06583 13.4168 6.375 13.4168 7.91667C13.4168 8.52778 13.3232 9.10417 13.136 9.64583C12.9482 10.1875 12.6946 10.6597 12.3752 11.0625L17.021 15.7292C17.1877 15.8958 17.271 16.1078 17.271 16.365C17.271 16.6217 17.1807 16.8403 17.0002 17.0208C16.8196 17.2014 16.5941 17.2917 16.3235 17.2917C16.0524 17.2917 15.8335 17.2014 15.6668 17.0208ZM7.87516 11.5417C8.88905 11.5417 9.75016 11.1908 10.4585 10.4892C11.1668 9.78805 11.521 8.93056 11.521 7.91667C11.521 6.90278 11.1668 6.045 10.4585 5.34333C9.75016 4.64222 8.88905 4.29167 7.87516 4.29167C6.86127 4.29167 6.00377 4.64222 5.30266 5.34333C4.601 6.045 4.25016 6.90278 4.25016 7.91667C4.25016 8.93056 4.601 9.78805 5.30266 10.4892C6.00377 11.1908 6.86127 11.5417 7.87516 11.5417Z" fill="black" fill-opacity="0.44"/>
<path d="M15.6668 17.0208L11.0418 12.3958C10.6252 12.7153 10.146 12.9722 9.60433 13.1667C9.06266 13.3611 8.48627 13.4583 7.87516 13.4583C6.3335 13.4583 5.02794 12.92 3.9585 11.8433C2.88905 10.7672 2.35433 9.45833 2.35433 7.91667C2.35433 6.375 2.88905 5.06583 3.9585 3.98917C5.02794 2.91306 6.3335 2.375 7.87516 2.375C9.41683 2.375 10.726 2.91306 11.8027 3.98917C12.8788 5.06583 13.4168 6.375 13.4168 7.91667C13.4168 8.52778 13.3232 9.10417 13.136 9.64583C12.9482 10.1875 12.6946 10.6597 12.3752 11.0625L17.021 15.7292C17.1877 15.8958 17.271 16.1078 17.271 16.365C17.271 16.6217 17.1807 16.8403 17.0002 17.0208C16.8196 17.2014 16.5941 17.2917 16.3235 17.2917C16.0524 17.2917 15.8335 17.2014 15.6668 17.0208ZM7.87516 11.5417C8.88905 11.5417 9.75016 11.1908 10.4585 10.4892C11.1668 9.78805 11.521 8.93056 11.521 7.91667C11.521 6.90278 11.1668 6.045 10.4585 5.34333C9.75016 4.64222 8.88905 4.29167 7.87516 4.29167C6.86127 4.29167 6.00377 4.64222 5.30266 5.34333C4.601 6.045 4.25016 6.90278 4.25016 7.91667C4.25016 8.93056 4.601 9.78805 5.30266 10.4892C6.00377 11.1908 6.86127 11.5417 7.87516 11.5417Z" fill="#8099FF" fill-opacity="0.15"/>
</g>
</svg>
