<svg width="32" height="30" viewBox="0 0 32 30" fill="none" xmlns="http://www.w3.org/2000/svg">
<path d="M15.9843 2.48644C15.7193 2.49032 15.4668 2.59265 15.2822 2.77095C15.0977 2.94925 14.9961 3.18894 14.9999 3.43737V4.37487H10.3333C8.68825 4.37487 7.33325 5.64518 7.33325 7.18737V12.8124C7.33325 14.3546 8.68825 15.6249 10.3333 15.6249H21.6666C23.3116 15.6249 24.6666 14.3546 24.6666 12.8124V7.18737C24.6666 5.64518 23.3116 4.37487 21.6666 4.37487H16.9999V3.43737C17.0018 3.31189 16.9769 3.18733 16.9265 3.07106C16.8761 2.9548 16.8014 2.8492 16.7066 2.76052C16.6119 2.67184 16.4992 2.60189 16.3751 2.55481C16.251 2.50773 16.1181 2.48448 15.9843 2.48644ZM10.3333 6.24987H21.6666C22.2309 6.24987 22.6666 6.65831 22.6666 7.18737V12.8124C22.6666 13.3414 22.2309 13.7499 21.6666 13.7499H10.3333C9.76892 13.7499 9.33325 13.3414 9.33325 12.8124V7.18737C9.33325 6.65831 9.76892 6.24987 10.3333 6.24987ZM12.9999 8.12487C12.5579 8.12487 12.134 8.28949 11.8214 8.58252C11.5088 8.87554 11.3333 9.27297 11.3333 9.68737C11.3333 10.1018 11.5088 10.4992 11.8214 10.7922C12.134 11.0852 12.5579 11.2499 12.9999 11.2499C13.4419 11.2499 13.8659 11.0852 14.1784 10.7922C14.491 10.4992 14.6666 10.1018 14.6666 9.68737C14.6666 9.27297 14.491 8.87554 14.1784 8.58252C13.8659 8.28949 13.4419 8.12487 12.9999 8.12487ZM18.9999 8.12487C18.5579 8.12487 18.134 8.28949 17.8214 8.58252C17.5088 8.87554 17.3333 9.27297 17.3333 9.68737C17.3333 10.1018 17.5088 10.4992 17.8214 10.7922C18.134 11.0852 18.5579 11.2499 18.9999 11.2499C19.4419 11.2499 19.8659 11.0852 20.1784 10.7922C20.491 10.4992 20.6666 10.1018 20.6666 9.68737C20.6666 9.27297 20.491 8.87554 20.1784 8.58252C19.8659 8.28949 19.4419 8.12487 18.9999 8.12487ZM8.33325 17.4999C6.68825 17.4999 5.33325 18.7702 5.33325 20.3124V20.7897C5.33325 22.2553 5.97471 23.6633 7.12492 24.6678C7.12492 24.6682 7.12492 24.6687 7.12492 24.6691C8.67424 26.0214 11.478 27.4999 15.9999 27.4999C20.5218 27.4999 23.3255 26.021 24.8749 24.6678C26.0249 23.6635 26.6666 22.2546 26.6666 20.7884V20.3124C26.6666 18.7702 25.3116 17.4999 23.6666 17.4999H8.33325ZM8.33325 19.3749H23.6666C24.2309 19.3749 24.6666 19.7833 24.6666 20.3124V20.7884C24.6666 21.7435 24.2522 22.6501 23.5129 23.2958C22.2957 24.3588 20.0673 25.6249 15.9999 25.6249C11.9325 25.6249 9.70424 24.3584 8.4869 23.2958C7.74828 22.6503 7.33325 21.7436 7.33325 20.7897V20.3124C7.33325 19.7833 7.76892 19.3749 8.33325 19.3749Z" fill="current"/>
<path d="M15.9843 2.48644C15.7193 2.49032 15.4668 2.59265 15.2822 2.77095C15.0977 2.94925 14.9961 3.18894 14.9999 3.43737V4.37487H10.3333C8.68825 4.37487 7.33325 5.64518 7.33325 7.18737V12.8124C7.33325 14.3546 8.68825 15.6249 10.3333 15.6249H21.6666C23.3116 15.6249 24.6666 14.3546 24.6666 12.8124V7.18737C24.6666 5.64518 23.3116 4.37487 21.6666 4.37487H16.9999V3.43737C17.0018 3.31189 16.9769 3.18733 16.9265 3.07106C16.8761 2.9548 16.8014 2.8492 16.7066 2.76052C16.6119 2.67184 16.4992 2.60189 16.3751 2.55481C16.251 2.50773 16.1181 2.48448 15.9843 2.48644ZM10.3333 6.24987H21.6666C22.2309 6.24987 22.6666 6.65831 22.6666 7.18737V12.8124C22.6666 13.3414 22.2309 13.7499 21.6666 13.7499H10.3333C9.76892 13.7499 9.33325 13.3414 9.33325 12.8124V7.18737C9.33325 6.65831 9.76892 6.24987 10.3333 6.24987ZM12.9999 8.12487C12.5579 8.12487 12.134 8.28949 11.8214 8.58252C11.5088 8.87554 11.3333 9.27297 11.3333 9.68737C11.3333 10.1018 11.5088 10.4992 11.8214 10.7922C12.134 11.0852 12.5579 11.2499 12.9999 11.2499C13.4419 11.2499 13.8659 11.0852 14.1784 10.7922C14.491 10.4992 14.6666 10.1018 14.6666 9.68737C14.6666 9.27297 14.491 8.87554 14.1784 8.58252C13.8659 8.28949 13.4419 8.12487 12.9999 8.12487ZM18.9999 8.12487C18.5579 8.12487 18.134 8.28949 17.8214 8.58252C17.5088 8.87554 17.3333 9.27297 17.3333 9.68737C17.3333 10.1018 17.5088 10.4992 17.8214 10.7922C18.134 11.0852 18.5579 11.2499 18.9999 11.2499C19.4419 11.2499 19.8659 11.0852 20.1784 10.7922C20.491 10.4992 20.6666 10.1018 20.6666 9.68737C20.6666 9.27297 20.491 8.87554 20.1784 8.58252C19.8659 8.28949 19.4419 8.12487 18.9999 8.12487ZM8.33325 17.4999C6.68825 17.4999 5.33325 18.7702 5.33325 20.3124V20.7897C5.33325 22.2553 5.97471 23.6633 7.12492 24.6678C7.12492 24.6682 7.12492 24.6687 7.12492 24.6691C8.67424 26.0214 11.478 27.4999 15.9999 27.4999C20.5218 27.4999 23.3255 26.021 24.8749 24.6678C26.0249 23.6635 26.6666 22.2546 26.6666 20.7884V20.3124C26.6666 18.7702 25.3116 17.4999 23.6666 17.4999H8.33325ZM8.33325 19.3749H23.6666C24.2309 19.3749 24.6666 19.7833 24.6666 20.3124V20.7884C24.6666 21.7435 24.2522 22.6501 23.5129 23.2958C22.2957 24.3588 20.0673 25.6249 15.9999 25.6249C11.9325 25.6249 9.70424 24.3584 8.4869 23.2958C7.74828 22.6503 7.33325 21.7436 7.33325 20.7897V20.3124C7.33325 19.7833 7.76892 19.3749 8.33325 19.3749Z" fill="current" fill-opacity="0.2"/>
<path d="M15.9843 2.48644C15.7193 2.49032 15.4668 2.59265 15.2822 2.77095C15.0977 2.94925 14.9961 3.18894 14.9999 3.43737V4.37487H10.3333C8.68825 4.37487 7.33325 5.64518 7.33325 7.18737V12.8124C7.33325 14.3546 8.68825 15.6249 10.3333 15.6249H21.6666C23.3116 15.6249 24.6666 14.3546 24.6666 12.8124V7.18737C24.6666 5.64518 23.3116 4.37487 21.6666 4.37487H16.9999V3.43737C17.0018 3.31189 16.9769 3.18733 16.9265 3.07106C16.8761 2.9548 16.8014 2.8492 16.7066 2.76052C16.6119 2.67184 16.4992 2.60189 16.3751 2.55481C16.251 2.50773 16.1181 2.48448 15.9843 2.48644ZM10.3333 6.24987H21.6666C22.2309 6.24987 22.6666 6.65831 22.6666 7.18737V12.8124C22.6666 13.3414 22.2309 13.7499 21.6666 13.7499H10.3333C9.76892 13.7499 9.33325 13.3414 9.33325 12.8124V7.18737C9.33325 6.65831 9.76892 6.24987 10.3333 6.24987ZM12.9999 8.12487C12.5579 8.12487 12.134 8.28949 11.8214 8.58252C11.5088 8.87554 11.3333 9.27297 11.3333 9.68737C11.3333 10.1018 11.5088 10.4992 11.8214 10.7922C12.134 11.0852 12.5579 11.2499 12.9999 11.2499C13.4419 11.2499 13.8659 11.0852 14.1784 10.7922C14.491 10.4992 14.6666 10.1018 14.6666 9.68737C14.6666 9.27297 14.491 8.87554 14.1784 8.58252C13.8659 8.28949 13.4419 8.12487 12.9999 8.12487ZM18.9999 8.12487C18.5579 8.12487 18.134 8.28949 17.8214 8.58252C17.5088 8.87554 17.3333 9.27297 17.3333 9.68737C17.3333 10.1018 17.5088 10.4992 17.8214 10.7922C18.134 11.0852 18.5579 11.2499 18.9999 11.2499C19.4419 11.2499 19.8659 11.0852 20.1784 10.7922C20.491 10.4992 20.6666 10.1018 20.6666 9.68737C20.6666 9.27297 20.491 8.87554 20.1784 8.58252C19.8659 8.28949 19.4419 8.12487 18.9999 8.12487ZM8.33325 17.4999C6.68825 17.4999 5.33325 18.7702 5.33325 20.3124V20.7897C5.33325 22.2553 5.97471 23.6633 7.12492 24.6678C7.12492 24.6682 7.12492 24.6687 7.12492 24.6691C8.67424 26.0214 11.478 27.4999 15.9999 27.4999C20.5218 27.4999 23.3255 26.021 24.8749 24.6678C26.0249 23.6635 26.6666 22.2546 26.6666 20.7884V20.3124C26.6666 18.7702 25.3116 17.4999 23.6666 17.4999H8.33325ZM8.33325 19.3749H23.6666C24.2309 19.3749 24.6666 19.7833 24.6666 20.3124V20.7884C24.6666 21.7435 24.2522 22.6501 23.5129 23.2958C22.2957 24.3588 20.0673 25.6249 15.9999 25.6249C11.9325 25.6249 9.70424 24.3584 8.4869 23.2958C7.74828 22.6503 7.33325 21.7436 7.33325 20.7897V20.3124C7.33325 19.7833 7.76892 19.3749 8.33325 19.3749Z" fill="current" fill-opacity="0.12"/>
</svg>
