<svg width="32" height="30" viewBox="0 0 32 30" fill="none" xmlns="http://www.w3.org/2000/svg">
<path d="M9.11462 3.13086C8.51542 3.13086 7.91625 3.34247 7.46488 3.76562L4.01696 6.99805C3.11422 7.84437 3.11422 9.24499 4.01696 10.0913L9.32686 15.0693L5.94405 18.2395C5.66406 18.502 5.45901 18.8284 5.3503 19.1868L3.37243 25.6797C3.32365 25.8404 3.32155 26.0103 3.36633 26.172C3.41111 26.3337 3.50116 26.4812 3.62715 26.5993C3.75315 26.7175 3.91051 26.8019 4.08298 26.8439C4.25544 26.8858 4.43673 26.8839 4.60811 26.8381L11.5352 24.9839C11.5356 24.9835 11.5361 24.9831 11.5365 24.9827C11.9162 24.8803 12.2635 24.6905 12.5443 24.4272L27.2995 10.593C29.1136 8.89231 29.1136 6.1072 27.2995 4.40649C26.3928 3.55609 25.1965 3.13086 24 3.13086C22.8036 3.13086 21.6072 3.55609 20.7006 4.40649L16.0743 8.74365L14.8177 7.56567C14.7557 7.48551 14.6806 7.41505 14.5951 7.35693L12.1511 5.06567C12.0891 4.98551 12.0139 4.91505 11.9284 4.85693L10.7644 3.76562C10.313 3.34247 9.71382 3.13086 9.11462 3.13086ZM9.11462 4.99365C9.19781 4.99365 9.281 5.02634 9.3503 5.09131L9.91931 5.62476L9.62634 5.89941C9.53037 5.9858 9.45375 6.08927 9.40096 6.20377C9.34818 6.31826 9.3203 6.44148 9.31894 6.5662C9.31759 6.69093 9.3428 6.81465 9.39309 6.93013C9.44338 7.04561 9.51774 7.15052 9.61181 7.23871C9.70589 7.32691 9.8178 7.39663 9.94097 7.44377C10.0641 7.49092 10.1961 7.51455 10.3292 7.51328C10.4622 7.51201 10.5936 7.48587 10.7158 7.43639C10.8379 7.3869 10.9483 7.31507 11.0404 7.2251L11.3334 6.95044L12.586 8.12476L12.293 8.39941C12.197 8.4858 12.1204 8.58927 12.0676 8.70377C12.0148 8.81826 11.987 8.94148 11.9856 9.0662C11.9843 9.19093 12.0095 9.31465 12.0598 9.43013C12.11 9.54561 12.1844 9.65052 12.2785 9.73871C12.3726 9.82691 12.4845 9.89662 12.6076 9.94377C12.7308 9.99092 12.8628 10.0145 12.9958 10.0133C13.1289 10.012 13.2603 9.98587 13.3824 9.93639C13.5046 9.8869 13.6149 9.81507 13.7071 9.7251L14 9.45044L14.6602 10.0693L10.7409 13.7437L5.43103 8.76562C5.29243 8.63569 5.29243 8.45366 5.43103 8.32373L8.87894 5.09131C8.94824 5.02634 9.03143 4.99365 9.11462 4.99365ZM24 4.99487C24.6806 4.99487 25.3602 5.24071 25.8841 5.73218C25.8846 5.73218 25.885 5.73218 25.8854 5.73218C26.9354 6.71647 26.9354 8.28304 25.8854 9.26733L24.5925 10.4795L20.8216 6.94434L22.1146 5.73218C22.6386 5.24071 23.3195 4.99487 24 4.99487ZM19.4076 8.27002L23.1784 11.8052L11.1289 23.1016C11.0899 23.138 11.0404 23.1658 10.9844 23.1809L5.7891 24.5725L7.27347 19.7007C7.27347 19.7003 7.27347 19.6999 7.27347 19.6995C7.28876 19.6491 7.31676 19.6039 7.35811 19.5652L19.4076 8.27002ZM24.0404 16.2119L22.6263 17.5376L24.586 19.3748L24.293 19.6494C24.197 19.7358 24.1204 19.8393 24.0676 19.9538C24.0148 20.0683 23.987 20.1915 23.9856 20.3162C23.9843 20.4409 24.0095 20.5647 24.0598 20.6801C24.11 20.7956 24.1844 20.9005 24.2785 20.9887C24.3726 21.0769 24.4845 21.1466 24.6076 21.1938C24.7308 21.2409 24.8628 21.2645 24.9958 21.2633C25.1289 21.262 25.2603 21.2359 25.3824 21.1864C25.5045 21.1369 25.6149 21.0651 25.7071 20.9751L26 20.7004L26.6836 21.3413C26.8222 21.4712 26.8222 21.6533 26.6836 21.7832L23.2357 25.0156C23.0971 25.1456 22.903 25.1456 22.7644 25.0156L18.7071 21.2119L17.293 22.5376L21.3503 26.3413C22.253 27.1876 23.747 27.1876 24.6498 26.3413L28.0977 23.1089C29.0004 22.2626 29.0004 20.8619 28.0977 20.0156L26.8177 18.8157C26.7557 18.7355 26.6806 18.6651 26.5951 18.6069L24.0404 16.2119Z" fill="current"/>
<path d="M9.11462 3.13086C8.51542 3.13086 7.91625 3.34247 7.46488 3.76562L4.01696 6.99805C3.11422 7.84437 3.11422 9.24499 4.01696 10.0913L9.32686 15.0693L5.94405 18.2395C5.66406 18.502 5.45901 18.8284 5.3503 19.1868L3.37243 25.6797C3.32365 25.8404 3.32155 26.0103 3.36633 26.172C3.41111 26.3337 3.50116 26.4812 3.62715 26.5993C3.75315 26.7175 3.91051 26.8019 4.08298 26.8439C4.25544 26.8858 4.43673 26.8839 4.60811 26.8381L11.5352 24.9839C11.5356 24.9835 11.5361 24.9831 11.5365 24.9827C11.9162 24.8803 12.2635 24.6905 12.5443 24.4272L27.2995 10.593C29.1136 8.89231 29.1136 6.1072 27.2995 4.40649C26.3928 3.55609 25.1965 3.13086 24 3.13086C22.8036 3.13086 21.6072 3.55609 20.7006 4.40649L16.0743 8.74365L14.8177 7.56567C14.7557 7.48551 14.6806 7.41505 14.5951 7.35693L12.1511 5.06567C12.0891 4.98551 12.0139 4.91505 11.9284 4.85693L10.7644 3.76562C10.313 3.34247 9.71382 3.13086 9.11462 3.13086ZM9.11462 4.99365C9.19781 4.99365 9.281 5.02634 9.3503 5.09131L9.91931 5.62476L9.62634 5.89941C9.53037 5.9858 9.45375 6.08927 9.40096 6.20377C9.34818 6.31826 9.3203 6.44148 9.31894 6.5662C9.31759 6.69093 9.3428 6.81465 9.39309 6.93013C9.44338 7.04561 9.51774 7.15052 9.61181 7.23871C9.70589 7.32691 9.8178 7.39663 9.94097 7.44377C10.0641 7.49092 10.1961 7.51455 10.3292 7.51328C10.4622 7.51201 10.5936 7.48587 10.7158 7.43639C10.8379 7.3869 10.9483 7.31507 11.0404 7.2251L11.3334 6.95044L12.586 8.12476L12.293 8.39941C12.197 8.4858 12.1204 8.58927 12.0676 8.70377C12.0148 8.81826 11.987 8.94148 11.9856 9.0662C11.9843 9.19093 12.0095 9.31465 12.0598 9.43013C12.11 9.54561 12.1844 9.65052 12.2785 9.73871C12.3726 9.82691 12.4845 9.89662 12.6076 9.94377C12.7308 9.99092 12.8628 10.0145 12.9958 10.0133C13.1289 10.012 13.2603 9.98587 13.3824 9.93639C13.5046 9.8869 13.6149 9.81507 13.7071 9.7251L14 9.45044L14.6602 10.0693L10.7409 13.7437L5.43103 8.76562C5.29243 8.63569 5.29243 8.45366 5.43103 8.32373L8.87894 5.09131C8.94824 5.02634 9.03143 4.99365 9.11462 4.99365ZM24 4.99487C24.6806 4.99487 25.3602 5.24071 25.8841 5.73218C25.8846 5.73218 25.885 5.73218 25.8854 5.73218C26.9354 6.71647 26.9354 8.28304 25.8854 9.26733L24.5925 10.4795L20.8216 6.94434L22.1146 5.73218C22.6386 5.24071 23.3195 4.99487 24 4.99487ZM19.4076 8.27002L23.1784 11.8052L11.1289 23.1016C11.0899 23.138 11.0404 23.1658 10.9844 23.1809L5.7891 24.5725L7.27347 19.7007C7.27347 19.7003 7.27347 19.6999 7.27347 19.6995C7.28876 19.6491 7.31676 19.6039 7.35811 19.5652L19.4076 8.27002ZM24.0404 16.2119L22.6263 17.5376L24.586 19.3748L24.293 19.6494C24.197 19.7358 24.1204 19.8393 24.0676 19.9538C24.0148 20.0683 23.987 20.1915 23.9856 20.3162C23.9843 20.4409 24.0095 20.5647 24.0598 20.6801C24.11 20.7956 24.1844 20.9005 24.2785 20.9887C24.3726 21.0769 24.4845 21.1466 24.6076 21.1938C24.7308 21.2409 24.8628 21.2645 24.9958 21.2633C25.1289 21.262 25.2603 21.2359 25.3824 21.1864C25.5045 21.1369 25.6149 21.0651 25.7071 20.9751L26 20.7004L26.6836 21.3413C26.8222 21.4712 26.8222 21.6533 26.6836 21.7832L23.2357 25.0156C23.0971 25.1456 22.903 25.1456 22.7644 25.0156L18.7071 21.2119L17.293 22.5376L21.3503 26.3413C22.253 27.1876 23.747 27.1876 24.6498 26.3413L28.0977 23.1089C29.0004 22.2626 29.0004 20.8619 28.0977 20.0156L26.8177 18.8157C26.7557 18.7355 26.6806 18.6651 26.5951 18.6069L24.0404 16.2119Z" fill="current" fill-opacity="0.2"/>
<path d="M9.11462 3.13086C8.51542 3.13086 7.91625 3.34247 7.46488 3.76562L4.01696 6.99805C3.11422 7.84437 3.11422 9.24499 4.01696 10.0913L9.32686 15.0693L5.94405 18.2395C5.66406 18.502 5.45901 18.8284 5.3503 19.1868L3.37243 25.6797C3.32365 25.8404 3.32155 26.0103 3.36633 26.172C3.41111 26.3337 3.50116 26.4812 3.62715 26.5993C3.75315 26.7175 3.91051 26.8019 4.08298 26.8439C4.25544 26.8858 4.43673 26.8839 4.60811 26.8381L11.5352 24.9839C11.5356 24.9835 11.5361 24.9831 11.5365 24.9827C11.9162 24.8803 12.2635 24.6905 12.5443 24.4272L27.2995 10.593C29.1136 8.89231 29.1136 6.1072 27.2995 4.40649C26.3928 3.55609 25.1965 3.13086 24 3.13086C22.8036 3.13086 21.6072 3.55609 20.7006 4.40649L16.0743 8.74365L14.8177 7.56567C14.7557 7.48551 14.6806 7.41505 14.5951 7.35693L12.1511 5.06567C12.0891 4.98551 12.0139 4.91505 11.9284 4.85693L10.7644 3.76562C10.313 3.34247 9.71382 3.13086 9.11462 3.13086ZM9.11462 4.99365C9.19781 4.99365 9.281 5.02634 9.3503 5.09131L9.91931 5.62476L9.62634 5.89941C9.53037 5.9858 9.45375 6.08927 9.40096 6.20377C9.34818 6.31826 9.3203 6.44148 9.31894 6.5662C9.31759 6.69093 9.3428 6.81465 9.39309 6.93013C9.44338 7.04561 9.51774 7.15052 9.61181 7.23871C9.70589 7.32691 9.8178 7.39663 9.94097 7.44377C10.0641 7.49092 10.1961 7.51455 10.3292 7.51328C10.4622 7.51201 10.5936 7.48587 10.7158 7.43639C10.8379 7.3869 10.9483 7.31507 11.0404 7.2251L11.3334 6.95044L12.586 8.12476L12.293 8.39941C12.197 8.4858 12.1204 8.58927 12.0676 8.70377C12.0148 8.81826 11.987 8.94148 11.9856 9.0662C11.9843 9.19093 12.0095 9.31465 12.0598 9.43013C12.11 9.54561 12.1844 9.65052 12.2785 9.73871C12.3726 9.82691 12.4845 9.89662 12.6076 9.94377C12.7308 9.99092 12.8628 10.0145 12.9958 10.0133C13.1289 10.012 13.2603 9.98587 13.3824 9.93639C13.5046 9.8869 13.6149 9.81507 13.7071 9.7251L14 9.45044L14.6602 10.0693L10.7409 13.7437L5.43103 8.76562C5.29243 8.63569 5.29243 8.45366 5.43103 8.32373L8.87894 5.09131C8.94824 5.02634 9.03143 4.99365 9.11462 4.99365ZM24 4.99487C24.6806 4.99487 25.3602 5.24071 25.8841 5.73218C25.8846 5.73218 25.885 5.73218 25.8854 5.73218C26.9354 6.71647 26.9354 8.28304 25.8854 9.26733L24.5925 10.4795L20.8216 6.94434L22.1146 5.73218C22.6386 5.24071 23.3195 4.99487 24 4.99487ZM19.4076 8.27002L23.1784 11.8052L11.1289 23.1016C11.0899 23.138 11.0404 23.1658 10.9844 23.1809L5.7891 24.5725L7.27347 19.7007C7.27347 19.7003 7.27347 19.6999 7.27347 19.6995C7.28876 19.6491 7.31676 19.6039 7.35811 19.5652L19.4076 8.27002ZM24.0404 16.2119L22.6263 17.5376L24.586 19.3748L24.293 19.6494C24.197 19.7358 24.1204 19.8393 24.0676 19.9538C24.0148 20.0683 23.987 20.1915 23.9856 20.3162C23.9843 20.4409 24.0095 20.5647 24.0598 20.6801C24.11 20.7956 24.1844 20.9005 24.2785 20.9887C24.3726 21.0769 24.4845 21.1466 24.6076 21.1938C24.7308 21.2409 24.8628 21.2645 24.9958 21.2633C25.1289 21.262 25.2603 21.2359 25.3824 21.1864C25.5045 21.1369 25.6149 21.0651 25.7071 20.9751L26 20.7004L26.6836 21.3413C26.8222 21.4712 26.8222 21.6533 26.6836 21.7832L23.2357 25.0156C23.0971 25.1456 22.903 25.1456 22.7644 25.0156L18.7071 21.2119L17.293 22.5376L21.3503 26.3413C22.253 27.1876 23.747 27.1876 24.6498 26.3413L28.0977 23.1089C29.0004 22.2626 29.0004 20.8619 28.0977 20.0156L26.8177 18.8157C26.7557 18.7355 26.6806 18.6651 26.5951 18.6069L24.0404 16.2119Z" fill="current" fill-opacity="0.12"/>
</svg>
