<svg width="24" height="24" viewBox="0 0 24 24" fill="none" xmlns="http://www.w3.org/2000/svg">
<mask id="mask0_2244_6066" style="mask-type:alpha" maskUnits="userSpaceOnUse" x="0" y="0" width="24" height="24">
<rect width="24" height="24" fill="#D9D9D9"/>
</mask>
<g mask="url(#mask0_2244_6066)">
<path d="M7.9999 20.2752C7.36657 20.2752 6.82924 20.0542 6.3879 19.6122C5.9459 19.1709 5.7249 18.6335 5.7249 18.0002V16.0752C5.7249 15.7585 5.83324 15.4919 6.0499 15.2752C6.26657 15.0585 6.53324 14.9502 6.8499 14.9502H8.7999V12.7002C8.23324 12.6502 7.69157 12.5125 7.1749 12.2872C6.65824 12.0625 6.18324 11.7252 5.7499 11.2752V10.2002H4.6499L2.1749 7.72519C1.90824 7.45853 1.7749 7.1792 1.7749 6.8872C1.7749 6.59586 1.90824 6.33353 2.1749 6.1002C2.6749 5.66686 3.28757 5.33353 4.0129 5.1002C4.73757 4.86686 5.4999 4.7502 6.2999 4.7502C6.73324 4.7502 7.1539 4.78353 7.5619 4.8502C7.97057 4.91686 8.38324 5.03353 8.7999 5.2002V4.8502C8.7999 4.53353 8.90824 4.26253 9.1249 4.0372C9.34157 3.81253 9.60824 3.7002 9.9249 3.7002H20.0749C20.3916 3.7002 20.6582 3.81253 20.8749 4.0372C21.0916 4.26253 21.1999 4.53353 21.1999 4.8502V17.0752C21.1999 17.9585 20.8876 18.7125 20.2629 19.3372C19.6376 19.9625 18.8832 20.2752 17.9999 20.2752H7.9999ZM11.0749 14.9502H15.9249C16.2582 14.9502 16.5332 15.0585 16.7499 15.2752C16.9666 15.4919 17.0749 15.7585 17.0749 16.0752V17.0752C17.0749 17.3419 17.1622 17.5629 17.3369 17.7382C17.5122 17.9129 17.7332 18.0002 17.9999 18.0002C18.2666 18.0002 18.4876 17.9129 18.6629 17.7382C18.8376 17.5629 18.9249 17.3419 18.9249 17.0752V5.9752H11.0749V6.6002L16.5249 12.0502C16.6582 12.1835 16.7459 12.3042 16.7879 12.4122C16.8292 12.5209 16.8499 12.6585 16.8499 12.8252C16.8499 13.1085 16.7499 13.3502 16.5499 13.5502C16.3499 13.7502 16.1082 13.8502 15.8249 13.8502C15.6582 13.8502 15.5209 13.8292 15.4129 13.7872C15.3042 13.7459 15.1916 13.6585 15.0749 13.5252L12.6499 11.1252L12.4999 11.2752C12.2832 11.4919 12.0539 11.6879 11.8119 11.8632C11.5706 12.0379 11.3249 12.1752 11.0749 12.2752V14.9502ZM5.5249 8.1002H7.8499V10.2752C8.0499 10.3919 8.25424 10.4752 8.4629 10.5252C8.6709 10.5752 8.88324 10.6002 9.0999 10.6002C9.48324 10.6002 9.8249 10.5462 10.1249 10.4382C10.4249 10.3295 10.7166 10.1335 10.9999 9.8502L11.1749 9.6502L9.8249 8.3002C9.34157 7.81686 8.80424 7.4542 8.2129 7.2122C7.6209 6.97086 6.98324 6.8502 6.2999 6.8502C5.98324 6.8502 5.68324 6.8752 5.3999 6.9252C5.11657 6.9752 4.83324 7.04186 4.5499 7.1252L5.5249 8.1002Z" fill="white"/>
<path d="M7.9999 20.2752C7.36657 20.2752 6.82924 20.0542 6.3879 19.6122C5.9459 19.1709 5.7249 18.6335 5.7249 18.0002V16.0752C5.7249 15.7585 5.83324 15.4919 6.0499 15.2752C6.26657 15.0585 6.53324 14.9502 6.8499 14.9502H8.7999V12.7002C8.23324 12.6502 7.69157 12.5125 7.1749 12.2872C6.65824 12.0625 6.18324 11.7252 5.7499 11.2752V10.2002H4.6499L2.1749 7.72519C1.90824 7.45853 1.7749 7.1792 1.7749 6.8872C1.7749 6.59586 1.90824 6.33353 2.1749 6.1002C2.6749 5.66686 3.28757 5.33353 4.0129 5.1002C4.73757 4.86686 5.4999 4.7502 6.2999 4.7502C6.73324 4.7502 7.1539 4.78353 7.5619 4.8502C7.97057 4.91686 8.38324 5.03353 8.7999 5.2002V4.8502C8.7999 4.53353 8.90824 4.26253 9.1249 4.0372C9.34157 3.81253 9.60824 3.7002 9.9249 3.7002H20.0749C20.3916 3.7002 20.6582 3.81253 20.8749 4.0372C21.0916 4.26253 21.1999 4.53353 21.1999 4.8502V17.0752C21.1999 17.9585 20.8876 18.7125 20.2629 19.3372C19.6376 19.9625 18.8832 20.2752 17.9999 20.2752H7.9999ZM11.0749 14.9502H15.9249C16.2582 14.9502 16.5332 15.0585 16.7499 15.2752C16.9666 15.4919 17.0749 15.7585 17.0749 16.0752V17.0752C17.0749 17.3419 17.1622 17.5629 17.3369 17.7382C17.5122 17.9129 17.7332 18.0002 17.9999 18.0002C18.2666 18.0002 18.4876 17.9129 18.6629 17.7382C18.8376 17.5629 18.9249 17.3419 18.9249 17.0752V5.9752H11.0749V6.6002L16.5249 12.0502C16.6582 12.1835 16.7459 12.3042 16.7879 12.4122C16.8292 12.5209 16.8499 12.6585 16.8499 12.8252C16.8499 13.1085 16.7499 13.3502 16.5499 13.5502C16.3499 13.7502 16.1082 13.8502 15.8249 13.8502C15.6582 13.8502 15.5209 13.8292 15.4129 13.7872C15.3042 13.7459 15.1916 13.6585 15.0749 13.5252L12.6499 11.1252L12.4999 11.2752C12.2832 11.4919 12.0539 11.6879 11.8119 11.8632C11.5706 12.0379 11.3249 12.1752 11.0749 12.2752V14.9502ZM5.5249 8.1002H7.8499V10.2752C8.0499 10.3919 8.25424 10.4752 8.4629 10.5252C8.6709 10.5752 8.88324 10.6002 9.0999 10.6002C9.48324 10.6002 9.8249 10.5462 10.1249 10.4382C10.4249 10.3295 10.7166 10.1335 10.9999 9.8502L11.1749 9.6502L9.8249 8.3002C9.34157 7.81686 8.80424 7.4542 8.2129 7.2122C7.6209 6.97086 6.98324 6.8502 6.2999 6.8502C5.98324 6.8502 5.68324 6.8752 5.3999 6.9252C5.11657 6.9752 4.83324 7.04186 4.5499 7.1252L5.5249 8.1002Z" fill="black" fill-opacity="0.44"/>
<path d="M7.9999 20.2752C7.36657 20.2752 6.82924 20.0542 6.3879 19.6122C5.9459 19.1709 5.7249 18.6335 5.7249 18.0002V16.0752C5.7249 15.7585 5.83324 15.4919 6.0499 15.2752C6.26657 15.0585 6.53324 14.9502 6.8499 14.9502H8.7999V12.7002C8.23324 12.6502 7.69157 12.5125 7.1749 12.2872C6.65824 12.0625 6.18324 11.7252 5.7499 11.2752V10.2002H4.6499L2.1749 7.72519C1.90824 7.45853 1.7749 7.1792 1.7749 6.8872C1.7749 6.59586 1.90824 6.33353 2.1749 6.1002C2.6749 5.66686 3.28757 5.33353 4.0129 5.1002C4.73757 4.86686 5.4999 4.7502 6.2999 4.7502C6.73324 4.7502 7.1539 4.78353 7.5619 4.8502C7.97057 4.91686 8.38324 5.03353 8.7999 5.2002V4.8502C8.7999 4.53353 8.90824 4.26253 9.1249 4.0372C9.34157 3.81253 9.60824 3.7002 9.9249 3.7002H20.0749C20.3916 3.7002 20.6582 3.81253 20.8749 4.0372C21.0916 4.26253 21.1999 4.53353 21.1999 4.8502V17.0752C21.1999 17.9585 20.8876 18.7125 20.2629 19.3372C19.6376 19.9625 18.8832 20.2752 17.9999 20.2752H7.9999ZM11.0749 14.9502H15.9249C16.2582 14.9502 16.5332 15.0585 16.7499 15.2752C16.9666 15.4919 17.0749 15.7585 17.0749 16.0752V17.0752C17.0749 17.3419 17.1622 17.5629 17.3369 17.7382C17.5122 17.9129 17.7332 18.0002 17.9999 18.0002C18.2666 18.0002 18.4876 17.9129 18.6629 17.7382C18.8376 17.5629 18.9249 17.3419 18.9249 17.0752V5.9752H11.0749V6.6002L16.5249 12.0502C16.6582 12.1835 16.7459 12.3042 16.7879 12.4122C16.8292 12.5209 16.8499 12.6585 16.8499 12.8252C16.8499 13.1085 16.7499 13.3502 16.5499 13.5502C16.3499 13.7502 16.1082 13.8502 15.8249 13.8502C15.6582 13.8502 15.5209 13.8292 15.4129 13.7872C15.3042 13.7459 15.1916 13.6585 15.0749 13.5252L12.6499 11.1252L12.4999 11.2752C12.2832 11.4919 12.0539 11.6879 11.8119 11.8632C11.5706 12.0379 11.3249 12.1752 11.0749 12.2752V14.9502ZM5.5249 8.1002H7.8499V10.2752C8.0499 10.3919 8.25424 10.4752 8.4629 10.5252C8.6709 10.5752 8.88324 10.6002 9.0999 10.6002C9.48324 10.6002 9.8249 10.5462 10.1249 10.4382C10.4249 10.3295 10.7166 10.1335 10.9999 9.8502L11.1749 9.6502L9.8249 8.3002C9.34157 7.81686 8.80424 7.4542 8.2129 7.2122C7.6209 6.97086 6.98324 6.8502 6.2999 6.8502C5.98324 6.8502 5.68324 6.8752 5.3999 6.9252C5.11657 6.9752 4.83324 7.04186 4.5499 7.1252L5.5249 8.1002Z" fill="#8099FF" fill-opacity="0.15"/>
</g>
</svg>
