<svg width="24" height="24" viewBox="0 0 30 30" fill="none" xmlns="http://www.w3.org/2000/svg">
<path d="M7.8125 3.75C5.58004 3.75 3.75 5.58004 3.75 7.8125V22.1875C3.75 24.42 5.58004 26.25 7.8125 26.25H22.1875C24.42 26.25 26.25 24.42 26.25 22.1875V7.8125C26.25 5.58004 24.42 3.75 22.1875 3.75H7.8125ZM7.8125 5.625H22.1875C23.4063 5.625 24.375 6.59371 24.375 7.8125V8.75H5.625V7.8125C5.625 6.59371 6.59371 5.625 7.8125 5.625ZM5.625 10.625H24.375V22.1875C24.375 23.4063 23.4063 24.375 22.1875 24.375H7.8125C6.59371 24.375 5.625 23.4063 5.625 22.1875V10.625ZM8.90625 13.125C8.475 13.125 8.125 13.475 8.125 13.9062C8.125 14.3375 8.475 14.6875 8.90625 14.6875H10.3125V19.8438C10.3125 20.275 10.6625 20.625 11.0938 20.625C11.525 20.625 11.875 20.275 11.875 19.8438V14.6875H12.9688C13.4 14.6875 13.75 14.3375 13.75 13.9062C13.75 13.475 13.4 13.125 12.9688 13.125H8.90625ZM15.7812 13.125C15.35 13.125 15 13.475 15 13.9062V17.8125C15 19.3631 16.2619 20.625 17.8125 20.625C19.3631 20.625 20.625 19.3631 20.625 17.8125V13.9062C20.625 13.475 20.275 13.125 19.8438 13.125C19.4125 13.125 19.0625 13.475 19.0625 13.9062V17.8125C19.0625 18.5019 18.5019 19.0625 17.8125 19.0625C17.1231 19.0625 16.5625 18.5019 16.5625 17.8125V13.9062C16.5625 13.475 16.2125 13.125 15.7812 13.125Z" fill="current"/>
</svg>
