<svg width="24" height="24" viewBox="0 0 24 24" fill="none" xmlns="http://www.w3.org/2000/svg">
<mask id="mask0_2631_6745" style="mask-type:alpha" maskUnits="userSpaceOnUse" x="0" y="0" width="24" height="24">
<rect width="24" height="24" fill="#D9D9D9"/>
</mask>
<g mask="url(#mask0_2631_6745)">
<path d="M13.5 5.39961C12.9333 5.39961 12.446 5.19528 12.038 4.78661C11.6293 4.37861 11.425 3.89128 11.425 3.32461C11.425 2.74128 11.6293 2.24528 12.038 1.83661C12.446 1.42861 12.9333 1.22461 13.5 1.22461C14.0833 1.22461 14.5793 1.42861 14.988 1.83661C15.396 2.24528 15.6 2.74128 15.6 3.32461C15.6 3.89128 15.396 4.37861 14.988 4.78661C14.5793 5.19528 14.0833 5.39961 13.5 5.39961ZM14 23.0996C13.7 23.0996 13.4416 22.9913 13.225 22.7746C13.0083 22.5579 12.9 22.2996 12.9 21.9996V17.0496L10.95 15.1746L10.45 17.3496C10.3166 17.9496 9.99165 18.4163 9.47498 18.7496C8.95832 19.0829 8.39998 19.1829 7.79998 19.0496L3.97498 18.2996C3.65832 18.2329 3.41665 18.0746 3.24998 17.8246C3.08332 17.5746 3.03332 17.2913 3.09998 16.9746C3.16665 16.6746 3.32498 16.4369 3.57498 16.2616C3.82498 16.0869 4.09998 16.0413 4.39998 16.1246L8.12498 16.8996L9.67498 9.04961L8.02498 9.67461V11.9996C8.02498 12.3163 7.92098 12.5786 7.71298 12.7866C7.50432 12.9953 7.24998 13.0996 6.94998 13.0996C6.63332 13.0996 6.37098 12.9953 6.16298 12.7866C5.95432 12.5786 5.84998 12.3163 5.84998 11.9996V9.77461C5.84998 9.30794 5.97498 8.87861 6.22498 8.48661C6.47498 8.09528 6.80832 7.81628 7.22498 7.64961L9.92498 6.52461C10.5083 6.27461 10.9416 6.11194 11.225 6.03661C11.5083 5.96194 11.7666 5.92461 12 5.92461C12.3666 5.92461 12.7043 6.02061 13.013 6.21261C13.321 6.40394 13.575 6.65794 13.775 6.97461L14.775 8.57461C15.1416 9.12461 15.6126 9.60361 16.188 10.0116C16.7626 10.4203 17.4166 10.6913 18.15 10.8246C18.4333 10.8746 18.6623 10.9996 18.837 11.1996C19.0123 11.3996 19.1 11.6246 19.1 11.8746C19.1 12.2246 18.975 12.5163 18.725 12.7496C18.475 12.9829 18.1916 13.0746 17.875 13.0246C16.9916 12.8913 16.1833 12.6203 15.45 12.2116C14.7166 11.8036 14.0833 11.2996 13.55 10.6996L13 13.4746L14.375 14.7996C14.6083 15.0163 14.7876 15.2619 14.913 15.5366C15.0376 15.8119 15.1 16.1163 15.1 16.4496V21.9996C15.1 22.2996 14.9916 22.5579 14.775 22.7746C14.5583 22.9913 14.3 23.0996 14 23.0996Z" fill="current"/>
</g>
</svg>
