<svg width="30" height="30" viewBox="0 0 30 30" fill="none" xmlns="http://www.w3.org/2000/svg">
<path d="M22.1065 3C21.5102 3 20.9384 3.26616 20.5168 3.73994C20.0952 4.21372 19.8584 4.8563 19.8584 5.52632C19.8584 6.19634 20.0952 6.83891 20.5168 7.31269C20.9384 7.78647 21.5102 8.05263 22.1065 8.05263C22.7027 8.05263 23.2745 7.78647 23.6961 7.31269C24.1177 6.83891 24.3546 6.19634 24.3546 5.52632C24.3546 4.8563 24.1177 4.21372 23.6961 3.73994C23.2745 3.26616 22.7027 3 22.1065 3ZM10.8661 4.26316C10.2699 4.26316 9.69805 4.52932 9.27645 5.0031C8.85485 5.47687 8.618 6.11945 8.618 6.78947C8.618 7.45949 8.85485 8.10207 9.27645 8.57585C9.69805 9.04962 10.2699 9.31579 10.8661 9.31579C11.4623 9.31579 12.0341 9.04962 12.4557 8.57585C12.8773 8.10207 13.1142 7.45949 13.1142 6.78947C13.1142 6.11945 12.8773 5.47687 12.4557 5.0031C12.0341 4.52932 11.4623 4.26316 10.8661 4.26316ZM20.6268 9.24671C20.1884 9.19871 19.7457 9.28711 19.3535 9.51069C19.0724 9.67111 17.1142 11.2697 17.1142 11.2697C16.6061 11.6602 15.0182 13.9724 13.9221 15.5946L13.3688 15.2763C13.1766 15.1664 13.1775 15.1661 13.0044 15.0271L12.4007 17.5584L14.7344 18.9005C14.7344 18.9005 17.9055 13.7207 18.3787 13.3569C18.3787 13.3569 18.9496 12.9496 19.5554 12.5403C19.5554 12.5403 18.988 13.9481 18.8924 14.5115C18.5316 16.6324 18.7236 17.1442 19.2766 17.9729C19.8386 18.8154 21.4654 21.7007 21.4654 21.7007L23.371 27H25.5993L23.4281 20.7138L22.4051 17.7262L23.5708 11.7311C23.7259 10.7736 23.2068 9.86128 22.3919 9.58717L20.6268 9.24671ZM9.38639 10.5099C8.94801 10.4619 8.50535 10.5503 8.11306 10.7738C7.83205 10.9343 5.87377 12.5329 5.87377 12.5329C5.15213 13.0874 3 16.3865 3 16.3865L4.88584 17.7632C4.88584 17.7632 6.66509 14.9839 7.13831 14.6201C7.13831 14.6201 7.70918 14.2127 8.31504 13.8035C8.31504 13.8035 7.74757 15.2113 7.65203 15.7747C7.29121 17.8955 7.4832 18.4074 8.03622 19.236C8.59824 20.0785 10.225 22.9638 10.225 22.9638L12.1306 27H14.3589L12.1877 21.977L11.1647 18.9893L12.3304 12.9942C12.4855 12.0368 11.9664 11.1244 11.1515 10.8503L9.38639 10.5099ZM24.2448 13.764L23.6411 16.2952L25.9748 17.6373L27 15.3898L24.6092 14.0132C24.417 13.9033 24.4179 13.9029 24.2448 13.764ZM18.9495 19.9638L16.618 27H18.8661L20.4204 22.3248L18.9495 19.9638ZM7.70911 21.227L5.37761 27H7.62569L9.18002 23.588L7.70911 21.227Z" fill="current"/>
</svg>
