<svg width="24" height="24" viewBox="0 0 24 24" fill="none" xmlns="http://www.w3.org/2000/svg">
<mask id="mask0_2244_6092" style="mask-type:alpha" maskUnits="userSpaceOnUse" x="0" y="0" width="24" height="24">
<rect width="24" height="24" fill="current"/>
</mask>
<g mask="url(#mask0_2244_6092)">
<path d="M13.4999 5.4001C12.9332 5.4001 12.4459 5.19576 12.0379 4.7871C11.6292 4.3791 11.4249 3.89176 11.4249 3.3251C11.4249 2.74176 11.6292 2.24576 12.0379 1.8371C12.4459 1.4291 12.9332 1.2251 13.4999 1.2251C14.0832 1.2251 14.5792 1.4291 14.9879 1.8371C15.3959 2.24576 15.5999 2.74176 15.5999 3.3251C15.5999 3.89176 15.3959 4.3791 14.9879 4.7871C14.5792 5.19576 14.0832 5.4001 13.4999 5.4001ZM13.9999 23.1001C13.6999 23.1001 13.4415 22.9918 13.2249 22.7751C13.0082 22.5584 12.8999 22.3001 12.8999 22.0001V17.0501L10.9499 15.1751L10.4499 17.3501C10.3165 17.9501 9.99153 18.4168 9.47486 18.7501C8.95819 19.0834 8.39986 19.1834 7.79986 19.0501L3.97486 18.3001C3.65819 18.2334 3.41653 18.0751 3.24986 17.8251C3.08319 17.5751 3.03319 17.2918 3.09986 16.9751C3.16653 16.6751 3.32486 16.4374 3.57486 16.2621C3.82486 16.0874 4.09986 16.0418 4.39986 16.1251L8.12486 16.9001L9.67486 9.0501L8.02486 9.6751V12.0001C8.02486 12.3168 7.92086 12.5791 7.71286 12.7871C7.50419 12.9958 7.24986 13.1001 6.94986 13.1001C6.63319 13.1001 6.37086 12.9958 6.16286 12.7871C5.95419 12.5791 5.84986 12.3168 5.84986 12.0001V9.7751C5.84986 9.30843 5.97486 8.8791 6.22486 8.4871C6.47486 8.09577 6.80819 7.81676 7.22486 7.6501L9.92486 6.5251C10.5082 6.2751 10.9415 6.11243 11.2249 6.0371C11.5082 5.96243 11.7665 5.9251 11.9999 5.9251C12.3665 5.9251 12.7042 6.0211 13.0129 6.2131C13.3209 6.40443 13.5749 6.65843 13.7749 6.9751L14.7749 8.5751C15.1415 9.1251 15.6125 9.6041 16.1879 10.0121C16.7625 10.4208 17.4165 10.6918 18.1499 10.8251C18.4332 10.8751 18.6622 11.0001 18.8369 11.2001C19.0122 11.4001 19.0999 11.6251 19.0999 11.8751C19.0999 12.2251 18.9749 12.5168 18.7249 12.7501C18.4749 12.9834 18.1915 13.0751 17.8749 13.0251C16.9915 12.8918 16.1832 12.6208 15.4499 12.2121C14.7165 11.8041 14.0832 11.3001 13.5499 10.7001L12.9999 13.4751L14.3749 14.8001C14.6082 15.0168 14.7875 15.2624 14.9129 15.5371C15.0375 15.8124 15.0999 16.1168 15.0999 16.4501V22.0001C15.0999 22.3001 14.9915 22.5584 14.7749 22.7751C14.5582 22.9918 14.2999 23.1001 13.9999 23.1001Z" fill="white"/>
<path d="M13.4999 5.4001C12.9332 5.4001 12.4459 5.19576 12.0379 4.7871C11.6292 4.3791 11.4249 3.89176 11.4249 3.3251C11.4249 2.74176 11.6292 2.24576 12.0379 1.8371C12.4459 1.4291 12.9332 1.2251 13.4999 1.2251C14.0832 1.2251 14.5792 1.4291 14.9879 1.8371C15.3959 2.24576 15.5999 2.74176 15.5999 3.3251C15.5999 3.89176 15.3959 4.3791 14.9879 4.7871C14.5792 5.19576 14.0832 5.4001 13.4999 5.4001ZM13.9999 23.1001C13.6999 23.1001 13.4415 22.9918 13.2249 22.7751C13.0082 22.5584 12.8999 22.3001 12.8999 22.0001V17.0501L10.9499 15.1751L10.4499 17.3501C10.3165 17.9501 9.99153 18.4168 9.47486 18.7501C8.95819 19.0834 8.39986 19.1834 7.79986 19.0501L3.97486 18.3001C3.65819 18.2334 3.41653 18.0751 3.24986 17.8251C3.08319 17.5751 3.03319 17.2918 3.09986 16.9751C3.16653 16.6751 3.32486 16.4374 3.57486 16.2621C3.82486 16.0874 4.09986 16.0418 4.39986 16.1251L8.12486 16.9001L9.67486 9.0501L8.02486 9.6751V12.0001C8.02486 12.3168 7.92086 12.5791 7.71286 12.7871C7.50419 12.9958 7.24986 13.1001 6.94986 13.1001C6.63319 13.1001 6.37086 12.9958 6.16286 12.7871C5.95419 12.5791 5.84986 12.3168 5.84986 12.0001V9.7751C5.84986 9.30843 5.97486 8.8791 6.22486 8.4871C6.47486 8.09577 6.80819 7.81676 7.22486 7.6501L9.92486 6.5251C10.5082 6.2751 10.9415 6.11243 11.2249 6.0371C11.5082 5.96243 11.7665 5.9251 11.9999 5.9251C12.3665 5.9251 12.7042 6.0211 13.0129 6.2131C13.3209 6.40443 13.5749 6.65843 13.7749 6.9751L14.7749 8.5751C15.1415 9.1251 15.6125 9.6041 16.1879 10.0121C16.7625 10.4208 17.4165 10.6918 18.1499 10.8251C18.4332 10.8751 18.6622 11.0001 18.8369 11.2001C19.0122 11.4001 19.0999 11.6251 19.0999 11.8751C19.0999 12.2251 18.9749 12.5168 18.7249 12.7501C18.4749 12.9834 18.1915 13.0751 17.8749 13.0251C16.9915 12.8918 16.1832 12.6208 15.4499 12.2121C14.7165 11.8041 14.0832 11.3001 13.5499 10.7001L12.9999 13.4751L14.3749 14.8001C14.6082 15.0168 14.7875 15.2624 14.9129 15.5371C15.0375 15.8124 15.0999 16.1168 15.0999 16.4501V22.0001C15.0999 22.3001 14.9915 22.5584 14.7749 22.7751C14.5582 22.9918 14.2999 23.1001 13.9999 23.1001Z" fill="black" fill-opacity="0.44"/>
<path d="M13.4999 5.4001C12.9332 5.4001 12.4459 5.19576 12.0379 4.7871C11.6292 4.3791 11.4249 3.89176 11.4249 3.3251C11.4249 2.74176 11.6292 2.24576 12.0379 1.8371C12.4459 1.4291 12.9332 1.2251 13.4999 1.2251C14.0832 1.2251 14.5792 1.4291 14.9879 1.8371C15.3959 2.24576 15.5999 2.74176 15.5999 3.3251C15.5999 3.89176 15.3959 4.3791 14.9879 4.7871C14.5792 5.19576 14.0832 5.4001 13.4999 5.4001ZM13.9999 23.1001C13.6999 23.1001 13.4415 22.9918 13.2249 22.7751C13.0082 22.5584 12.8999 22.3001 12.8999 22.0001V17.0501L10.9499 15.1751L10.4499 17.3501C10.3165 17.9501 9.99153 18.4168 9.47486 18.7501C8.95819 19.0834 8.39986 19.1834 7.79986 19.0501L3.97486 18.3001C3.65819 18.2334 3.41653 18.0751 3.24986 17.8251C3.08319 17.5751 3.03319 17.2918 3.09986 16.9751C3.16653 16.6751 3.32486 16.4374 3.57486 16.2621C3.82486 16.0874 4.09986 16.0418 4.39986 16.1251L8.12486 16.9001L9.67486 9.0501L8.02486 9.6751V12.0001C8.02486 12.3168 7.92086 12.5791 7.71286 12.7871C7.50419 12.9958 7.24986 13.1001 6.94986 13.1001C6.63319 13.1001 6.37086 12.9958 6.16286 12.7871C5.95419 12.5791 5.84986 12.3168 5.84986 12.0001V9.7751C5.84986 9.30843 5.97486 8.8791 6.22486 8.4871C6.47486 8.09577 6.80819 7.81676 7.22486 7.6501L9.92486 6.5251C10.5082 6.2751 10.9415 6.11243 11.2249 6.0371C11.5082 5.96243 11.7665 5.9251 11.9999 5.9251C12.3665 5.9251 12.7042 6.0211 13.0129 6.2131C13.3209 6.40443 13.5749 6.65843 13.7749 6.9751L14.7749 8.5751C15.1415 9.1251 15.6125 9.6041 16.1879 10.0121C16.7625 10.4208 17.4165 10.6918 18.1499 10.8251C18.4332 10.8751 18.6622 11.0001 18.8369 11.2001C19.0122 11.4001 19.0999 11.6251 19.0999 11.8751C19.0999 12.2251 18.9749 12.5168 18.7249 12.7501C18.4749 12.9834 18.1915 13.0751 17.8749 13.0251C16.9915 12.8918 16.1832 12.6208 15.4499 12.2121C14.7165 11.8041 14.0832 11.3001 13.5499 10.7001L12.9999 13.4751L14.3749 14.8001C14.6082 15.0168 14.7875 15.2624 14.9129 15.5371C15.0375 15.8124 15.0999 16.1168 15.0999 16.4501V22.0001C15.0999 22.3001 14.9915 22.5584 14.7749 22.7751C14.5582 22.9918 14.2999 23.1001 13.9999 23.1001Z" fill="#8099FF" fill-opacity="0.15"/>
</g>
</svg>
