<svg width="24" height="24" viewBox="0 0 30 30" fill="none" xmlns="http://www.w3.org/2000/svg">
<path d="M7.8125 3.75C5.58004 3.75 3.75 5.58004 3.75 7.8125V22.1875C3.75 24.42 5.58004 26.25 7.8125 26.25H22.1875C24.42 26.25 26.25 24.42 26.25 22.1875V7.8125C26.25 5.58004 24.42 3.75 22.1875 3.75H7.8125ZM7.8125 5.625H22.1875C23.4063 5.625 24.375 6.59371 24.375 7.8125V8.75H5.625V7.8125C5.625 6.59371 6.59371 5.625 7.8125 5.625ZM5.625 10.625H24.375V22.1875C24.375 23.4063 23.4063 24.375 22.1875 24.375H7.8125C6.59371 24.375 5.625 23.4063 5.625 22.1875V10.625ZM17.6562 13.125C17.225 13.125 16.875 13.475 16.875 13.9062V19.8438C16.875 20.275 17.225 20.625 17.6562 20.625H20.7812C21.2125 20.625 21.5625 20.275 21.5625 19.8438C21.5625 19.4125 21.2125 19.0625 20.7812 19.0625H18.4375V17.6562H20.1562C20.5875 17.6562 20.9375 17.3062 20.9375 16.875C20.9375 16.4438 20.5875 16.0938 20.1562 16.0938H18.4375V14.6875H20.7812C21.2125 14.6875 21.5625 14.3375 21.5625 13.9062C21.5625 13.475 21.2125 13.125 20.7812 13.125H17.6562ZM8.93433 13.1262C8.88258 13.1242 8.83105 13.1274 8.77808 13.136C8.35245 13.2066 8.06414 13.6088 8.13477 14.0344L9.12476 19.9719C9.17726 20.2844 9.41231 20.5348 9.72168 20.6055C10.0292 20.6748 10.3522 20.5523 10.5347 20.293L11.875 18.3887L13.2153 20.293C13.3635 20.5042 13.6044 20.625 13.855 20.625C13.9125 20.625 13.9703 20.6186 14.0259 20.6055C14.3353 20.5348 14.5715 20.2844 14.624 19.9719L15.6128 14.0344C15.684 13.6088 15.397 13.2066 14.9707 13.136C14.5445 13.0641 14.1435 13.3525 14.0723 13.7781L13.396 17.8369L12.5134 16.582C12.2203 16.1658 11.5285 16.1658 11.2354 16.582L10.3528 17.8369L9.67651 13.7781C9.61472 13.4062 9.29657 13.1406 8.93433 13.1262Z" fill="current"/>
</svg>
