<svg width="30" height="30" viewBox="0 0 30 30" fill="none" xmlns="http://www.w3.org/2000/svg">
<path d="M21.9474 5C21.2501 5 20.6842 5.56 20.6842 6.25V23.75C20.6842 24.44 21.2501 25 21.9474 25H25.7368C26.4341 25 27 24.44 27 23.75V6.25C27 5.56 26.4341 5 25.7368 5H21.9474ZM13.1053 10C12.408 10 11.8421 10.56 11.8421 11.25V23.75C11.8421 24.44 12.408 25 13.1053 25H16.8947C17.592 25 18.1579 24.44 18.1579 23.75V11.25C18.1579 10.56 17.592 10 16.8947 10H13.1053ZM4.26316 15C3.56589 15 3 15.56 3 16.25V23.75C3 24.44 3.56589 25 4.26316 25H8.05263C8.74989 25 9.31579 24.44 9.31579 23.75V16.25C9.31579 15.56 8.74989 15 8.05263 15H4.26316Z" fill="#000000"/>
</svg>
