<svg width="30" height="30" viewBox="0 0 30 30" fill="none" xmlns="http://www.w3.org/2000/svg">
<path d="M7.5 3C6.13367 3 5 4.08832 5 5.4V24.6C5 25.9117 6.13367 27 7.5 27H22.5C23.8663 27 25 25.9117 25 24.6V5.4C25 4.08832 23.8663 3 22.5 3H7.5ZM7.5 5.4H22.5V24.6H7.5V5.4ZM10 6.6C9.66848 6.6 9.35054 6.72643 9.11612 6.95147C8.8817 7.17652 8.75 7.48174 8.75 7.8C8.75 8.11826 8.8817 8.42348 9.11612 8.64853C9.35054 8.87357 9.66848 9 10 9C10.3315 9 10.6495 8.87357 10.8839 8.64853C11.1183 8.42348 11.25 8.11826 11.25 7.8C11.25 7.48174 11.1183 7.17652 10.8839 6.95147C10.6495 6.72643 10.3315 6.6 10 6.6ZM13.75 6.6C13.4185 6.6 13.1005 6.72643 12.8661 6.95147C12.6317 7.17652 12.5 7.48174 12.5 7.8C12.5 8.11826 12.6317 8.42348 12.8661 8.64853C13.1005 8.87357 13.4185 9 13.75 9C14.0815 9 14.3995 8.87357 14.6339 8.64853C14.8683 8.42348 15 8.11826 15 7.8C15 7.48174 14.8683 7.17652 14.6339 6.95147C14.3995 6.72643 14.0815 6.6 13.75 6.6ZM15 11.4C11.563 11.4 8.75 14.1005 8.75 17.4C8.75 20.6995 11.563 23.4 15 23.4C18.437 23.4 21.25 20.6995 21.25 17.4C21.25 14.1005 18.437 11.4 15 11.4ZM15 13.8C16.6438 13.8 18.011 14.7995 18.5229 16.2H11.4771C11.989 14.7995 13.3562 13.8 15 13.8ZM11.4771 18.6H18.5229C18.011 20.0005 16.6438 21 15 21C13.3562 21 11.989 20.0005 11.4771 18.6Z" fill="#FF3284"/>
</svg>
