<svg width="30" height="30" viewBox="0 0 30 30" fill="none" xmlns="http://www.w3.org/2000/svg">
<path d="M6.6 3C5.96348 3 5.35303 3.25286 4.90294 3.70294C4.45286 4.15303 4.2 4.76348 4.2 5.4C4.2 6.03652 4.45286 6.64697 4.90294 7.09706C5.35303 7.54714 5.96348 7.8 6.6 7.8C7.23652 7.8 7.84697 7.54714 8.29706 7.09706C8.74714 6.64697 9 6.03652 9 5.4C9 4.76348 8.74714 4.15303 8.29706 3.70294C7.84697 3.25286 7.23652 3 6.6 3ZM11.4 4.2V6.6H23.4V17.4H21V15H16.2V17.4H12.6V19.8H27V17.4H25.8V6C25.8 5.004 24.996 4.2 24 4.2H11.4ZM5.4 9C4.074 9 3 10.074 3 11.4V18.6V19.8V27H5.4V19.8H7.8V27H10.2V19.8V18.6V11.4H17.4V9H10.2H9H5.4ZM5.4 11.4H7.8V17.4H5.4V11.4Z" fill="#FF3284"/>
</svg>
