<svg width="40" height="40" viewBox="0 0 40 40" fill="none" xmlns="http://www.w3.org/2000/svg">
<g clip-path="url(#clip0_1082_1848)">
<path d="M6.58662 10.3579C7.6027 10.3579 8.57716 10.7827 9.29564 11.539C10.0141 12.2953 10.4177 13.3211 10.4177 14.3906V25.4503C10.4177 25.9794 10.3186 26.5034 10.126 26.9921C9.93332 27.4809 9.65096 27.9248 9.29509 28.2986C8.93922 28.6723 8.51682 28.9685 8.05206 29.1701C7.58731 29.3717 7.08931 29.4749 6.58662 29.4737C6.08435 29.4749 5.5868 29.3717 5.12254 29.1699C4.65828 28.9682 4.23646 28.6718 3.8813 28.298C3.52614 27.9241 3.24463 27.4801 3.05296 26.9914C2.86129 26.5027 2.76324 25.979 2.76441 25.4503V14.3906C2.76325 13.8615 2.86124 13.3373 3.0528 12.8481C3.24436 12.3589 3.52572 11.9142 3.88076 11.5396C4.2358 11.165 4.65755 10.8678 5.12186 10.665C5.58618 10.4623 6.08393 10.3579 6.58662 10.3579Z" fill="current"/>
<path d="M6.58656 0.00933612C7.59801 0.0142739 8.56657 0.440044 9.28095 1.19378C9.99533 1.94751 10.3976 2.96802 10.3999 4.03272C10.3975 5.10065 9.99288 6.12399 9.27466 6.87826C8.55644 7.63252 7.58333 8.05613 6.56879 8.05613C5.55508 8.05613 4.58288 7.63222 3.86608 6.87769C3.14927 6.12315 2.74658 5.09979 2.74658 4.03272C2.74658 3.50278 2.846 2.97808 3.0392 2.48872C3.23239 1.99936 3.51553 1.55498 3.87234 1.18113C4.22915 0.807274 4.65262 0.511305 5.11841 0.310215C5.5842 0.109124 6.08313 0.0068713 6.58656 0.00933612Z" fill="current"/>
<path d="M3.82224 31.9438H36.1778C37.1939 31.9438 38.1683 32.3687 38.8868 33.125C39.6053 33.8813 40.0089 34.907 40.0089 35.9766C40.0065 37.0445 39.6019 38.0679 38.8837 38.8221C38.1654 39.5764 37.1923 40 36.1778 40H3.82224C2.80924 39.9975 1.83839 39.5728 1.1221 38.8188C0.4058 38.0648 0.00234762 37.0429 0 35.9766C-2.73075e-06 34.9087 0.402427 33.8843 1.11898 33.1283C1.83553 32.3723 2.80771 31.9463 3.82224 31.9438Z" fill="current"/>
<path d="M37.2357 17.0947V25.469C37.1883 26.5037 36.7644 27.4796 36.052 28.1942C35.3395 28.9089 34.3931 29.3076 33.409 29.3076C32.4249 29.3076 31.4785 28.9089 30.766 28.1942C30.0536 27.4796 29.6297 26.5037 29.5823 25.469V15.4292C29.5823 14.3622 29.1796 13.3388 28.4628 12.5843C27.746 11.8297 26.7738 11.4058 25.7601 11.4058C24.7464 11.4058 23.7742 11.8297 23.0574 12.5843C22.3406 13.3388 21.9379 14.3622 21.9379 15.4292V25.469C21.8905 26.5037 21.4666 27.4796 20.7542 28.1942C20.0417 28.9089 19.0953 29.3076 18.1112 29.3076C17.1271 29.3076 16.1807 28.9089 15.4682 28.1942C14.7558 27.4796 14.3319 26.5037 14.2845 25.469V17.0947V15.6257C14.2527 14.0406 14.5179 12.4643 15.0649 10.987C15.6119 9.50978 16.4301 8.16042 17.4726 7.01607C18.5152 5.87172 19.7617 4.95478 21.141 4.31767C22.5203 3.68056 24.0053 3.33573 25.5112 3.3029H25.9912C27.4979 3.33332 28.9841 3.67606 30.3648 4.3115C31.7456 4.94695 32.9938 5.86265 34.0381 7.00624C35.0824 8.14984 35.9024 9.49889 36.451 10.9763C36.9997 12.4537 37.2663 14.0304 37.2357 15.6164V17.0854V17.0947Z" fill="current"/>
</g>
<defs>
<clipPath id="clip0_1082_1848">
<rect width="40" height="40" fill="white"/>
</clipPath>
</defs>
</svg>
