<svg width="1440" height="292" viewBox="0 0 1440 292" fill="none" xmlns="http://www.w3.org/2000/svg">
<g opacity="0.3">
<path opacity="0.3" d="M583.68 148.805C581.968 140.943 549.283 141.509 510.693 150.016C494.305 153.446 478.27 158.393 462.795 164.796C457.363 161.321 447.582 158.602 436.279 157.862C428.915 157.256 421.502 157.787 414.3 159.434C406.822 153.921 398.351 149.905 389.353 147.609C369.242 142.059 351.094 144.245 348.818 152.499C346.542 160.754 361 171.95 381.111 177.516C396.811 181.84 411.223 181.463 417.943 177.201C423.435 178.742 429.078 179.686 434.772 180.017C437.872 180.23 440.979 180.272 444.082 180.142C447.348 187.328 479.296 186.605 516.865 178.334C555.516 169.954 585.454 156.636 583.68 148.805Z" fill="#A1BFA7"/>
<path opacity="0.3" d="M14.472 202.656C-14.9021 205.958 -44.9193 196.036 -50.6335 186.932C-54.5703 186.355 -58.3592 185.673 -62 184.887V150.513C-54.6482 150.581 -47.3078 151.106 -40.0211 152.086C-24.5427 154.179 -9.73198 159.737 3.30933 168.346L11.4418 167.433C33.9389 164.965 53.8299 166.647 64.0657 171.208C68.5247 173.174 71.1622 175.689 71.4135 178.645C72.2608 188.394 46.7817 199.166 14.472 202.656Z" fill="#A1BFA7"/>
<path opacity="0.3" d="M176.27 166.521L129.376 204.134L76.1544 214.732L-5.93778 238.807L-62 246.528V164.052C-50.6809 166.537 -41.0387 173.598 -33.8507 183.68C-33.0477 184.812 -32.1241 186.086 -30.7107 186.306C-30.0225 186.365 -29.3294 186.291 -28.6698 186.086C-13.415 182.691 2.53294 187.867 12.9018 199.577C19.4329 193.498 26.8425 188.44 34.881 184.576C43.0287 180.975 52.308 179.387 60.9416 181.572C60.5826 177.67 61.7045 173.772 64.0818 170.66C65.9555 168.081 68.4508 166.019 71.3348 164.669C77.7405 161.696 85.3389 162.2 91.9639 164.669C88.9337 158.977 91.5559 151.838 95.386 146.65C101.478 138.426 111.651 132.34 121.713 134.211L136.61 129.49L176.27 166.521Z" fill="#ABCEB3"/>
<path opacity="0.3" d="M1479.78 132.081C1477.52 125.383 1458.35 123.555 1436.95 128.025C1430 129.424 1423.21 131.531 1416.68 134.314C1413.44 133.043 1410.13 131.94 1406.76 131.012C1387.06 125.556 1368.73 126.436 1365.79 132.978C1362.85 139.521 1376.39 149.253 1396.14 154.678C1414.71 159.819 1432.07 159.394 1436.45 153.766C1439.36 153.377 1442.26 152.884 1445.14 152.287C1466.53 147.853 1482.04 138.796 1479.78 132.081Z" fill="#A1BFA7"/>
<path opacity="0.3" d="M1039.11 135.06C1037.21 131.381 1027.07 130.58 1016.46 133.252C1013.24 134.032 1010.12 135.177 1007.17 136.664C1003.35 135.268 999.362 134.427 995.314 134.164C991.21 133.822 987.082 133.981 983.018 134.635C979.517 131.999 975.389 130.319 971.044 129.761C960.707 128.015 950.323 130.532 947.817 135.392C945.32 140.252 951.664 145.581 961.952 147.326C969.124 148.537 977.212 153.176 981.781 150.912C984.633 151.871 986.769 150.472 990.744 150.786C995.202 151.148 999.972 147.547 1003.49 146.934C1007.63 148.601 1017.3 151.227 1025.28 149.214C1035.93 146.539 1041.03 138.725 1039.11 135.06Z" fill="#A1BFA7"/>
<path opacity="0.3" d="M371.737 159.409C380.732 155.745 392.287 157.837 400.591 162.24C405.851 165.056 410.529 169.552 409.383 174.333C415.292 170.783 422.149 169.136 429.023 169.616C436.041 170.259 442.714 174.097 444.111 179.302C452.093 175.644 460.781 173.787 469.56 173.861C478.59 174.035 487.538 175.626 496.076 178.578C502.057 167.98 515.575 162.76 530.851 161.831C531.531 161.824 532.207 161.718 532.859 161.517C533.906 161.005 534.684 160.064 534.994 158.938C540.002 147.128 568.26 137.568 584.196 134.439L583.317 196.834L525.309 204.79L439.731 206.52L385.882 211.237L329.709 195.136L356.1 159.425L371.737 159.409Z" fill="#ABCEB3"/>
<path opacity="0.3" d="M915.507 122.475C924.502 117.6 936.043 120.273 944.364 126.233C949.608 129.991 954.282 135.967 953.158 142.335C958.716 137.979 965.791 135.165 972.794 136.045C979.798 136.926 986.472 142.005 987.869 148.939C995.434 144.222 1004.74 142.869 1013.62 143.797C1022.46 144.996 1031.07 147.53 1039.16 151.314C1045.43 136.987 1059.02 127.161 1074.57 125.698C1075.27 125.698 1075.96 125.559 1076.6 125.29C1077.72 124.462 1078.49 123.227 1078.73 121.846C1084 105.904 1096.93 93.637 1113.1 89.2336L1127.06 172.306L1069.05 182.888L983.484 185.2L929.634 191.49L873.48 170.104L899.871 122.49L915.507 122.475Z" fill="#ABCEB3"/>
<path opacity="0.3" d="M1479.98 119.903V195.38L1369.12 198.384L1295.43 206.938L1218.5 177.644L1254.61 112.594H1276.02C1288.33 105.912 1304.14 109.576 1315.53 117.721C1322.7 122.878 1329.11 131.073 1327.55 139.734C1335.15 133.775 1344.82 129.921 1354.45 131.086C1364.07 132.252 1373.16 139.263 1375.07 148.745C1385.4 142.267 1398.17 140.427 1410.29 141.717C1422.41 143.006 1434.06 147.158 1445.25 151.985C1451.87 136.93 1464.46 125.299 1479.98 119.907V119.903Z" fill="#ABCEB3"/>
<path opacity="0.3" d="M600.448 85.7587V87.3313C571.451 82.9441 561.497 90.0663 561.497 90.0663V88.4945C561.497 88.4945 571.451 81.3714 600.448 85.7587Z" fill="#F4C0B5"/>
<path opacity="0.3" d="M600.448 85.7587V87.3313C571.451 82.9441 561.497 90.0663 561.497 90.0663V88.4945C561.497 88.4945 571.451 81.3714 600.448 85.7587Z" fill="#8399AA"/>
<path opacity="0.3" d="M1391.82 100.679V148.418C1391.82 148.418 1387.3 143.528 1348.63 143.528V93.3515L1365.59 91.4016L1386.14 96.4332L1391.82 100.679Z" fill="#F4C0B5"/>
<path opacity="0.3" d="M1356.31 111.106L1368.16 111.766L1384.35 113.622L1389.92 115.257L1391.83 118.355V129.126L1372.81 126.249L1364.9 124.11L1358.49 123.151L1356.3 118.874L1356.31 111.106Z" fill="#9FB0C4"/>
<path opacity="0.3" d="M1357.72 154.167C1357.72 154.167 1392.11 154.971 1392.11 151.226C1392.11 147.481 1379.37 145.612 1379.37 145.612L1364.31 143.207H1357.24L1357.72 154.215" fill="#C8CACC"/>
<path opacity="0.3" d="M1102.16 144.096V162.355L1351.58 165.437L1351.45 143.203L1346.91 140.672L1324.76 137.888L1261.78 132.743L1200.26 134.047L1141.92 136.139L1102.16 144.095" fill="#C8CACC"/>
<path opacity="0.3" d="M965.092 182.566V100.314C965.092 100.314 960.025 93.8783 926.141 96.8546V179.125C959.84 176.168 965.036 182.506 965.092 182.566Z" fill="#F4C0B5"/>
<path opacity="0.3" d="M965.092 111.526V124.78C964.554 124.253 963.92 123.831 963.229 123.538L962.41 123.176C959.567 122.112 956.595 121.43 953.567 121.147L952.756 121.053C943.898 120.289 934.983 120.379 926.141 121.321V108.067C934.983 107.126 943.898 107.037 952.756 107.8L953.567 107.894C956.595 108.178 959.567 108.86 962.41 109.923L963.229 110.3C963.928 110.579 964.562 110.996 965.092 111.527V111.526Z" fill="#C1CDD6"/>
<path opacity="0.3" d="M926.141 131.452V144.708C960.025 141.736 965.092 148.167 965.092 148.167V134.912C965.092 134.912 960.025 128.481 926.141 131.452Z" fill="#C1CDD6"/>
<path opacity="0.3" d="M925.298 154.816V168.072C959.174 165.116 965.061 171.217 965.061 171.217V157.961C965.061 157.961 959.174 151.844 925.298 154.816Z" fill="#C1CDD6"/>
<path opacity="0.3" d="M1066.01 12.9192L1070.82 22.5108L1083.49 27.7474L1136.07 23.8791H1172.99L1202.6 20.3252L1205.9 30.9553L1209.04 32.449L1213.56 20.2471L1215.84 9.6654L1196.67 8.90918H1102.3L1066.01 12.9192Z" fill="#70615C"/>
<path opacity="0.3" d="M1218.45 7.67321V2.09138L1138.6 0L1059.29 3.83699V9.65281L1138.46 5.69033L1218.45 7.67148" fill="black"/>
<path opacity="0.3" d="M1070.82 27.4508L1059.29 9.66634L1138.46 5.70386L1218.45 7.68519L1208.35 42.0466V30.9459L1213.39 11.0073L1138.46 9.67036L1066.02 12.9251L1070.82 19.7809V27.454" fill="#7F6F69"/>
<path opacity="0.3" d="M1106.02 28.1833V14.3301H1171.96V29.6772L1145.59 32.4603L1110.92 30.9667L1106.02 28.1833Z" fill="#9FB0C4"/>
<path opacity="0.3" d="M1166.12 15.1316V30.9502L1186.33 35.1329H1195.97L1195.26 21.5941L1194.6 15.6061L1166.12 15.1316Z" fill="#E5DBDA"/>
<path opacity="0.3" d="M1079.31 17.2056H1107.09V28.6055L1100.13 36.3896H1085.96L1078.07 35.6979L1077.03 27.7916L1079.31 17.2088" fill="#E5DBDA"/>
<path opacity="0.3" d="M1079.71 13.7644H1072.84V32.5078H1079.71V13.7644Z" fill="#F9F0EF"/>
<path opacity="0.3" d="M1120.62 12.209H1113.74V30.9524H1120.62V12.209Z" fill="#F9F0EF"/>
<path opacity="0.3" d="M1164.85 12.209H1157.98V30.9524H1164.85V12.209Z" fill="#F9F0EF"/>
<path opacity="0.3" d="M1201.47 12.209H1194.59V30.9524H1201.47V12.209Z" fill="#F9F0EF"/>
<path opacity="0.3" d="M1069.5 54.9654V32.3225L1208.47 30.9229V53.0943L1137.65 58.5981H1090.97L1069.5 54.9654Z" fill="#FFD8D2"/>
<path opacity="0.3" d="M1089.41 54.2323V30.8499L1136.43 23.0979V27.9726H1140.87V23.0979L1188.51 28.8221V50.915L1139.87 56.1516L1121.28 58.5881L1089.41 54.2323Z" fill="#F9F0EF"/>
<path opacity="0.3" d="M1062.34 83.582L1067.16 88.8187L1100.39 91.7435L1106.13 82.1043L1102.57 76.176L1062.34 83.582Z" fill="#AFAFAF"/>
<path opacity="0.3" d="M1136.9 50.9957V141.506L1330.53 144.179V54.5494C1330.53 54.5494 1163.58 47.7249 1136.9 50.9957Z" fill="#C1CDD6"/>
<path opacity="0.3" d="M561.497 192.698V89.1067C561.497 89.1067 571.45 81.9845 600.448 86.3725V189.161L584.749 197.872L561.497 192.698Z" fill="#F4C0B5"/>
<path opacity="0.3" d="M600.446 97.1998V110.456C597.379 110.186 594.306 109.976 591.23 109.827L590.477 109.779C585.768 109.59 581.874 109.618 578.561 109.779H577.745C574.51 109.945 571.291 110.366 568.122 111.037L567.306 111.242C562.596 112.437 561.544 113.836 561.544 113.836V100.597C561.544 100.597 562.659 99.1818 567.306 98.0026L567.714 97.8924L568.122 97.7983C571.288 97.1105 574.508 96.6898 577.745 96.5402H578.561C581.874 96.3672 585.814 96.3358 590.477 96.5402H591.294C594.041 96.6471 597.102 96.8378 600.446 97.1998Z" fill="#C1CDD6"/>
<path opacity="0.3" d="M600.466 120.515V133.77C597.399 133.497 594.326 133.293 591.25 133.157H590.433C585.724 132.968 581.83 132.984 578.517 133.157H577.699C574.461 133.307 571.242 133.728 568.075 134.415L567.258 134.619C562.549 135.814 561.497 137.213 561.497 137.213V123.974C561.497 123.974 562.611 122.574 567.258 121.38L568.074 121.176C571.242 120.487 574.461 120.066 577.699 119.915H578.515C581.828 119.742 585.768 119.726 590.431 119.915H591.248C594.061 120.027 597.122 120.216 600.466 120.515Z" fill="#C1CDD6"/>
<path opacity="0.3" d="M600.448 143.844V157.1C566.568 154.144 561.497 160.559 561.497 160.559V147.303C561.497 147.303 566.568 140.888 600.448 143.844Z" fill="#C1CDD6"/>
<path opacity="0.3" d="M600.448 167.231V180.487C566.568 177.514 561.497 183.93 561.497 183.93V170.69C561.497 170.69 566.568 164.259 600.448 167.231Z" fill="#C1CDD6"/>
<path opacity="0.3" d="M740.055 132.462L755.204 134.034L782.534 134.115L798.267 133.076L775.491 128.782L753.116 130.984L740.055 132.462Z" fill="#A9BAC4"/>
<path opacity="0.3" d="M798.219 120.191V133.195C798.219 133.195 764.673 130.05 740.009 132.582V119.594C740.009 119.594 763.131 114.971 798.219 120.191Z" fill="#C1CDD6"/>
<path opacity="0.3" d="M288.515 103.897L283.68 109.919L274.448 109.573V113.595L267.007 113.36L266.926 103.893L288.515 103.897Z" fill="#7F6F69"/>
<path opacity="0.3" d="M165.081 89.2176L208.395 89.0447L209.951 203.719L167.563 205.952L165.081 89.2176Z" fill="#F4C0B5"/>
<path opacity="0.3" d="M191.265 80.3267L197.074 72.4171H200.434L208.064 61.0011L221.738 57.8246L235.176 61.1893L236.196 59.4439L221.741 56.1892L207.169 59.052L199.852 70.3876L196.493 70.2622L189.46 80.3267H191.265Z" fill="#70615C"/>
<path opacity="0.3" d="M200.46 72.2163H197.038V80.126H200.46V72.2163Z" fill="black"/>
<path opacity="0.3" d="M208.055 60.9502L208.291 81.7696L200.488 80.2759L200.426 72.3647L208.055 60.9502Z" fill="#7F6F69"/>
<path opacity="0.3" d="M197.058 72.2163L191.249 80.1235H197.058V72.2163Z" fill="#7F6F69"/>
<path opacity="0.3" d="M208.267 81.3939L200.464 79.8999H189.43L155.218 81.3481L150.067 98.7386H151.465L156.082 84.0823H208.33L208.267 81.3939Z" fill="#70615C"/>
<path opacity="0.3" d="M208.34 84.0952V87.6668H156.437L156.092 84.0976L208.34 84.0952Z" fill="#B29D93"/>
<path opacity="0.3" d="M156.441 87.6186L152.988 98.7034H151.479L156.095 84.0479L156.441 87.6186Z" fill="black"/>
<path opacity="0.3" d="M133.643 98.4724H163.692V101.177H134.518L133.643 98.4724Z" fill="#B29D93"/>
<path opacity="0.3" d="M133.643 98.4258L133.266 109.873H134.254L134.521 101.13L133.643 98.4258Z" fill="black"/>
<path opacity="0.3" d="M156.44 87.5396L152.986 98.6251H163.677V93.8606L165.058 90.2408L208.373 90.0678L208.342 87.5364L156.44 87.5396Z" fill="black"/>
<path opacity="0.3" d="M207.624 113.085H168.188V119.8H207.624V113.085Z" fill="#B29D93"/>
<path opacity="0.3" d="M168.204 113.085L167.293 114.313V119.187L168.204 119.8V113.085Z" fill="black"/>
<path opacity="0.3" d="M208.566 142.312H169.129V149.026H208.566V142.312Z" fill="#B29D93"/>
<path opacity="0.3" d="M169.098 142.312L168.188 143.538V148.428L169.098 149.026V142.312Z" fill="black"/>
<path opacity="0.3" d="M209.46 169.699H170.023V176.413H209.46V169.699Z" fill="#B29D93"/>
<path opacity="0.3" d="M170.04 169.699L169.129 170.925V175.8L170.04 176.413V169.699Z" fill="black"/>
<path opacity="0.3" d="M165.051 89.3745L166.794 150.027L167.28 179.667V193.976H166.28L163.669 100.46V92.9911L165.051 89.3745Z" fill="#F4C0B5"/>
<path opacity="0.3" d="M235.163 60.0254L237.158 217.962L209.479 217.443L208.05 59.8372L221.724 56.6606L235.163 60.0254Z" fill="black"/>
<path opacity="0.3" d="M234.528 216.637L212.015 216.212V93.8438C212 93.5921 212 93.3403 212.015 93.0893C212.002 92.8142 212.029 92.5383 212.095 92.2712C212.702 88.6144 215.286 85.5826 218.796 84.4097C219.063 84.3148 219.335 84.236 219.612 84.1741C220.374 83.9963 221.153 83.907 221.935 83.907C223.08 83.9054 224.217 84.1025 225.295 84.4886C225.575 84.5835 225.848 84.6993 226.111 84.8345C229.121 86.2084 231.242 89.0142 231.748 92.2881C231.801 92.5584 231.838 92.8311 231.858 93.1062V93.6098L232.047 102.005V102.822L234.528 216.637Z" fill="#C1CDD6"/>
<path opacity="0.3" d="M230.029 85.1321L278.493 85.8713V89.315L230.06 88.2146L230.029 85.1321Z" fill="#B29D93"/>
<path opacity="0.3" d="M230.076 89.4695L267.346 90.2739L269.669 221.29L231.708 217.626L230.076 89.4695Z" fill="#F4C0B5"/>
<path opacity="0.3" d="M278.459 89.2049L267.457 97.2248L267.315 91.5795L230.045 90.7751L230.029 88.1021L278.459 89.2049Z" fill="black"/>
<path opacity="0.3" d="M229.934 81.4551H247.596L279.545 84.0823L278.461 85.9372L229.997 85.1956L229.934 81.4551Z" fill="#70615C"/>
<path opacity="0.3" d="M134.255 109.856L163.895 108.881L163.691 101.113H134.522L134.255 109.856Z" fill="#7F6F69"/>
<path opacity="0.3" d="M266.88 100.028L281.416 100.374L289.596 101.239L289.375 101.82L266.926 101.946L266.88 100.028Z" fill="#70615C"/>
<path opacity="0.3" d="M289.377 101.773L288.514 103.945L266.958 104.024L266.926 101.901L289.377 101.772V101.773Z" fill="#B29D93"/>
<path opacity="0.3" d="M37.4653 112.931L134.221 109.676L145.43 109.314L148.633 114.189L30.6211 118.863L37.4653 112.931Z" fill="#B29D93"/>
<path opacity="0.3" d="M273.939 109.456L367.57 112.834L386.252 118.998L287.236 115.853L273.939 109.456Z" fill="#B29D93"/>
<path opacity="0.3" d="M386.249 118.953L379.529 126.155V123.608L291.299 120.919L288.159 122.554L283.512 119.991L282.131 115.808L273.939 111.39V109.409L287.236 115.808L386.249 118.953Z" fill="#7F6F69"/>
<path opacity="0.3" d="M379.381 122.565V207.556L288.717 209.993L288.011 121.509L291.151 119.874L379.381 122.565Z" fill="#F4C0B5"/>
<path opacity="0.3" d="M30.6211 118.747L35.7531 126.373V124.107L144.958 120.255V123.054L148.098 118.746L148.632 114.075L30.6211 118.747Z" fill="#7F6F69"/>
<path opacity="0.3" d="M35.7983 122.877V125.142L36.9283 155.396V224.725L146.196 219.474L145.003 121.824V119.025L35.7983 122.877Z" fill="#F4C0B5"/>
<path opacity="0.3" d="M283.525 103.893H282.081V109.916H283.525V103.893Z" fill="black"/>
<path opacity="0.3" d="M139.008 101.113H140.484L140.437 109.651L139.008 109.699V101.113Z" fill="black"/>
<path opacity="0.3" d="M144.985 124.54H164.326L164.546 132.575H145.095L144.985 124.54Z" fill="black"/>
<path opacity="0.3" d="M145.361 151.802L165.08 151.456L165.331 158.957H145.455L145.361 151.802Z" fill="black"/>
<path opacity="0.3" d="M267.351 124.54H279.706V132.387L267.492 132.529L267.351 124.54Z" fill="black"/>
<path opacity="0.3" d="M267.585 151.25L281.086 151.032V157.479L267.726 157.7L267.585 151.249V151.25Z" fill="black"/>
<path opacity="0.3" d="M274.347 110.446V123.843H279.575V131.69H274.347V150.889L280.972 150.795V157.242H274.347L273.939 206.837L289.279 210.091L288.571 121.608L283.925 119.045L282.544 114.862L274.347 110.446Z" fill="#E2AFA6"/>
<path opacity="0.3" d="M274.347 110.446V123.843H279.575V131.69H274.347V150.889L280.972 150.795V157.242H274.347L273.939 206.837L289.279 210.091L288.571 121.608L283.925 119.045L282.544 114.862L274.347 110.446Z" fill="black"/>
<path opacity="0.3" d="M267.162 113.085L274.493 113.416V124.768H267.366L267.162 113.085Z" fill="#D3A9A3"/>
<path opacity="0.3" d="M267.538 132.318L274.525 132.177V151.579L267.649 151.498L267.538 132.318Z" fill="#D3A9A3"/>
<path opacity="0.3" d="M267.962 156.909L274.493 156.736L274.069 212.998L268.688 212.29L267.962 156.909Z" fill="#D3A9A3"/>
<path opacity="0.3" d="M145.457 109.267L148.66 114.142L148.126 118.813L144.985 123.121L145.001 124.772H164.343L163.887 108.655L145.457 109.267Z" fill="#E2AFA6"/>
<path opacity="0.3" d="M145.126 132.365H164.578L165.08 151.722L145.362 152.068L145.126 132.365Z" fill="#E2AFA6"/>
<path opacity="0.3" d="M145.456 158.197H165.331L166.32 193.591L146.163 216.407L145.456 158.197Z" fill="#E2AFA6"/>
<path opacity="0.3" d="M269.023 113.085H232.806V119.8H269.023V113.085Z" fill="#B29D93"/>
<path opacity="0.3" d="M238.281 113.085L237.371 114.313V119.187L238.281 119.8V113.085Z" fill="black"/>
<path opacity="0.3" d="M269.023 141.51H232.806V148.224H269.023V141.51Z" fill="#B29D93"/>
<path opacity="0.3" d="M238.281 141.51L237.371 142.736V147.627L238.281 148.224V141.51Z" fill="black"/>
<path opacity="0.3" d="M269.023 169.699H232.806V176.413H269.023V169.699Z" fill="#B29D93"/>
<path opacity="0.3" d="M238.281 169.699L237.371 170.925V175.8L238.281 176.413V169.699Z" fill="black"/>
<path opacity="0.3" d="M386.086 118.871L379.366 126.072V123.525L291.133 120.836L287.993 122.471L287.069 115.725L386.086 118.871Z" fill="black"/>
<path opacity="0.3" d="M30.6211 118.794L35.7531 124.155L144.958 120.302L148.632 114.123L30.6211 118.794Z" fill="black"/>
<path opacity="0.3" d="M631.151 63.9872L631.292 66.031L646.551 64.6789L657.553 71.5661L659.297 70.3555L646.768 62.553L631.151 63.9872Z" fill="#B29D93"/>
<path opacity="0.3" d="M631.69 63.967L603.195 71.5462L604.53 72.5999L631.831 66.0111L631.69 63.967Z" fill="black"/>
<path opacity="0.3" d="M631.339 65.1781L632.532 186.178L636.033 184.873L634.62 70.7129L655.172 74.8484V182.168L657.605 181.067V70.7129L646.602 63.8257L631.339 65.1781Z" fill="#FFD8D2"/>
<path opacity="0.3" d="M655.137 74.7492V181.236L636 184.775L635.733 163.28V162.43L635.608 153.074L635.592 152.241L635.482 142.885V142.051L635.357 132.696L635.341 131.862L635.231 122.507L635.215 121.673V121.657L635.104 112.316L635.088 111.467L634.979 102.106L634.963 101.273L634.853 91.9166L634.837 91.0832L634.586 70.6138L655.137 74.7492Z" fill="#9FB0C4"/>
<path opacity="0.3" d="M604.513 71.7343V189.636L633.008 186.145L631.814 65.1455L604.513 71.7343Z" fill="#F4C0B5"/>
<path opacity="0.3" d="M604.513 86.7086L631.955 79.7586V79.3813L604.513 86.4102V86.7086Z" fill="#DDA59B"/>
<path opacity="0.3" d="M604.513 102.265L632.113 95.2837L632.097 94.8904L604.513 101.951V102.265Z" fill="#DDA59B"/>
<path opacity="0.3" d="M604.513 117.852L632.254 110.823V110.446L604.513 117.538V117.852Z" fill="#DDA59B"/>
<path opacity="0.3" d="M604.513 133.392L632.461 126.331L632.414 125.954L604.513 133.093V133.392Z" fill="#DDA59B"/>
<path opacity="0.3" d="M604.513 148.995L632.583 141.903V141.51L604.513 148.696V148.995Z" fill="#DDA59B"/>
<path opacity="0.3" d="M604.513 164.583L632.74 157.443V157.066L604.513 164.281V164.583Z" fill="#DDA59B"/>
<path opacity="0.3" d="M604.513 180.138L632.881 172.952V172.574L604.513 179.839V180.138Z" fill="#636363"/>
<path opacity="0.3" d="M656.471 78.533L657.821 78.7847V145.692L729.615 151.133V138.475L756.432 142.139V167.785L732.723 167.061L678.529 174.561L656.471 180.538V78.533Z" fill="#FFD8D2"/>
<path opacity="0.3" d="M658.024 145.989V78.2029L729.818 94.6352V151.432L658.024 145.989Z" fill="#9FB0C4"/>
<path opacity="0.3" d="M729.09 130.757L740.754 132.582V119.593L729.09 116.621L729.089 130.757H729.09Z" fill="#FFD8D2"/>
<path opacity="0.3" d="M729.089 108.586L740.283 110.741V97.0133L729.089 94.7014V108.586Z" fill="#FFD8D2"/>
<path opacity="0.3" d="M728.949 130.527L740.612 132.352L755.766 133.921V141.846L728.949 138.184V130.527Z" fill="#9FB0C4"/>
<path opacity="0.3" d="M727.38 108.323L738.574 110.477C738.574 110.477 781.089 108.528 797.256 112.05L812.957 111.075L813.069 96.4984L903.983 88.8091V148.562L813.141 152.933V140.763L781.45 141.894V134.395L813.141 132.303V119.393L797.135 120.353C797.135 120.353 766.295 115.824 738.965 119.755L727.302 116.783L727.38 108.323Z" fill="#9FB0C4"/>
<path opacity="0.3" d="M739.584 110.702V96.9747C739.584 96.9747 775.884 92.4933 798.267 99.4281V112.322C798.267 112.322 783.827 109.067 739.584 110.702Z" fill="#C1CDD6"/>
<path opacity="0.3" d="M797.665 101.176L813.519 100.217L813.439 111.302L797.665 112.277V101.176Z" fill="#F4C0B5"/>
<path opacity="0.3" d="M797.617 120.172L813.631 119.213V132.124L797.665 133.178L797.617 120.172Z" fill="#F4C0B5"/>
<path opacity="0.3" d="M755.493 133.638V166.927L759.934 167.21V133.638H755.493Z" fill="#F9F0EF"/>
<path opacity="0.3" d="M782.398 133.732H779.257V167.068H782.398V133.732Z" fill="#F9F0EF"/>
<path opacity="0.3" d="M759.677 141.846H779.45V134L759.677 133.921V141.846Z" fill="#97A7B7"/>
<path opacity="0.3" d="M797.954 132.931V140.935L782.221 141.47V133.969L797.954 132.931Z" fill="#97A7B7"/>
<path opacity="0.3" d="M740.479 132.318V139.755L755.629 141.815V133.89L740.479 132.318Z" fill="#97A7B7"/>
<path opacity="0.3" d="M759.677 153.012H779.45V167.715C779.45 167.715 763.211 167.102 759.677 167.353V153.012Z" fill="#97A7B7"/>
<path opacity="0.3" d="M759.677 141.699H779.45V148.333C779.45 148.333 763.211 147.973 759.677 148.223V141.699Z" fill="#C1CDD6"/>
<path opacity="0.3" d="M781.048 141.181L812.748 140.049V152.267L903.581 147.896V166.765H781.129V153.761L794.364 154.092V149.123C794.364 149.123 784.173 148.306 781.129 148.227L781.048 141.181Z" fill="#F4C0B5"/>
<path opacity="0.3" d="M812.531 152.336L813.96 153.468L903.372 149.899V147.968L812.531 152.336Z" fill="#8399AA"/>
<path opacity="0.3" d="M902.609 88.7148L909.822 93.008V163.705L902.609 167.306V88.7148Z" fill="#FFD8D2"/>
<path opacity="0.3" d="M899.927 89.0512V84.6455L924.31 83.718V163.662L909.693 163.174V93.1368L899.927 89.0512Z" fill="#9FB0C4"/>
<path opacity="0.3" d="M897.622 89.3698V80.469L912.119 75.469L927.201 79.306V162.819L924.302 163.054V83.8347L899.919 84.7597V89.1623L897.622 89.3698Z" fill="#F4C0B5"/>
<path opacity="0.3" d="M897.622 81.0529L896.562 81.4776L895.879 79.8419L912.118 73.9133L928.1 78.0022L927.201 79.8894L912.118 76.0524L897.622 81.0529Z" fill="black"/>
<path opacity="0.3" d="M926.848 79.8073L938.453 87.5292L939.192 85.6115L927.747 77.9202L926.848 79.8073Z" fill="#B29D93"/>
<path opacity="0.3" d="M938.453 86.9605V163.539L926.848 163.004V79.24L938.453 86.9605Z" fill="#FFD8D2"/>
<path opacity="0.3" d="M598.442 89.1879L604.769 87.4424V189.242H598.442V89.1879Z" fill="#9FB0C4"/>
<path opacity="0.3" d="M1391.79 147.591H1383.55V170.156H1391.79V147.591Z" fill="#D9DADB"/>
<path opacity="0.3" d="M1357.72 142.783H1349.48V165.348H1357.72V142.783Z" fill="#D9DADB"/>
<path opacity="0.3" d="M1025.35 124.653V144.419C1038.87 142.344 1052.5 141.215 1066.17 141.04C1083.44 141.04 1109.25 143.713 1109.25 143.713V124.653C1109.25 124.653 1092.77 121.729 1065.72 121.712C1038.67 121.696 1025.35 124.653 1025.35 124.653Z" fill="#FFD8D2"/>
<path opacity="0.3" d="M1025.35 109.71V122.415C1038.87 120.339 1052.5 119.211 1066.17 119.036C1083.44 119.036 1109.25 121.725 1109.25 121.725V109.71C1109.25 109.71 1092.77 106.785 1065.72 106.769C1038.67 106.753 1025.35 109.71 1025.35 109.71Z" fill="#C1CDD6"/>
<path opacity="0.3" d="M1025.35 146.619V162.344H1109.29V146.619C1109.29 146.619 1092.81 143.71 1065.76 143.678C1038.72 143.647 1025.35 146.619 1025.35 146.619Z" fill="#C1CDD6"/>
<path opacity="0.3" d="M1067.03 87.3008C1035.23 87.3008 1025.35 93.3387 1025.35 93.3387V107.491C1038.87 105.425 1052.5 104.3 1066.17 104.127C1083.44 104.127 1109.25 107.491 1109.25 107.491V93.3387C1109.25 93.3387 1098.84 87.3008 1067.03 87.3008Z" fill="#FFD8D2"/>
<path opacity="0.3" d="M1025.35 93.4022V95.6345C1025.35 95.6345 1040.11 90.3833 1067.34 90.4139C1094.56 90.446 1109.3 95.6345 1109.3 95.6345V93.4022C1109.3 93.4022 1099.88 87.4424 1067.34 87.4424C1034.31 87.4424 1025.35 93.4014 1025.35 93.4014V93.4022Z" fill="#F9F0EF"/>
<path opacity="0.3" d="M1062.13 105.779H1053.07V120.607H1062.13V105.779Z" fill="#E8E9EA"/>
<path opacity="0.3" d="M1062.13 141.887H1053.07V162.297H1062.13V141.887Z" fill="#E8E9EA"/>
<path opacity="0.3" d="M1330.55 54.4796L1330.51 50.1084L1348.65 50.9853V144.247L1330.55 144.185V54.4796Z" fill="#C1CDD6"/>
<path opacity="0.3" d="M1330.51 55.8064L1330.41 42.4719L1323.97 44.5632V55.3503L1330.51 55.8064Z" fill="#F4C0B5"/>
<path opacity="0.3" d="M1348.63 90.3165V93.7127C1348.63 93.7127 1373.25 91.3381 1391.82 101.04V97.6438C1391.82 97.6438 1378.76 89.5933 1348.63 90.3165Z" fill="#F9F0EF"/>
<path opacity="0.3" d="M1348.63 141.557V144.97C1348.63 144.97 1378.12 144.419 1392.12 151.259V147.863C1392.12 147.863 1383.47 141.512 1348.63 141.557Z" fill="#F9F0EF"/>
<path opacity="0.3" d="M1348.63 91.9253V43.6504L1354.55 46.2294V91.9253H1348.63Z" fill="#F4C0B5"/>
<path opacity="0.3" d="M1330.42 42.4737L1339.33 39.5964L1348.62 43.6689V50.3519L1330.47 49.2202L1330.42 42.4737Z" fill="#E2AFA6"/>
<path opacity="0.3" d="M1330.47 49.2126L1330.48 51.4295L1348.62 52.3104V50.3444L1330.47 49.2126Z" fill="#F9F0EF"/>
<path opacity="0.3" d="M1354.53 46.2663L1356.67 44.1121L1339.57 36.2024L1322.09 41.8478L1323.98 44.5521L1339.32 39.5834L1354.53 46.2663Z" fill="black"/>
<path opacity="0.3" d="M1322.11 41.8591L1307.92 54.2974L1311.97 54.5492L1324 44.5642L1322.11 41.8591Z" fill="#7F6F69"/>
<path opacity="0.3" d="M1323.99 44.5459V55.3329L1311.97 54.5286L1323.99 44.5459Z" fill="#E2AFA6"/>
<path opacity="0.3" d="M1061.83 53.96L1143.32 51.0039V140.193L1108.61 141.01V93.7118C1105.57 92.2864 1102.36 91.2302 1099.06 90.5666V82.7043L1061.83 83.7734V53.96Z" fill="#D9DADB"/>
<path opacity="0.3" d="M774.286 125.109C773.989 127.076 772.286 128.545 770.303 128.545C768.086 128.545 766.263 126.721 766.263 124.504C766.263 122.287 768.086 120.462 770.303 120.462C771.467 120.462 772.583 120.971 773.346 121.855L772.495 123.303C772.061 122.507 771.218 122.012 770.311 122.012C768.945 122.012 767.821 123.14 767.821 124.512C767.821 125.883 768.945 127.012 770.311 127.012C770.519 127.012 770.728 126.986 770.929 126.935C771.652 126.759 772.254 126.276 772.592 125.615L774.166 123.02L774.888 121.794C774.664 121.425 774.391 121.086 774.085 120.787C773.106 119.839 771.804 119.308 770.447 119.308C767.588 119.308 765.235 121.664 765.235 124.529C765.235 127.392 767.588 129.749 770.447 129.749C773.202 129.749 775.507 127.556 775.651 124.797L774.286 125.109ZM770.616 125.77C770.519 125.792 770.423 125.803 770.319 125.803C769.604 125.803 769.018 125.214 769.018 124.498C769.018 123.783 769.604 123.194 770.319 123.194C770.921 123.194 771.451 123.611 771.588 124.197C771.62 124.316 771.636 124.438 771.636 124.561C771.636 125.151 771.242 125.673 770.68 125.833L770.616 125.77Z" fill="#CE93AE"/>
<path opacity="0.3" d="M1330.39 55.6235H1310.89V75.6411H1330.39V55.6235Z" fill="#F4C0B5"/>
<path opacity="0.3" d="M1330.39 72.3577H1319.17V89.7798H1330.39V72.3577Z" fill="#F4C0B5"/>
<path opacity="0.3" d="M1330.39 109.266L1310.89 108.449V89.3745H1330.39V109.266Z" fill="#F4C0B5"/>
<path opacity="0.3" d="M1330.39 143.867H1310.89L1306.13 123.315L1330.39 122.277L1330.39 143.867Z" fill="#F4C0B5"/>
<path opacity="0.3" d="M1358.38 124.897L1348.63 124.614V110.069H1358.38V124.897Z" fill="#97A7B7"/>
<path opacity="0.3" d="M1330.39 106.25H1319.17V123.673H1330.39V106.25Z" fill="#F4C0B5"/>
<path opacity="0.3" d="M1152.62 69.9536H1142.87V87.3763H1152.62V69.9536Z" fill="#F4C0B5"/>
<path opacity="0.3" d="M1311.67 107.869L1136.9 104.346V86.9236H1215.36L1314.28 89.2507L1311.67 107.869Z" fill="#F4C0B5"/>
<path opacity="0.3" d="M1310.91 143.933L1136.9 141.463V119.874L1309.16 123.38L1310.91 143.933Z" fill="#F4C0B5"/>
<path opacity="0.3" d="M1152.62 103.847H1142.87V121.269H1152.62V103.847Z" fill="#F4C0B5"/>
<path opacity="0.3" d="M1164.21 44.7817H1114.4V53.3671H1164.21V44.7817Z" fill="#9FB0C4"/>
<path opacity="0.3" d="M1310.91 74.8745L1136.9 70.3457V50.4385H1156.4L1317.99 54.8884L1310.91 74.8745Z" fill="#F4C0B5"/>
<path opacity="0.3" d="M1140.58 111.907H1128.94V123.229H1140.58V111.907Z" fill="#C1CDD6"/>
<path opacity="0.3" d="M1122.97 111.907H1111.34V123.229H1122.97V111.907Z" fill="#C1CDD6"/>
<path opacity="0.3" d="M1140.58 85.5569H1128.94V96.8789H1140.58V85.5569Z" fill="#C1CDD6"/>
<path opacity="0.3" d="M1122.97 85.5569H1111.34V96.8789H1122.97V85.5569Z" fill="#C1CDD6"/>
<path opacity="0.3" d="M795.802 149.174V154.143C795.802 154.143 766.207 153.105 742.177 154.143V149.174C760.007 147.441 777.964 147.441 795.802 149.174Z" fill="#9FB0C4"/>
<path opacity="0.3" d="M-61.3882 226.186L12.4464 209.518V206.42L-61.3882 218.402V226.186Z" fill="#E2AFA6"/>
<path opacity="0.3" d="M12.4464 208.259L-61.3882 224.927V259.804L4.64314 224.266L12.4454 220.067L12.4464 208.259Z" fill="#FFD8D2"/>
<g opacity="0.3">
<g opacity="0.3">
<g opacity="0.3">
<path opacity="0.3" d="M309.702 131.187H295.118V145.023H309.702V131.187Z" fill="#C1CDD6"/>
</g>
</g>
</g>
<g opacity="0.3">
<g opacity="0.3">
<g opacity="0.3">
<path opacity="0.3" d="M331.587 131.187H317.002V145.023H331.587V131.187Z" fill="#C1CDD6"/>
</g>
</g>
</g>
<g opacity="0.3">
<g opacity="0.3">
<g opacity="0.3">
<path opacity="0.3" d="M353.424 131.187H338.84V145.023H353.424V131.187Z" fill="#C1CDD6"/>
</g>
</g>
</g>
<g opacity="0.3">
<g opacity="0.3">
<g opacity="0.3">
<path opacity="0.3" d="M375.262 131.187H360.677V145.023H375.262V131.187Z" fill="#C1CDD6"/>
</g>
</g>
</g>
<g opacity="0.3">
<g opacity="0.3">
<path opacity="0.3" d="M309.702 148.062H295.118V161.898H309.702V148.062Z" fill="#C1CDD6"/>
</g>
</g>
<g opacity="0.3">
<g opacity="0.3">
<g opacity="0.3">
<path opacity="0.3" d="M331.587 148.062H317.002V161.898H331.587V148.062Z" fill="#C1CDD6"/>
</g>
</g>
</g>
<g opacity="0.3">
<g opacity="0.3">
<g opacity="0.3">
<path opacity="0.3" d="M353.424 148.062H338.84V161.898H353.424V148.062Z" fill="#C1CDD6"/>
</g>
</g>
</g>
<g opacity="0.3">
<g opacity="0.3">
<g opacity="0.3">
<path opacity="0.3" d="M375.262 148.062H360.677V161.898H375.262V148.062Z" fill="#C1CDD6"/>
</g>
</g>
</g>
<g opacity="0.3">
<g opacity="0.3">
<path opacity="0.3" d="M309.702 164.938H295.118V178.774H309.702V164.938Z" fill="#C1CDD6"/>
</g>
</g>
<g opacity="0.3">
<g opacity="0.3">
<g opacity="0.3">
<path opacity="0.3" d="M331.587 164.938H317.002V178.774H331.587V164.938Z" fill="#C1CDD6"/>
</g>
</g>
</g>
<g opacity="0.3">
<g opacity="0.3">
<g opacity="0.3">
<path opacity="0.3" d="M353.424 164.938H338.84V178.774H353.424V164.938Z" fill="#C1CDD6"/>
</g>
</g>
</g>
<g opacity="0.3">
<g opacity="0.3">
<g opacity="0.3">
<path opacity="0.3" d="M375.262 164.938H360.677V178.774H375.262V164.938Z" fill="#C1CDD6"/>
</g>
</g>
</g>
<g opacity="0.3">
<g opacity="0.3">
<g opacity="0.3">
<path opacity="0.3" d="M309.702 181.814H295.118V195.65H309.702V181.814Z" fill="#C1CDD6"/>
</g>
</g>
</g>
<g opacity="0.3">
<g opacity="0.3">
<g opacity="0.3">
<path opacity="0.3" d="M331.587 181.814H317.002V195.65H331.587V181.814Z" fill="#C1CDD6"/>
</g>
</g>
</g>
<g opacity="0.3">
<g opacity="0.3">
<g opacity="0.3">
<path opacity="0.3" d="M353.424 181.814H338.84V195.65H353.424V181.814Z" fill="#C1CDD6"/>
</g>
</g>
</g>
<g opacity="0.3">
<g opacity="0.3">
<g opacity="0.3">
<path opacity="0.3" d="M375.262 181.814H360.677V195.65H375.262V181.814Z" fill="#C1CDD6"/>
</g>
</g>
</g>
<g opacity="0.3">
<g opacity="0.3">
<path opacity="0.3" d="M129.355 128.311L114.77 128.799L115.147 142.634L129.731 142.147L129.355 128.311Z" fill="#C1CDD6"/>
</g>
</g>
<g opacity="0.3">
<g opacity="0.3">
<g opacity="0.3">
<path opacity="0.3" d="M107.094 128.971L92.5093 129.475L92.8707 143.296L107.455 142.809L107.094 128.974" fill="#C1CDD6"/>
</g>
</g>
</g>
<g opacity="0.3">
<g opacity="0.3">
<g opacity="0.3">
<path opacity="0.3" d="M84.8488 129.631L70.248 130.135L70.6408 143.957L85.2103 143.485L84.8488 129.631Z" fill="#C1CDD6"/>
</g>
</g>
</g>
<g opacity="0.3">
<g opacity="0.3">
<path opacity="0.3" d="M62.6034 130.292L48.0347 130.763L48.3961 144.598L62.9648 144.127L62.6034 130.292Z" fill="#C1CDD6"/>
</g>
</g>
<g opacity="0.3">
<g opacity="0.3">
<path opacity="0.3" d="M129.873 145.187L115.288 145.674L115.649 159.51L130.234 159.023L129.873 145.187Z" fill="#C1CDD6"/>
</g>
</g>
<g opacity="0.3">
<g opacity="0.3">
<path opacity="0.3" d="M107.612 145.847L93.0273 146.318L93.404 160.154L107.989 159.666L107.612 145.847Z" fill="#C1CDD6"/>
</g>
</g>
<g opacity="0.3">
<g opacity="0.3">
<g opacity="0.3">
<path opacity="0.3" d="M85.3509 146.509L70.7661 146.997L71.1428 160.833L85.7123 160.329L85.3509 146.507" fill="#C1CDD6"/>
</g>
</g>
</g>
<g opacity="0.3">
<g opacity="0.3">
<g opacity="0.3">
<path opacity="0.3" d="M63.1213 147.12L48.5518 147.607L48.9132 161.443L63.514 160.955L63.1213 147.12Z" fill="#C1CDD6"/>
</g>
</g>
</g>
<g opacity="0.3">
<g opacity="0.3">
<g opacity="0.3">
<path opacity="0.3" d="M130.39 162.065L115.806 162.536L116.167 176.372L130.768 175.885L130.391 162.062" fill="#C1CDD6"/>
</g>
</g>
</g>
<g opacity="0.3">
<g opacity="0.3">
<path opacity="0.3" d="M108.129 162.723L93.5444 163.21L93.9211 177.033L108.491 176.545L108.129 162.723Z" fill="#C1CDD6"/>
</g>
</g>
<g opacity="0.3">
<g opacity="0.3">
<path opacity="0.3" d="M85.8527 163.382L71.2832 163.87L71.6446 177.692L86.2294 177.221L85.8527 163.385" fill="#C1CDD6"/>
</g>
</g>
<g opacity="0.3">
<g opacity="0.3">
<g opacity="0.3">
<path opacity="0.3" d="M63.6233 163.995L49.0225 164.483L49.3991 178.318L63.9839 177.83L63.6225 163.995" fill="#C1CDD6"/>
</g>
</g>
</g>
<g opacity="0.3">
<g opacity="0.3">
<g opacity="0.3">
<path opacity="0.3" d="M130.908 178.891L116.323 179.395L116.7 193.216L131.269 192.746L130.908 178.892" fill="#C1CDD6"/>
</g>
</g>
</g>
<g opacity="0.3">
<g opacity="0.3">
<g opacity="0.3">
<path opacity="0.3" d="M108.632 179.599L94.0625 180.07L94.4239 193.905L109.009 193.434L108.632 179.599Z" fill="#C1CDD6"/>
</g>
</g>
</g>
<g opacity="0.3">
<g opacity="0.3">
<g opacity="0.3">
<path opacity="0.3" d="M86.4021 180.211L71.8013 180.698L72.1779 194.534L86.7627 194.047L86.4013 180.211" fill="#C1CDD6"/>
</g>
</g>
</g>
<g opacity="0.3">
<g opacity="0.3">
<g opacity="0.3">
<path opacity="0.3" d="M64.1253 180.873L49.5405 181.36L49.9019 195.196L64.4867 194.725L64.1253 180.871" fill="#C1CDD6"/>
</g>
</g>
</g>
<path opacity="0.3" d="M729.818 141.831L658.024 134.425V133.591L729.818 141.013V141.83V141.831Z" fill="#A9BED3"/>
<path opacity="0.3" d="M729.818 131.132L658.024 121.131V120.298L729.818 130.299V131.132Z" fill="#A9BED3"/>
<path opacity="0.3" d="M729.818 121.36L658.024 108.593V107.759L729.818 120.524V121.36Z" fill="#A9BED3"/>
<path opacity="0.3" d="M729.818 111.101L658.024 97.2787V96.4453L729.818 110.265V111.101Z" fill="#A9BED3"/>
<path opacity="0.3" d="M729.818 101.486L658.024 86.4369V85.6035L729.818 100.652V101.486Z" fill="#A9BED3"/>
<path opacity="0.3" d="M669.241 146.792L668.425 146.729V80.4658L669.241 80.6549V146.792Z" fill="#A9BED3"/>
<path opacity="0.3" d="M679.924 147.576L679.108 147.528V82.9167L679.924 83.1058V147.576Z" fill="#A9BED3"/>
<path opacity="0.3" d="M689.95 148.33L689.133 148.267V85.2271L689.95 85.4153V148.33Z" fill="#A9BED3"/>
<path opacity="0.3" d="M699.738 149.019L698.922 148.972V87.4424L699.738 87.6314V149.019Z" fill="#A9BED3"/>
<path opacity="0.3" d="M710.375 149.803L709.558 149.74V89.8933L710.375 90.0823V149.803Z" fill="#A9BED3"/>
<path opacity="0.3" d="M720.399 150.51L719.583 150.462V92.1562L720.399 92.3453V150.51Z" fill="#A9BED3"/>
<path opacity="0.3" d="M740.606 119.739L739.773 119.519V110.398L740.181 110.479H740.606V119.739Z" fill="#A9BED3"/>
<path opacity="0.3" d="M749.911 110.21H749.092V118.764H749.911V110.21Z" fill="#A9BED3"/>
<path opacity="0.3" d="M759.79 110.069H758.979V118.261H759.79V110.069Z" fill="#A9BED3"/>
<path opacity="0.3" d="M769.628 110.116H768.809V118.167H769.628V110.116Z" fill="#A9BED3"/>
<path opacity="0.3" d="M779.515 110.352H778.695V118.591H779.515V110.352Z" fill="#A9BED3"/>
<path opacity="0.3" d="M789.345 110.964H788.534V119.314H789.345V110.964Z" fill="#A9BED3"/>
<path opacity="0.3" d="M741.061 139.866L740.244 139.755V132.318L740.652 132.381L741.06 132.428L741.061 139.866Z" fill="#A9BED3"/>
<path opacity="0.3" d="M769.628 133.968H768.809V141.815H769.628V133.968Z" fill="#A9BED3"/>
<path opacity="0.3" d="M779.306 133.968H778.695V141.815H779.306V133.968Z" fill="#A9BED3"/>
<path opacity="0.3" d="M789.345 133.544H788.534V141.249H789.345V133.544Z" fill="#A9BED3"/>
<path opacity="0.3" d="M798.195 120.318L797.737 120.335L797.376 120.288V112.002L797.786 112.082L798.195 112.065V120.318Z" fill="#A9BED3"/>
<path opacity="0.3" d="M729.592 116.941L729.184 116.831V108.371L729.592 108.452V116.941Z" fill="#A9BED3"/>
<path opacity="0.3" d="M729.639 138.312L729.184 138.232V130.574L729.639 130.637V138.312Z" fill="#A9BED3"/>
<path opacity="0.3" d="M806.057 111.625H805.238V119.849H806.057V111.625Z" fill="#A9BED3"/>
<path opacity="0.3" d="M806.057 140.652L805.238 140.669V132.476L806.057 132.413V140.652Z" fill="#A9BED3"/>
<path opacity="0.3" d="M813.503 131.941H813.101V140.401H813.503V131.941Z" fill="#A9BED3"/>
<path opacity="0.3" d="M823.188 152.442L822.369 152.474V95.7068L823.188 95.644V152.442Z" fill="#A9BED3"/>
<path opacity="0.3" d="M831.75 152L830.938 152.031V94.9531L831.75 94.8904V152Z" fill="#A9BED3"/>
<path opacity="0.3" d="M840.271 151.611L839.452 151.658V94.263L840.271 94.1833V151.611Z" fill="#A9BED3"/>
<path opacity="0.3" d="M848.037 151.25L847.218 151.296V93.6034L848.037 93.5229V151.25Z" fill="#A9BED3"/>
<path opacity="0.3" d="M855.048 150.919L854.51 92.9904L855.329 92.9099L855.867 150.886L855.048 150.919Z" fill="#A9BED3"/>
<path opacity="0.3" d="M862.831 150.542L862.188 92.3307L862.999 92.2502L863.642 150.509L862.831 150.542Z" fill="#A9BED3"/>
<path opacity="0.3" d="M870.661 150.196L869.81 91.7L870.629 91.6372L871.44 150.164L870.661 150.196Z" fill="#A9BED3"/>
<path opacity="0.3" d="M878.612 149.805L877.343 91.0582L878.154 90.9778L879.423 149.771L878.612 149.805Z" fill="#A9BED3"/>
<path opacity="0.3" d="M887.302 149.38L886.049 90.3036L886.86 90.2231L888.121 149.346L887.302 149.38Z" fill="#A9BED3"/>
<path opacity="0.3" d="M895.759 149.017L894.939 149.049V89.5789L895.759 89.5161V149.017Z" fill="#A9BED3"/>
<path opacity="0.3" d="M812.395 101.244V100.426L903.34 92.9099V93.728L812.395 101.244Z" fill="#A9BED3"/>
<path opacity="0.3" d="M812.346 110.436L812.362 109.602L903.372 103.705V104.522L812.346 110.436Z" fill="#A9BED3"/>
<path opacity="0.3" d="M813.486 119.376L813.085 119.407L812.908 111.122L813.302 111.106L813.486 119.376Z" fill="#A9BED3"/>
<path opacity="0.3" d="M812.499 119.627L812.482 118.809L903.34 113.416V114.233L812.499 119.627Z" fill="#A9BED3"/>
<path opacity="0.3" d="M812.531 128.63L812.482 127.816L903.34 122.419V123.236L812.531 128.63Z" fill="#A9BED3"/>
<path opacity="0.3" d="M812.482 137.629V136.812L903.34 131.423V132.24L812.482 137.629Z" fill="#A9BED3"/>
<path opacity="0.3" d="M812.531 146.606L812.482 145.789L903.34 140.379V141.197L812.531 146.606Z" fill="#A9BED3"/>
<path opacity="0.3" d="M907.38 92.6171L906.569 92.2712V84.9438H907.38V92.6171Z" fill="#A9BED3"/>
<path opacity="0.3" d="M914.664 84.0567L915.475 84.0479L916.319 162.918L915.499 162.926L914.664 84.0567Z" fill="#A9BED3"/>
<path opacity="0.3" d="M906.962 92.4707L905.155 91.7162L924.246 91.0244L924.278 91.8433L906.962 92.4707Z" fill="#A9BED3"/>
<path opacity="0.3" d="M906.802 98.5126L921.427 98.001L921.451 98.8191L906.834 99.3299L906.802 98.5126Z" fill="#A9BED3"/>
<path opacity="0.3" d="M906.802 105.583L921.427 105.072L921.451 105.89L906.834 106.401L906.802 105.583Z" fill="#A9BED3"/>
<path opacity="0.3" d="M906.802 112.702L921.427 112.19L921.451 113.007L906.834 113.519L906.802 112.702Z" fill="#A9BED3"/>
<path opacity="0.3" d="M909.581 120.249L924.213 119.591L924.245 120.408L909.613 121.066L909.581 120.249Z" fill="#A9BED3"/>
<path opacity="0.3" d="M906.802 126.937L921.427 126.426L921.451 127.244L906.834 127.754L906.802 126.937Z" fill="#A9BED3"/>
<path opacity="0.3" d="M906.802 134.008L921.427 133.496L921.451 134.314L906.834 134.826L906.802 134.008Z" fill="#A9BED3"/>
<path opacity="0.3" d="M906.802 141.126L921.427 140.615L921.451 141.432L906.834 141.943L906.802 141.126Z" fill="#A9BED3"/>
<path opacity="0.3" d="M906.802 148.243L921.427 147.733L921.451 148.55L906.834 149.062L906.802 148.243Z" fill="#A9BED3"/>
<path opacity="0.3" d="M909.581 155.838L924.213 155.181L924.245 155.997L909.613 156.655L909.581 155.838Z" fill="#A9BED3"/>
<path opacity="0.3" d="M648.957 166.701L648.47 73.5833L649.302 73.7441L649.773 166.707L648.957 166.701Z" fill="#A9BED3"/>
<path opacity="0.3" d="M641.364 166.956L640.045 71.8865L640.862 72.0594L642.181 166.94L641.364 166.956Z" fill="#A9BED3"/>
<path opacity="0.3" d="M602.035 88.385V173.533H601.218V88.6054L602.035 88.385Z" fill="#A9BED3"/>
<path opacity="0.3" d="M655.137 86.5343L634.728 82.3361V81.5027L655.137 85.7009V86.5343Z" fill="#A9BED3"/>
<path opacity="0.3" d="M655.121 95.6788V96.5121L634.838 92.3292L634.822 91.4958L655.121 95.6788Z" fill="#A9BED3"/>
<path opacity="0.3" d="M655.137 105.688V106.521L634.979 102.37L634.963 101.536L655.137 105.688Z" fill="#A9BED3"/>
<path opacity="0.3" d="M655.152 115.665V116.498L635.12 112.38L635.104 111.53L655.152 115.665Z" fill="#A9BED3"/>
<path opacity="0.3" d="M655.12 125.61V126.459L635.213 122.357L635.198 121.523L655.12 125.61Z" fill="#A9BED3"/>
<path opacity="0.3" d="M655.136 135.637V136.471L635.356 132.398L635.339 131.564L655.136 135.637Z" fill="#A9BED3"/>
<path opacity="0.3" d="M655.133 145.595V146.432L635.48 142.391V141.557L655.133 145.595Z" fill="#A9BED3"/>
<path opacity="0.3" d="M655.121 155.572V156.406L635.59 152.384L635.574 151.55L655.121 155.572Z" fill="#A9BED3"/>
<path opacity="0.3" d="M655.121 165.554V166.387L635.716 162.396V161.544L655.121 165.554Z" fill="#A9BED3"/>
<path opacity="0.3" d="M797.922 98.9623C792.814 97.3937 787.553 96.3761 782.221 95.9272V167.505L797.922 167.096V98.9623Z" fill="#8399AA"/>
<path opacity="0.3" d="M568.244 97.8127V111.053L567.427 111.258V98.0171L567.835 97.9069L568.244 97.8127Z" fill="#A9BED3"/>
<path opacity="0.3" d="M578.503 96.5403V109.827H577.687V96.5877C577.922 96.5564 578.221 96.5564 578.503 96.5403Z" fill="#A9BED3"/>
<path opacity="0.3" d="M591.006 96.5409V109.796H590.252V96.4927L591.006 96.5409Z" fill="#A9BED3"/>
<path opacity="0.3" d="M568.244 181.164V167.908L567.427 168.112V181.368L568.244 181.164Z" fill="#A9BED3"/>
<path opacity="0.3" d="M578.503 166.682H577.687V179.938H578.503V166.682Z" fill="#A9BED3"/>
<path opacity="0.3" d="M591.022 166.682H590.206V179.938H591.022V166.682Z" fill="#A9BED3"/>
<path opacity="0.3" d="M568.244 157.783V144.527L567.427 144.731V157.987L568.244 157.783Z" fill="#A9BED3"/>
<path opacity="0.3" d="M578.503 143.255V156.51H577.687V143.301L578.503 143.255Z" fill="#A9BED3"/>
<path opacity="0.3" d="M591.022 143.286V156.541H590.206V143.255L591.022 143.286Z" fill="#A9BED3"/>
<path opacity="0.3" d="M568.244 134.449V121.194L567.427 121.398V134.654L568.244 134.449V134.449Z" fill="#A9BED3"/>
<path opacity="0.3" d="M578.503 119.92V133.176H577.687V119.969L578.503 119.92Z" fill="#A9BED3"/>
<path opacity="0.3" d="M591.022 119.952V133.208H590.206V119.92L591.022 119.952Z" fill="#A9BED3"/>
<path opacity="0.3" d="M963.013 133.67V146.862L962.193 146.5V133.308L963.013 133.67Z" fill="#A9BED3"/>
<path opacity="0.3" d="M952.684 131.187V144.443L953.503 144.553V131.312L952.684 131.187Z" fill="#A9BED3"/>
<path opacity="0.3" d="M963.013 157.004V170.259L962.193 169.897V156.642L963.013 157.004Z" fill="#A9BED3"/>
<path opacity="0.3" d="M952.684 154.568V167.808L953.503 167.919V154.646L952.684 154.568Z" fill="#A9BED3"/>
<path opacity="0.3" d="M963.013 110.242V123.498L962.193 123.136V109.88L963.013 110.242Z" fill="#A9BED3"/>
<path opacity="0.3" d="M952.684 107.806V121.062L953.503 121.172V107.899L952.684 107.806Z" fill="#A9BED3"/>
<path opacity="0.3" d="M943.336 107.334H942.525V120.59H943.336V107.334Z" fill="#A9BED3"/>
<path opacity="0.3" d="M943.336 130.715H942.525V143.971H943.336V130.715Z" fill="#A9BED3"/>
<path opacity="0.3" d="M943.336 154.049H942.525V167.305H943.336V154.049Z" fill="#A9BED3"/>
<path opacity="0.3" d="M908.304 92.4081V92.2979L913.187 92.9896V162.209L909.749 162.129V93.0057L908.304 92.4081Z" fill="#8399AA"/>
<path opacity="0.3" d="M598.442 97.4219V96.5724L604.769 95.2202V96.0536L598.442 97.4219Z" fill="#A9BED3"/>
<path opacity="0.3" d="M598.442 104.916V104.082L604.769 102.715V103.564L598.442 104.916Z" fill="#A9BED3"/>
<path opacity="0.3" d="M598.442 112.476V111.657L604.769 110.304V111.138L598.442 112.476Z" fill="#A9BED3"/>
<path opacity="0.3" d="M598.442 120.048V119.214L604.769 117.846V118.68L598.442 120.048Z" fill="#A9BED3"/>
<path opacity="0.3" d="M598.442 127.574V126.741L604.769 125.389V126.222L598.442 127.574Z" fill="#A9BED3"/>
<path opacity="0.3" d="M598.442 135.133V134.283L604.769 132.931V133.764L598.442 135.133Z" fill="#A9BED3"/>
<path opacity="0.3" d="M598.442 142.627V141.794L604.769 140.426V141.26L598.442 142.627Z" fill="#A9BED3"/>
<path opacity="0.3" d="M598.442 150.201V149.367L604.769 148.015V148.848L598.442 150.201Z" fill="#A9BED3"/>
<path opacity="0.3" d="M598.442 157.76V156.909L604.769 155.557V156.391L598.442 157.76Z" fill="#A9BED3"/>
<path opacity="0.3" d="M598.442 165.254V164.42L604.769 163.053V163.902L598.442 165.254Z" fill="#A9BED3"/>
<path opacity="0.3" d="M598.348 172.003L604.673 170.642L604.845 171.442L598.519 172.802L598.347 172.003H598.348Z" fill="#A9BED3"/>
<path opacity="0.3" d="M1031.82 108.843H1031V121.596H1031.82V108.843Z" fill="#CAD6DD"/>
<path opacity="0.3" d="M1043.4 107.476H1042.58V120.229H1043.4V107.476Z" fill="#CAD6DD"/>
<path opacity="0.3" d="M1072.25 106.863H1071.43V119.616H1072.25V106.863Z" fill="#CAD6DD"/>
<path opacity="0.3" d="M1083.12 106.863H1082.3V119.616H1083.12V106.863Z" fill="#CAD6DD"/>
<path opacity="0.3" d="M1094.36 107.853H1093.55V120.606H1094.36V107.853Z" fill="#CAD6DD"/>
<path opacity="0.3" d="M1105.9 108.843H1105.08V121.596H1105.9V108.843Z" fill="#CAD6DD"/>
<path opacity="0.3" d="M1031.82 145.564H1031V164.622H1031.82V145.564Z" fill="#CAD6DD"/>
<path opacity="0.3" d="M1043.4 144.244H1042.58V163.302H1043.4V144.244Z" fill="#CAD6DD"/>
<path opacity="0.3" d="M1072.25 143.584H1071.43V162.643H1072.25V143.584Z" fill="#CAD6DD"/>
<path opacity="0.3" d="M1083.12 143.584H1082.3V162.643H1083.12V143.584Z" fill="#CAD6DD"/>
<path opacity="0.3" d="M1094.36 144.621H1093.55V163.679H1094.36V144.621Z" fill="#CAD6DD"/>
<path opacity="0.3" d="M1105.9 145.564H1105.08V164.622H1105.9V145.564Z" fill="#CAD6DD"/>
<path opacity="0.3" d="M1144.06 138.305H1108.42V144.233H1144.06V138.305Z" fill="#F9F0EF"/>
<path opacity="0.3" d="M1167.17 72.4993H1166.36V85.3775H1167.17V72.4993Z" fill="#CAD6DD"/>
<path opacity="0.3" d="M1178.04 72.4993H1177.23V85.8489H1178.04V72.4993Z" fill="#CAD6DD"/>
<path opacity="0.3" d="M1194.61 72.4993H1193.79V86.1481H1194.61V72.4993Z" fill="#CAD6DD"/>
<path opacity="0.3" d="M1211.18 73.0649H1210.36V85.8496H1211.18V73.0649Z" fill="#CAD6DD"/>
<path opacity="0.3" d="M1227.7 73.3477H1226.88V86.1472H1227.7V73.3477Z" fill="#CAD6DD"/>
<path opacity="0.3" d="M1244.27 74.1021H1243.45V86.3516H1244.27V74.1021Z" fill="#CAD6DD"/>
<path opacity="0.3" d="M1260.83 74.479H1260.02V87.1688H1260.83V74.479Z" fill="#CAD6DD"/>
<path opacity="0.3" d="M1167.17 106.109H1166.36V118.987H1167.17V106.109Z" fill="#CAD6DD"/>
<path opacity="0.3" d="M1178.04 106.109H1177.23V119.459H1178.04V106.109Z" fill="#CAD6DD"/>
<path opacity="0.3" d="M1194.61 106.109H1193.79V119.758H1194.61V106.109Z" fill="#CAD6DD"/>
<path opacity="0.3" d="M1211.18 107.429H1210.36V120.213H1211.18V107.429Z" fill="#CAD6DD"/>
<path opacity="0.3" d="M1227.7 107.429H1226.88V120.228H1227.7V107.429Z" fill="#CAD6DD"/>
<path opacity="0.3" d="M1244.27 108.277H1243.45V120.527H1244.27V108.277Z" fill="#CAD6DD"/>
<path opacity="0.3" d="M1260.83 108.513H1260.02V121.202H1260.83V108.513Z" fill="#CAD6DD"/>
<path opacity="0.3" d="M1122.75 44.7817H1121.93V53.3671H1122.75V44.7817Z" fill="#AEBECE"/>
<path opacity="0.3" d="M1131.36 44.7817H1130.54V53.3671H1131.36V44.7817Z" fill="#AEBECE"/>
<path opacity="0.3" d="M1139.73 44.7817H1138.92V53.3671H1139.73V44.7817Z" fill="#AEBECE"/>
<path opacity="0.3" d="M1148.96 44.7817H1148.14V49.2631H1148.96V44.7817Z" fill="#AEBECE"/>
<path opacity="0.3" d="M1157.24 44.7817H1156.43V49.0749H1157.24V44.7817Z" fill="#AEBECE"/>
<path opacity="0.3" d="M1113.89 20.2695H1106.87V21.0875H1113.89V20.2695Z" fill="#AEBECE"/>
<path opacity="0.3" d="M1171.78 20.2695H1164.76V21.0875H1171.78V20.2695Z" fill="#AEBECE"/>
<path opacity="0.3" d="M1158.21 20.2695H1120.05V21.0875H1158.21V20.2695Z" fill="#AEBECE"/>
<path opacity="0.3" d="M1164.21 48.8357H1114.4V49.6539H1164.21V48.8357Z" fill="#AEBECE"/>
<path opacity="0.3" d="M1112.44 14.3301H1111.62V27.3814H1112.44V14.3301Z" fill="#AEBECE"/>
<path opacity="0.3" d="M1123.03 14.3301H1122.21V25.4631H1123.03V14.3301Z" fill="#AEBECE"/>
<path opacity="0.3" d="M1132.91 14.3301H1132.09V23.8904H1132.91V14.3301Z" fill="#AEBECE"/>
<path opacity="0.3" d="M1145.57 14.3301H1144.75V23.8904H1145.57V14.3301Z" fill="#AEBECE"/>
<path opacity="0.3" d="M1154.28 14.3301H1153.46V24.6771H1154.28V14.3301Z" fill="#AEBECE"/>
<path opacity="0.3" d="M1166.42 14.3301H1165.6V26.1547H1166.42V14.3301Z" fill="#AEBECE"/>
<path opacity="0.3" d="M1136.9 49.2929V52.328C1136.9 52.328 1244.5 52.3279 1330.53 58.6175V55.8021C1330.53 55.8021 1233.01 48.3639 1136.9 49.2929Z" fill="#F9F0EF"/>
<path opacity="0.3" d="M1330.55 54.2095L1335.43 58.7697V166.294L1328.92 166.262V146.701H1330.55V143.917H1330.42V126.855H1330.55V124.072L1330.42 124.056V111.636H1330.55V108.836H1330.42V91.8537H1330.55V89.0705L1330.42 89.0544V78.3937H1330.55V75.6105L1330.42 75.5945V57.0088H1330.55V54.2095Z" fill="#8399AA"/>
<path opacity="0.3" d="M295.118 131.139V132.603H308.572V145.026H309.719V131.139H295.118Z" fill="#A5B8C4"/>
<path opacity="0.3" d="M316.956 131.139V132.603H330.41V145.026H331.556V131.139H316.956Z" fill="#A5B8C4"/>
<path opacity="0.3" d="M295.118 148.015V149.478H308.572V161.9H309.719V148.015H295.118Z" fill="#A5B8C4"/>
<path opacity="0.3" d="M316.956 148.015V149.478H330.41V161.9H331.556V148.015H316.956Z" fill="#A5B8C4"/>
<path opacity="0.3" d="M295.118 164.938V166.402H308.572V178.825H309.719V164.938H295.118Z" fill="#A5B8C4"/>
<path opacity="0.3" d="M316.956 164.938V166.402H330.41V178.825H331.556V164.938H316.956Z" fill="#A5B8C4"/>
<path opacity="0.3" d="M295.118 181.814V183.276H308.572V195.699H309.719V181.814H295.118Z" fill="#A5B8C4"/>
<path opacity="0.3" d="M316.956 181.814V183.276H330.41V195.699H331.556V181.814H316.956Z" fill="#A5B8C4"/>
<path opacity="0.3" d="M338.84 131.139V132.603H352.295V145.026H353.441V131.139H338.84Z" fill="#A5B8C4"/>
<path opacity="0.3" d="M360.677 131.139V132.603H374.147V145.026H375.293V131.139H360.677Z" fill="#A5B8C4"/>
<path opacity="0.3" d="M338.84 148.015V149.478H352.295V161.9H353.441V148.015H338.84Z" fill="#A5B8C4"/>
<path opacity="0.3" d="M360.677 148.015V149.478H374.147V161.9H375.293V148.015H360.677Z" fill="#A5B8C4"/>
<path opacity="0.3" d="M338.84 164.938V166.402H352.295V178.825H353.441V164.938H338.84Z" fill="#A5B8C4"/>
<path opacity="0.3" d="M360.677 164.938V166.402H374.147V178.825H375.293V164.938H360.677Z" fill="#A5B8C4"/>
<path opacity="0.3" d="M338.84 181.814V183.276H352.295V195.699H353.441V181.814H338.84Z" fill="#A5B8C4"/>
<path opacity="0.3" d="M360.677 181.814V183.276H374.147V195.699H375.293V181.814H360.677Z" fill="#A5B8C4"/>
<path opacity="0.3" d="M50.0442 161.397L49.6675 149.1L63.0749 148.738V147.167L48.458 147.638L48.866 161.429L50.0442 161.397Z" fill="#A5B8C4"/>
<path opacity="0.3" d="M49.5735 144.521L49.1968 132.225L62.6042 131.863V130.292L47.9873 130.763L48.3953 144.553L49.5735 144.521Z" fill="#A5B8C4"/>
<path opacity="0.3" d="M50.6046 178.272L50.2432 165.976L63.6506 165.614V164.042L49.0225 164.517L49.4304 178.323L50.6046 178.272Z" fill="#A5B8C4"/>
<path opacity="0.3" d="M51.17 195.165L50.7974 182.852L64.204 182.49V180.918L49.5879 181.39L49.9943 195.196L51.17 195.165Z" fill="#A5B8C4"/>
<path opacity="0.3" d="M71.8342 143.862L71.4728 131.565L84.8802 131.203V129.631L70.248 130.102L70.656 143.909L71.8342 143.862Z" fill="#A5B8C4"/>
<path opacity="0.3" d="M72.396 160.738L72.0225 148.441L85.4299 148.079V146.507L70.813 146.978L71.2202 160.769L72.396 160.738Z" fill="#A5B8C4"/>
<path opacity="0.3" d="M72.7756 177.613L72.4142 165.316L85.8216 164.954V163.382L71.1895 163.854L71.5974 177.644L72.7756 177.613Z" fill="#A5B8C4"/>
<path opacity="0.3" d="M73.3874 194.458L73.026 182.145L86.4334 181.783V180.211L71.8013 180.682L72.2093 194.488L73.3874 194.458Z" fill="#A5B8C4"/>
<path opacity="0.3" d="M94.6135 160.077L94.2521 147.781L107.659 147.419V145.847L93.0273 146.319L93.4353 160.124L94.6135 160.077Z" fill="#A5B8C4"/>
<path opacity="0.3" d="M94.0478 143.218L93.6719 130.921L107.078 130.543V128.971L92.4624 129.459L92.8704 143.25L94.0478 143.218Z" fill="#A5B8C4"/>
<path opacity="0.3" d="M95.0834 176.97L94.7068 164.657L108.129 164.296V162.723L93.498 163.21L93.906 177.001L95.0834 176.97Z" fill="#A5B8C4"/>
<path opacity="0.3" d="M95.6479 193.844L95.2865 181.547L108.694 181.17V179.599L94.0625 180.089L94.4865 193.879L95.6479 193.844Z" fill="#A5B8C4"/>
<path opacity="0.3" d="M116.874 159.464L116.498 147.167L129.905 146.805V145.234L115.288 145.706L115.696 159.496L116.874 159.464Z" fill="#A5B8C4"/>
<path opacity="0.3" d="M116.31 142.589L115.948 130.292L129.355 129.93V128.359L114.724 128.83L115.132 142.636L116.31 142.589Z" fill="#A5B8C4"/>
<path opacity="0.3" d="M117.862 193.185L117.485 180.873L130.893 180.511V178.938L116.276 179.409L116.684 193.215L117.862 193.185Z" fill="#A5B8C4"/>
<path opacity="0.3" d="M117.345 176.293L116.984 163.996L130.39 163.634V162.062L115.759 162.534L116.183 176.325L117.345 176.293Z" fill="#A5B8C4"/>
<path opacity="0.3" d="M35.7983 123.959L36.1911 136.932L145.365 133.221L145.003 120.109L35.7983 123.959Z" fill="black"/>
<path opacity="0.3" d="M288.011 122.358V132.436L379.381 132.578V123.408L291.151 120.722L288.011 122.358Z" fill="black"/>
<path opacity="0.3" d="M229.248 202.83H228.416L225.275 84.7083C225.556 84.8032 225.829 84.919 226.092 85.0541L229.248 202.83Z" fill="#A9BED3"/>
<path opacity="0.3" d="M219.645 84.3784V203.082H218.828V84.6141C219.095 84.5184 219.367 84.4404 219.644 84.3784H219.645Z" fill="#A9BED3"/>
<path opacity="0.3" d="M231.899 94.246H212.053C212.041 93.9709 212.068 93.6958 212.134 93.4287H231.789C231.842 93.699 231.879 93.9717 231.899 94.246Z" fill="#A9BED3"/>
<path opacity="0.3" d="M232.115 103.722H212.004V102.904H232.1L232.115 103.722Z" fill="#A9BED3"/>
<path opacity="0.3" d="M232.271 112.473H212.05V113.29H232.271V112.473Z" fill="#A9BED3"/>
<path opacity="0.3" d="M232.554 121.995H212.05V122.813H232.554V121.995Z" fill="#A9BED3"/>
<path opacity="0.3" d="M232.758 131.564H212.05V132.382H232.758V131.564Z" fill="#A9BED3"/>
<path opacity="0.3" d="M232.962 141.086H212.05V141.904H232.962V141.086Z" fill="#A9BED3"/>
<path opacity="0.3" d="M233.182 150.655H212.05V151.473H233.182V150.655Z" fill="#A9BED3"/>
<path opacity="0.3" d="M233.386 160.177H212.05V160.995H233.386V160.177Z" fill="#A9BED3"/>
<path opacity="0.3" d="M233.59 169.746H212.05V170.564H233.59V169.746Z" fill="#A9BED3"/>
<path opacity="0.3" d="M233.794 179.268H212.05V180.086H233.794V179.268Z" fill="#A9BED3"/>
<path opacity="0.3" d="M233.998 188.837H212.05V189.655H233.998V188.837Z" fill="#A9BED3"/>
<path opacity="0.3" d="M234.202 198.36H212.05V199.177H234.202V198.36Z" fill="#A9BED3"/>
<path opacity="0.3" d="M221.938 101.734C225.294 101.734 228.014 99.0096 228.014 95.6488C228.014 92.288 225.294 89.5635 221.938 89.5635C218.583 89.5635 215.863 92.288 215.863 95.6488C215.863 99.0096 218.583 101.734 221.938 101.734Z" fill="#F9F0EF"/>
<path opacity="0.3" d="M221.955 102.569C218.174 102.569 215.063 99.4522 215.063 95.6651C215.063 91.8787 218.174 88.7625 221.955 88.7625C225.736 88.7625 228.847 91.8787 228.847 95.6651C228.847 99.4522 225.736 102.569 221.955 102.569ZM221.955 89.5805C218.622 89.5805 215.88 92.3276 215.88 95.6659C215.88 99.0034 218.622 101.75 221.955 101.75C225.288 101.75 228.03 99.0034 228.03 95.6651C228.03 92.3276 225.288 89.5805 221.955 89.5805Z" fill="black"/>
<path opacity="0.3" d="M1146.04 153.02L1320.64 155.222V145.441L1153.28 141.935L1144.52 142.815L1146.04 153.02Z" fill="#8399AA"/>
<path opacity="0.3" d="M1152.05 142.783H1143.81V165.348H1152.05V142.783Z" fill="#D9DADB"/>
<path opacity="0.3" d="M1210.51 142.783H1202.26V165.348H1210.51V142.783Z" fill="#D9DADB"/>
<path opacity="0.3" d="M1266.89 142.783H1258.65V165.348H1266.89V142.783Z" fill="#D9DADB"/>
<path opacity="0.3" d="M1328.88 142.783H1320.63V165.348H1328.88V142.783Z" fill="#D9DADB"/>
<path opacity="0.3" d="M1136.9 140.237V143.272C1136.9 143.272 1243.46 144.185 1330.53 145.694V142.91C1330.53 142.91 1233.71 140.945 1136.9 140.237Z" fill="#F9F0EF"/>
<path opacity="0.3" d="M740.479 139.504V132.13L755.629 133.702V148.262C751.911 148.404 742.57 149.3 742.57 149.3V154.207L755.629 153.829V166.408H740.479V132.932" fill="#8399AA"/>
<path opacity="0.3" d="M224.823 97.7227C224.756 97.7372 224.686 97.7372 224.618 97.7227L221.761 96.0399C221.636 95.9707 221.557 95.838 221.558 95.694V92.4233C221.558 92.1989 221.742 92.0146 221.966 92.0146C222.189 92.0146 222.373 92.1989 222.373 92.4233V95.4109L225.023 96.9835C225.218 97.0977 225.288 97.3471 225.185 97.5466C225.099 97.66 224.965 97.7259 224.823 97.7227Z" fill="black"/>
<path opacity="0.3" d="M604.868 87.5533L604.617 167.497L602.105 170.091L601.289 170.941L590.488 182.105V85.4626C592.058 85.4626 600.112 86.5631 600.112 86.5631V88.8741L601.289 88.5435L602.105 88.3239L604.868 87.5533Z" fill="#8399AA"/>
<path opacity="0.3" d="M938.236 96.3704C942.075 96.2393 945.914 96.3037 949.745 96.5627V162.853L938.236 162.523V96.3704Z" fill="#8399AA"/>
<path opacity="0.3" d="M1025.35 122.262V124.825C1025.35 124.825 1038.54 121.856 1065.76 121.887C1092.99 121.918 1109.29 124.827 1109.29 124.827V121.572C1109.29 121.572 1083.52 118.883 1066.22 118.883C1052.54 119.056 1038.88 120.185 1025.35 122.262Z" fill="#F9F0EF"/>
<path opacity="0.3" d="M1025.36 107.258V109.822C1025.36 109.822 1038.55 106.866 1065.77 106.881C1093 106.896 1109.3 109.822 1109.3 109.822V107.258C1109.3 107.258 1083.52 103.893 1066.22 103.893C1052.54 104.065 1038.88 105.19 1025.35 107.258H1025.36Z" fill="#F9F0EF"/>
<path opacity="0.3" d="M1025.36 144.181V146.775C1025.36 146.775 1038.55 143.822 1065.77 143.838C1093 143.854 1109.3 146.778 1109.3 146.778V143.476C1109.3 143.476 1083.52 140.803 1066.22 140.803C1052.54 140.976 1038.88 142.104 1025.35 144.181H1025.36Z" fill="#F9F0EF"/>
<path opacity="0.3" d="M1136.9 84.4748V87.493C1136.9 87.493 1243.46 87.1945 1330.53 91.8641V89.0809C1330.53 89.0809 1233.71 84.3646 1136.9 84.474V84.4748Z" fill="#F9F0EF"/>
<path opacity="0.3" d="M1136.9 103.896V106.915C1136.9 106.915 1243.46 106.569 1330.53 111.286V108.502C1330.53 108.502 1233.71 103.786 1136.9 103.896Z" fill="#F9F0EF"/>
<path opacity="0.3" d="M1136.9 118.695V121.714C1136.9 121.714 1243.65 123.522 1330.53 126.243V123.46C1330.53 123.46 1233.71 119.387 1136.9 118.695Z" fill="#F9F0EF"/>
<path opacity="0.3" d="M1136.9 69.479V72.4977C1136.9 72.4977 1244.5 72.4977 1330.53 78.7875V75.9262C1330.53 75.9262 1233.01 68.4887 1136.9 69.479Z" fill="#F9F0EF"/>
<path opacity="0.3" d="M1143.03 51.8525L1132.05 68.5519V163.793H1143.96V51.8525H1143.03Z" fill="#8399AA"/>
<path opacity="0.3" d="M1348.63 108.844V112.24C1348.63 112.24 1372.18 109.987 1392.12 118.529V115.151C1392.12 115.151 1383.47 108.797 1348.63 108.844Z" fill="#F9F0EF"/>
<path opacity="0.3" d="M1348.63 122.372V125.768C1348.63 125.768 1372.18 123.516 1392.12 132.058V128.679C1392.12 128.679 1383.47 122.325 1348.63 122.372Z" fill="#F9F0EF"/>
<path opacity="0.3" d="M600.447 186.622V188.178L584.763 196.89L561.497 191.717V190.176L584.763 195.349L600.447 186.622Z" fill="#F4C0B5"/>
<path opacity="0.3" d="M984.311 170.983V211.472L980.56 211.504L943.32 211.85V201.831H935.112V187.364L930.887 187.883H845.17V199.538H844.182V187.884H840.383L838.857 190.038L820.907 190.415V170.193L822.369 163.731L877.054 160.413L964.908 161.513V164.863H980.56V170.964L984.311 170.983Z" fill="#D9DADB"/>
<path opacity="0.3" d="M844.046 188.743H661.413V194.404H844.046V188.743Z" fill="#D9DADB"/>
<path opacity="0.3" d="M944.902 199.208H928.687V213.14H944.902V199.208Z" fill="#CACBCC"/>
<path opacity="0.3" d="M1479.98 172.27V206.926L933.257 211.846V201.831L928.575 199.048L925.041 187.365L920.816 187.884H835.099V199.538H834.111V187.884H830.312L828.786 190.038L810.836 190.415V170.193L812.298 163.731L866.983 160.413L954.837 161.513V164.863H970.49V170.964L1479.98 172.27Z" fill="#D1D1D1"/>
<path opacity="0.3" d="M984.311 170.983V211.472L980.56 211.504L943.32 211.85V201.831H935.112V187.364L930.887 187.883H845.17V199.538H844.182V187.884H840.383L838.857 190.038L820.907 190.415V170.193L822.369 163.731L877.054 160.413L964.908 161.513V164.863H980.56V170.964L984.311 170.983Z" fill="#D9DADB"/>
<path opacity="0.3" d="M934.935 189.262V201.636L934.004 202.03V203.822L933.265 204.309V206.401L932.325 206.92V208.759L931.651 209.278V211.307H930.711V189.844L934.935 189.262Z" fill="#F7F7F7"/>
<path opacity="0.3" d="M930.711 187.989L934.935 187.47V189.562L930.711 190.143V187.989Z" fill="#BABABA"/>
<path opacity="0.3" d="M845.62 210.551V187.706H931.337V211.324L845.62 210.554" fill="#BABABA"/>
<path opacity="0.3" d="M845.62 212.673V189.827H931.337V213.43L845.62 212.673Z" fill="#E8E9EA"/>
<path opacity="0.3" d="M595.242 175.142C595.242 175.142 599.826 166.761 602.526 166.761C605.226 166.761 648.223 165.551 648.223 165.551L825.718 166.416L824.778 170.598L595.241 175.142" fill="#F9F0EF"/>
<path opacity="0.3" d="M392.021 210.673V201.756L458.869 191.63L547.9 183.563L592.785 174.809L679.587 172.199L827.332 170.123V173.441L669.147 176.068L652.144 191.415L609.944 191.934L530.238 198.851H460.533V208.726L392.021 210.673Z" fill="#F9F0EF"/>
<path opacity="0.3" d="M373.337 211.151V197.518H504.254L653.979 187.989V209.217L373.337 211.147" fill="#F4E3E1"/>
<path opacity="0.3" d="M665.884 176.285L824.072 173.659V190.578L665.884 191.632V176.285Z" fill="#D1D1D1"/>
<path opacity="0.3" d="M650.576 191.457L667.578 176.11V192.699H663.543V196.756H659.084V200.561H655.128V205.109L653.527 206.115L646.023 204.667L647.263 198.802L650.576 192.701" fill="#D9DADB"/>
<path opacity="0.3" d="M845.692 199.315H846.68V210.51L835.043 210.416L834.842 206.395L837.789 203.423L840.584 199.931L842.737 198.689L845.692 199.318" fill="#CACBCC"/>
<path opacity="0.3" d="M844.608 187.848H841.909L832.77 200.804H835.058L844.608 187.848Z" fill="#C8CACC"/>
<path opacity="0.3" d="M835.026 200.663L844.576 187.706H845.676V199.358H842.391V201.182H840.351V203.887H838.215V206.072H836.239V208.336H835.026V200.663Z" fill="#E8E9EA"/>
<path opacity="0.3" d="M607.148 207.217V191.807L649.349 191.288V204.714L835.179 206.742V210.425L607.148 207.217Z" fill="#C8CACC"/>
<path opacity="0.3" d="M86.493 210.003H76.5078V211.481H86.493V210.003Z" fill="#E8E9EA"/>
<path opacity="0.3" d="M86.493 207.221H76.5078V208.699H86.493V207.221Z" fill="#E8E9EA"/>
<path opacity="0.3" d="M86.493 204.393H76.5078V205.871H86.493V204.393Z" fill="#E8E9EA"/>
<path opacity="0.3" d="M86.493 201.612H76.5078V203.09H86.493V201.612Z" fill="#F9F0EF"/>
<path opacity="0.3" d="M71.8013 203.014L382.948 197.464V212.056L71.8013 219.824V203.012" fill="#F4E3E1"/>
<path opacity="0.3" d="M86.4849 187.894V222.551L173.551 219.17V191.7L86.4849 187.894Z" fill="#E8DBDA"/>
<path opacity="0.3" d="M841.941 191.241L823.228 191.603L661.779 192.561V196.617H657.32V200.423H653.364V204.966L834.336 206.775V201.177L841.941 191.241Z" fill="#E8E9EA"/>
<path opacity="0.3" d="M657.365 200.468V196.662H837.878L834.376 201.223L657.365 200.468Z" fill="#D9DADB"/>
<path opacity="0.3" d="M-61.3882 259.79L23.0662 219.724L462.498 207.003L609.248 205.619L836.086 208.874L1019.54 209.362L1191.09 207.789L1479.98 205.147V291.962H-61.3876V259.79H-61.3882Z" fill="#9FC1A5"/>
<path opacity="0.3" d="M47.5495 291.999V219.101L12.4454 220.092L-61.3882 259.827V292.003H47.5495" fill="#9FB0C4"/>
<path opacity="0.3" d="M-38.0403 291.888L19.686 219.76L16.3418 219.921L-43.5039 291.888H-30.6774" fill="#F9F0EF"/>
<path opacity="0.3" d="M23.1094 291.999L43.173 219.195L38.9815 219.336L18.7139 291.999H23.1094Z" fill="#F9F0EF"/>
<path opacity="0.3" d="M80.6639 292.047L60.3184 218.221L64.4312 218.11L85.045 291.984" fill="#F9F0EF"/>
<path opacity="0.3" d="M611.767 291.991L848.342 208.918L842.969 208.981L601.595 291.991" fill="#F9F0EF"/>
<path opacity="0.3" d="M835.155 200.622H832.866V210.418H835.155V200.622Z" fill="#C8CACC"/>
<path opacity="0.3" d="M953.102 188.13H950.387L941.256 201.088H943.561L953.102 188.13Z" fill="#BABABA"/>
<path opacity="0.3" d="M943.561 200.946L953.102 187.989H954.202V199.625H950.909V201.465H948.885V204.169H946.733V206.341H944.757V208.621H943.561V200.948" fill="#E8E9EA"/>
<path opacity="0.3" d="M941.344 210.67L941.368 200.857L943.665 200.864L943.641 210.676L941.344 210.67Z" fill="#BABABA"/>
<g opacity="0.3">
<g opacity="0.3">
<g opacity="0.3">
<path opacity="0.3" d="M758.89 250.709C700.553 252.407 661.383 246.951 661.383 240.803C661.383 234.655 700.552 226.919 758.89 225.221C817.229 223.522 856.43 228.979 856.43 235.127C856.43 241.274 817.181 249.011 758.89 250.709ZM758.89 223.585C709.753 225.016 658.918 231.871 658.918 240.879C658.918 249.889 709.755 253.789 758.89 252.358C808.025 250.927 858.863 244.087 858.863 235.064C858.863 226.04 808.049 222.154 758.89 223.585Z" fill="#F9F0EF"/>
</g>
</g>
</g>
<path opacity="0.3" d="M320.959 218.497H320.834L310.943 217.46C310.612 217.426 310.31 217.254 310.111 216.988C309.906 216.72 309.815 216.38 309.86 216.045L314.664 185.115C314.757 184.521 315.272 184.078 315.873 184.077H319.735V183.983C319.735 183.31 320.288 182.757 320.96 182.757H400.681C401.353 182.757 401.906 183.31 401.906 183.983V216.17C401.904 216.538 401.737 216.885 401.45 217.114C401.167 217.352 400.791 217.444 400.429 217.365L389.063 215.07C388.409 214.936 387.973 214.296 388.09 213.636L393.458 185.207H322.184V217.284C322.184 217.957 321.631 218.511 320.959 218.511V218.497ZM312.481 215.132L319.734 215.903V186.514H316.923L312.481 215.132ZM390.806 212.88L399.535 214.641V185.193H396.034L390.806 212.88Z" fill="#F9F0EF"/>
<path opacity="0.3" d="M311.152 217.267C311.142 217.267 311.131 217.268 311.12 217.268C310.449 217.268 309.896 216.714 309.896 216.041C309.896 215.368 310.449 214.815 311.12 214.815C311.131 214.815 311.142 214.815 311.152 214.815L389.382 212.456C389.408 212.454 389.434 212.454 389.46 212.454C390.107 212.454 390.637 212.986 390.637 213.633C390.637 213.634 390.637 213.634 390.637 213.635C390.638 213.651 390.639 213.667 390.639 213.683C390.639 214.338 390.115 214.884 389.46 214.909L311.23 217.267H311.152Z" fill="#F9F0EF"/>
<path opacity="0.3" d="M316.212 186.889C315.66 186.887 315.176 186.511 315.034 185.977C314.997 185.858 314.978 185.734 314.978 185.608C314.978 185.042 315.365 184.543 315.914 184.404L320.985 183.084C321.091 183.054 321.201 183.039 321.311 183.039C321.984 183.039 322.538 183.594 322.538 184.267C322.538 184.828 322.155 185.32 321.613 185.459L316.526 186.796L316.212 186.889Z" fill="#F9F0EF"/>
<path opacity="0.3" d="M76.5272 187.894L12.4546 195.961V221.514L76.5272 220.682V187.894Z" fill="#E8DBDA"/>
<path opacity="0.3" d="M954.853 162.016H1099.37L1216.34 163.431L1332.51 164.862L1390.85 164.878L1480 167.378V172.788L1323.63 172.379L1228.65 172.126L1115.33 171.844L1007.65 171.561L970.505 171.466V165.365H954.853V162.016Z" fill="#F9F0EF"/>
<path opacity="0.3" d="M658.024 145.187L659.609 146.948L729.817 151.901V150.625L658.024 145.187Z" fill="#8399AA"/>
<path opacity="0.3" d="M1479.81 190.016V206.652L935.136 208.663V203.726H939.071V199.59H943.545V195.172L948.275 195.141L1105 194.134L1123.72 193.741L1479.81 190.016Z" fill="#E8E9EA"/>
<path opacity="0.3" d="M939.232 203.88V199.744L1479.97 196.757V201.569L939.232 203.88Z" fill="#D9DADB"/>
<path opacity="0.3" d="M1479.99 185.632V192.425L944.597 195.507V191.386L950.058 191.324L1026.9 190.49L1479.99 185.632Z" fill="#D9DADB"/>
<path opacity="0.3" d="M1479.99 180.211V185.746L1022.23 190.604L944.597 191.438V188.309L1479.99 180.211Z" fill="#E8E9EA"/>
<path opacity="0.3" d="M902.208 169.982H879.648V185.879H902.208V169.982Z" fill="#D1D1D1"/>
</g>
</svg>
