<svg width="30" height="30" viewBox="0 0 30 30" fill="none" xmlns="http://www.w3.org/2000/svg">
<path d="M8.75 3C6.69379 3 5 4.62604 5 6.6V23.4C5 25.374 6.69379 27 8.75 27H25V24.6H8.75C8.04371 24.6 7.5 24.078 7.5 23.4C7.5 22.722 8.04371 22.2 8.75 22.2H25V19.8V3H20H12.5H8.75ZM8.75 5.4H12.5V15.1477L14.4678 13.8234L16.25 12.6211L20 15.1477V5.4H22.5V19.8H8.75C8.3102 19.8 7.89361 19.8887 7.5 20.025V6.6C7.5 5.92196 8.04371 5.4 8.75 5.4ZM15 5.4H17.5V10.5328L16.25 9.69141L15 10.5328V5.4Z" fill="#A6ABC0"/>
</svg>
