<svg width="30" height="30" viewBox="0 0 30 30" fill="none" xmlns="http://www.w3.org/2000/svg">
<path d="M5.4 3C4.0764 3 3 4.10086 3 5.45455V25.0909C3 26.4446 4.0764 27.5455 5.4 27.5455H13.4203C13.0651 26.7821 12.8173 25.9586 12.6961 25.0909H5.4V5.45455H13.8V11.5909H19.8V15.3686C20.1924 15.3109 20.592 15.2703 21 15.2703C21.408 15.2703 21.8076 15.3109 22.2 15.3686V10.3636L15 3H5.4ZM21 17.7273C17.6868 17.7273 15 20.4751 15 23.8636C15 27.2521 17.6868 30 21 30C24.3132 30 27 27.2521 27 23.8636C27 20.4751 24.3132 17.7273 21 17.7273ZM23.4609 20.98L25.1391 22.6987L20.4 27.5455L16.8609 23.926L18.5391 22.2073L20.4 24.1081L23.4609 20.98Z" fill="#A6ABC0"/>
</svg>
