<svg width="30" height="30" viewBox="0 0 30 30" fill="none" xmlns="http://www.w3.org/2000/svg">
<path d="M7.8125 3.75C5.58004 3.75 3.75 5.58004 3.75 7.8125V22.1875C3.75 24.42 5.58004 26.25 7.8125 26.25H22.1875C24.42 26.25 26.25 24.42 26.25 22.1875V7.8125C26.25 5.58004 24.42 3.75 22.1875 3.75H7.8125ZM7.8125 5.625H22.1875C23.4063 5.625 24.375 6.59371 24.375 7.8125V8.75H5.625V7.8125C5.625 6.59371 6.59371 5.625 7.8125 5.625ZM5.625 10.625H24.375V22.1875C24.375 23.4063 23.4063 24.375 22.1875 24.375H7.8125C6.59371 24.375 5.625 23.4063 5.625 22.1875V10.625ZM10.1562 13.125C9.725 13.125 9.375 13.475 9.375 13.9062V19.8438C9.375 20.275 9.725 20.625 10.1562 20.625C10.5875 20.625 10.9375 20.275 10.9375 19.8438V17.6562H12.6562C13.0875 17.6562 13.4375 17.3062 13.4375 16.875C13.4375 16.4438 13.0875 16.0938 12.6562 16.0938H10.9375V14.6875H13.2812C13.7125 14.6875 14.0625 14.3375 14.0625 13.9062C14.0625 13.475 13.7125 13.125 13.2812 13.125H10.1562ZM16.4062 13.125C15.975 13.125 15.625 13.475 15.625 13.9062V19.8438C15.625 20.275 15.975 20.625 16.4062 20.625C16.8375 20.625 17.1875 20.275 17.1875 19.8438V18.75H18.4375C18.5119 18.75 18.5819 18.7337 18.6548 18.728L19.8438 20.3125C19.9975 20.5175 20.2325 20.625 20.47 20.625C20.6331 20.625 20.7969 20.5737 20.9375 20.4688C21.2831 20.21 21.3525 19.72 21.0938 19.375L20.166 18.1384C20.8206 17.623 21.25 16.8332 21.25 15.9375C21.25 14.3869 19.9881 13.125 18.4375 13.125H16.4062ZM17.1875 14.6875H18.4375C19.1269 14.6875 19.6875 15.2481 19.6875 15.9375C19.6875 16.6269 19.1269 17.1875 18.4375 17.1875H17.1875V14.6875Z" fill="#A6ABC0"/>
</svg>
