<svg width="27" height="27" viewBox="0 0 27 27" fill="none" xmlns="http://www.w3.org/2000/svg">
<path d="M6.75 2.25C5.50912 2.25 4.5 3.25912 4.5 4.5V5.625H3.375C2.754 5.625 2.25 6.129 2.25 6.75C2.25 7.371 2.754 7.875 3.375 7.875H4.5V10.125H3.375C2.754 10.125 2.25 10.629 2.25 11.25C2.25 11.871 2.754 12.375 3.375 12.375H4.5V14.625H3.375C2.754 14.625 2.25 15.129 2.25 15.75C2.25 16.371 2.754 16.875 3.375 16.875H4.5V19.125H3.375C2.754 19.125 2.25 19.629 2.25 20.25C2.25 20.871 2.754 21.375 3.375 21.375H4.5V22.5C4.5 23.7409 5.50912 24.75 6.75 24.75H20.25C21.4909 24.75 22.5 23.7409 22.5 22.5V4.5C22.5 3.25912 21.4909 2.25 20.25 2.25H6.75ZM9 6.75H18V10.125H9V6.75ZM9 12.375H18V14.625H9V12.375ZM9 16.875H18V19.125H9V16.875Z" fill="#A6ABC0"/>
</svg>
